if (_typeface_js && _typeface_js.loadFace) _typeface_js.loadFace({"glyphs":{"ǻ":{"x_min":49,"x_max":720.03125,"ha":822,"o":"m 299 -13 b 519 80 400 -13 469 23 l 519 79 b 619 -8 519 34 559 -8 b 720 93 675 -8 720 36 l 720 431 b 641 669 720 531 695 613 b 394 752 589 722 507 752 b 161 713 298 752 227 738 b 106 631 129 701 106 669 b 191 545 106 583 144 545 b 221 551 201 545 209 547 b 364 572 261 563 307 572 b 521 436 468 572 521 523 l 521 423 b 343 454 469 441 416 454 b 49 216 170 454 49 379 l 49 213 b 299 -13 49 66 161 -13 m 405 823 b 570 984 492 823 570 897 l 570 987 b 405 1148 570 1074 492 1148 b 240 987 318 1148 240 1074 l 240 984 b 405 823 240 897 318 823 m 362 131 b 249 222 295 131 249 165 l 249 224 b 392 327 249 291 303 327 b 524 299 442 327 488 316 l 524 262 b 362 131 524 186 458 131 m 400 1187 b 518 1233 446 1187 479 1195 l 602 1313 b 630 1363 619 1329 630 1344 b 514 1427 630 1395 564 1427 b 436 1380 480 1427 454 1409 l 362 1261 b 348 1223 355 1249 348 1236 b 400 1187 348 1201 370 1187 m 405 899 b 321 984 359 899 321 938 l 321 987 b 405 1072 321 1033 359 1072 b 490 987 451 1072 490 1033 l 490 984 b 405 899 490 938 451 899 "},"Ő":{"x_min":72.140625,"x_max":1084.8125,"ha":1181,"o":"m 577 -16 b 1084 486 871 -16 1084 209 l 1084 488 b 579 988 1084 765 873 988 b 72 486 285 988 72 762 l 72 483 b 577 -16 72 206 283 -16 m 579 180 b 291 486 411 180 291 319 l 291 488 b 577 791 291 655 408 791 b 865 486 745 791 865 652 l 865 483 b 579 180 865 316 748 180 m 695 1054 b 811 1100 741 1054 771 1062 l 895 1180 b 922 1230 911 1195 922 1211 b 808 1294 922 1262 858 1294 b 735 1247 774 1294 752 1276 l 660 1127 b 646 1090 653 1116 646 1102 b 695 1054 646 1068 665 1054 m 428 1054 b 544 1100 475 1054 504 1062 l 628 1180 b 656 1230 645 1195 656 1211 b 541 1294 656 1262 592 1294 b 468 1247 507 1294 485 1276 l 393 1127 b 379 1090 386 1116 379 1102 b 428 1054 379 1068 398 1054 "},"Ž":{"x_min":78.046875,"x_max":887.953125,"ha":983,"o":"m 170 0 l 795 0 b 887 93 845 0 887 41 b 795 187 887 144 845 187 l 355 187 l 849 773 b 887 873 874 804 887 836 l 887 877 b 795 972 887 929 845 972 l 186 972 b 94 877 136 972 94 929 b 186 784 94 826 136 784 l 610 784 l 116 198 b 78 98 91 169 78 136 l 78 94 b 170 0 78 43 120 0 m 491 1175 l 427 1229 b 302 1275 382 1266 348 1275 b 255 1241 276 1275 255 1264 b 275 1201 255 1229 265 1214 l 361 1089 b 457 1041 384 1059 410 1041 l 523 1041 b 619 1089 570 1041 596 1059 l 705 1201 b 725 1241 715 1214 725 1229 b 681 1275 725 1264 706 1275 b 555 1229 634 1275 600 1266 l 491 1175 "},"Á":{"x_min":48.90625,"x_max":992.171875,"ha":1064,"o":"m 48 91 b 145 -8 48 36 91 -8 b 242 58 189 -8 224 16 l 308 218 l 728 218 l 792 65 b 892 -8 811 20 843 -8 b 992 94 948 -8 992 37 b 981 137 992 108 988 122 l 649 902 b 528 987 626 955 585 987 l 515 987 b 393 902 458 987 416 955 l 61 137 b 48 91 54 122 48 106 m 386 406 l 518 727 l 650 406 l 386 406 m 514 1054 b 632 1100 560 1054 593 1062 l 717 1180 b 744 1230 733 1195 744 1211 b 628 1294 744 1262 679 1294 b 551 1247 594 1294 568 1276 l 476 1127 b 462 1090 469 1116 462 1102 b 514 1054 462 1068 484 1054 "},"Î":{"x_min":-6.8125,"x_max":464.140625,"ha":467,"o":"m 123 98 b 228 -8 123 38 170 -8 b 333 98 287 -8 333 38 l 333 873 b 228 980 333 932 287 980 b 123 873 170 980 123 932 l 123 98 m 227 1139 l 291 1085 b 416 1039 336 1048 370 1039 b 464 1073 442 1039 464 1050 b 443 1113 464 1085 453 1100 l 357 1225 b 261 1273 334 1255 308 1273 l 196 1273 b 99 1225 148 1273 122 1255 l 13 1113 b -6 1073 4 1100 -6 1085 b 38 1039 -6 1050 12 1039 b 163 1085 84 1039 118 1048 l 227 1139 "},"e":{"x_min":57.03125,"x_max":768.890625,"ha":851,"o":"m 259 430 b 417 588 276 526 331 588 b 571 430 504 588 559 525 l 259 430 m 691 73 b 718 136 706 87 718 108 b 638 219 718 183 684 219 b 587 202 616 219 602 213 b 440 152 545 170 498 152 b 262 298 348 152 282 202 l 672 298 b 768 400 726 298 768 338 b 417 758 768 554 661 758 b 57 370 205 758 57 583 l 57 368 b 438 -16 57 140 219 -16 b 691 73 544 -16 627 18 "},"»":{"x_min":91.0625,"x_max":809.921875,"ha":896,"o":"m 545 686 b 461 598 498 686 461 647 b 481 543 461 577 468 561 l 618 369 l 485 201 b 462 144 473 186 462 165 b 544 56 462 97 498 56 b 622 98 575 56 604 75 l 786 313 b 809 370 800 331 809 348 b 786 427 809 393 800 409 l 616 650 b 545 686 601 669 577 686 m 175 686 b 91 598 127 686 91 647 b 111 543 91 577 97 561 l 247 369 l 115 201 b 92 144 103 186 92 165 b 174 56 92 97 127 56 b 251 98 205 56 234 75 l 416 313 b 439 370 430 331 439 348 b 416 427 439 393 430 409 l 246 650 b 175 686 231 669 206 686 "},"ļ":{"x_min":84.390625,"x_max":328.03125,"ha":419,"o":"m 102 97 b 205 -8 102 38 148 -8 b 308 97 262 -8 308 38 l 308 916 b 205 1022 308 975 262 1022 b 102 916 148 1022 102 975 l 102 97 m 212 -241 b 118 -337 213 -290 183 -323 b 84 -370 96 -341 84 -352 b 127 -405 84 -388 98 -405 b 258 -356 172 -405 224 -387 b 328 -191 303 -319 328 -265 l 328 -187 b 224 -73 328 -119 288 -73 b 126 -156 164 -73 126 -108 l 126 -158 b 212 -241 126 -206 164 -233 "},"Ĕ":{"x_min":114.328125,"x_max":847.96875,"ha":931,"o":"m 219 0 l 754 0 b 847 94 805 0 847 41 b 754 190 847 147 805 190 l 322 190 l 322 394 l 686 394 b 779 488 737 394 779 436 b 686 584 779 541 737 584 l 322 584 l 322 781 l 747 781 b 841 876 798 781 841 823 b 747 972 841 929 798 972 l 219 972 b 114 865 160 972 114 925 l 114 106 b 219 0 114 47 160 0 m 476 1045 b 703 1163 582 1045 662 1090 b 713 1202 710 1176 713 1188 b 642 1275 713 1243 681 1275 b 581 1238 609 1275 592 1256 b 476 1183 560 1205 530 1183 b 371 1238 421 1183 392 1205 b 310 1275 360 1256 343 1275 b 239 1202 270 1275 239 1243 b 249 1163 239 1188 242 1176 b 476 1045 289 1090 370 1045 "}," ":{"x_min":0,"x_max":0,"ha":694},"ò":{"x_min":57.171875,"x_max":846.609375,"ha":922,"o":"m 450 -16 b 846 370 677 -16 846 156 l 846 373 b 453 758 846 587 679 758 b 57 370 225 758 57 584 l 57 368 b 450 -16 57 154 224 -16 m 453 165 b 261 370 338 165 261 261 l 261 373 b 450 576 261 483 332 576 b 642 370 564 576 642 480 l 642 368 b 453 165 642 258 571 165 m 457 818 b 509 854 487 818 509 831 b 495 891 509 866 502 880 l 420 1011 b 343 1058 402 1040 377 1058 b 227 994 292 1058 227 1026 b 254 944 227 975 238 959 l 338 863 b 457 818 378 826 411 818 "},"ﬄ":{"x_min":34.03125,"x_max":1348.859375,"ha":1481,"o":"m 127 97 b 231 -8 127 38 174 -8 b 334 97 288 -8 334 38 l 334 563 l 421 563 b 507 650 469 563 507 601 b 421 736 507 698 469 736 l 332 736 l 332 765 b 406 845 332 820 359 845 l 424 845 b 509 933 470 845 509 886 b 438 1018 509 980 473 1012 b 353 1023 415 1022 386 1023 b 186 965 280 1023 224 1004 b 127 784 148 926 127 866 l 127 737 l 119 737 b 34 650 72 737 34 698 b 119 563 34 601 72 563 l 127 563 l 127 97 m 647 97 b 751 -8 647 38 694 -8 b 854 97 808 -8 854 38 l 854 563 l 941 563 b 1027 650 989 563 1027 601 b 941 736 1027 698 989 736 l 852 736 l 852 765 b 926 845 852 820 879 845 l 944 845 b 1029 933 990 845 1029 886 b 958 1018 1029 980 993 1012 b 873 1023 935 1022 906 1023 b 706 965 800 1023 744 1004 b 647 784 668 926 647 866 l 647 737 l 639 737 b 553 650 592 737 553 698 b 639 563 553 601 592 563 l 647 563 l 647 97 m 1141 97 b 1245 -8 1141 38 1188 -8 b 1348 97 1302 -8 1348 38 l 1348 916 b 1245 1022 1348 975 1302 1022 b 1141 916 1188 1022 1141 975 l 1141 97 "},"ţ":{"x_min":31.3125,"x_max":513.140625,"ha":576,"o":"m 338 -12 b 457 8 383 -12 419 -6 b 510 87 485 19 510 50 b 424 175 510 136 470 175 b 400 173 420 175 406 173 b 333 245 353 173 333 197 l 333 563 l 424 563 b 513 654 473 563 513 604 b 424 744 513 704 473 744 l 333 744 l 333 837 b 230 943 333 895 287 943 b 126 837 172 943 126 895 l 126 744 l 119 744 b 31 654 70 744 31 704 b 119 563 31 604 70 563 l 126 563 l 126 211 b 338 -12 126 38 212 -12 m 308 -241 b 215 -337 310 -290 280 -323 b 181 -370 193 -341 181 -352 b 224 -405 181 -388 194 -405 b 355 -356 269 -405 321 -387 b 424 -191 400 -319 424 -265 l 424 -187 b 321 -73 424 -119 385 -73 b 223 -156 261 -73 223 -108 l 223 -158 b 308 -241 223 -206 261 -233 "},"^":{"x_min":103.4375,"x_max":575.75,"ha":694,"o":"m 338 847 l 408 755 b 529 677 455 693 480 677 b 575 711 555 677 575 690 b 556 761 575 726 568 743 l 449 915 b 345 975 421 954 393 975 l 333 975 b 230 915 285 975 257 954 l 122 761 b 103 711 110 743 103 726 b 149 677 103 690 123 677 b 269 755 196 677 221 693 l 338 847 "},"«":{"x_min":68.078125,"x_max":786.9375,"ha":896,"o":"m 702 56 b 786 144 750 56 786 95 b 766 200 786 165 780 181 l 630 373 l 762 541 b 785 598 774 556 785 577 b 703 686 785 645 750 686 b 626 644 672 686 644 668 l 461 429 b 438 372 447 411 438 394 b 461 315 438 350 447 333 l 631 93 b 702 56 646 73 671 56 m 332 56 b 416 144 379 56 416 95 b 396 200 416 165 409 181 l 260 373 l 392 541 b 415 598 404 556 415 577 b 333 686 415 645 379 686 b 255 644 302 686 273 668 l 91 429 b 68 372 77 411 68 394 b 91 315 68 350 77 333 l 261 93 b 332 56 276 73 300 56 "},"í":{"x_min":102.078125,"x_max":430.109375,"ha":419,"o":"m 102 97 b 205 -8 102 38 148 -8 b 308 97 262 -8 308 38 l 308 647 b 205 752 308 705 262 752 b 102 647 148 752 102 705 l 102 97 m 200 818 b 318 863 246 818 279 826 l 402 944 b 430 994 419 959 430 975 b 314 1058 430 1026 364 1058 b 236 1011 280 1058 254 1040 l 161 891 b 148 854 155 880 148 866 b 200 818 148 831 170 818 "},"ˆ":{"x_min":104.8125,"x_max":575.75,"ha":694,"o":"m 338 917 l 402 863 b 528 817 447 826 481 817 b 575 851 553 817 575 828 b 555 891 575 863 564 878 l 469 1003 b 372 1051 446 1033 420 1051 l 307 1051 b 210 1003 259 1051 234 1033 l 125 891 b 104 851 115 878 104 863 b 149 817 104 828 123 817 b 274 863 196 817 230 826 l 338 917 "},"ū":{"x_min":87.109375,"x_max":755.421875,"ha":865,"o":"m 755 647 b 651 752 755 705 709 752 b 548 647 594 752 548 705 l 548 329 b 419 177 548 229 498 177 b 294 329 340 177 294 229 l 294 647 b 190 752 294 705 247 752 b 87 647 133 752 87 705 l 87 262 b 334 -13 87 91 178 -13 b 548 105 439 -13 500 43 l 548 97 b 651 -8 548 38 594 -8 b 755 97 709 -8 755 38 l 755 647 m 601 833 b 673 905 641 833 673 865 b 601 979 673 945 641 979 l 239 979 b 167 905 200 979 167 945 b 239 833 167 865 200 833 l 601 833 "},"Ẅ":{"x_min":46.28125,"x_max":1448.21875,"ha":1525,"o":"m 321 72 b 430 -15 340 18 379 -15 l 451 -15 b 559 72 502 -15 540 16 l 747 629 l 935 72 b 1042 -15 954 16 992 -15 l 1064 -15 b 1173 72 1114 -15 1154 18 l 1440 836 b 1448 877 1444 848 1448 865 b 1344 980 1448 936 1401 980 b 1244 904 1293 980 1257 945 l 1054 308 l 864 898 b 758 983 847 950 811 983 l 741 983 b 635 898 688 983 651 948 l 445 308 l 255 904 b 153 980 242 948 202 980 b 46 876 95 980 46 936 b 54 836 46 863 50 848 l 321 72 m 892 1245 b 785 1144 834 1245 785 1204 l 785 1141 b 892 1040 785 1081 834 1040 b 1000 1141 951 1040 1000 1081 l 1000 1144 b 892 1245 1000 1204 951 1245 m 601 1245 b 494 1144 543 1245 494 1204 l 494 1141 b 601 1040 494 1081 543 1040 b 709 1141 660 1040 709 1081 l 709 1144 b 601 1245 709 1204 660 1245 "},"ņ":{"x_min":92.5625,"x_max":760.859375,"ha":865,"o":"m 92 97 b 196 -7 92 39 138 -7 b 299 97 253 -7 299 39 l 299 415 b 428 567 299 515 349 567 b 553 415 507 567 553 515 l 553 97 b 657 -7 553 39 600 -7 b 760 97 714 -7 760 39 l 760 482 b 513 758 760 653 669 758 b 299 639 408 758 347 701 l 299 647 b 196 753 299 706 253 753 b 92 647 138 753 92 706 l 92 97 m 432 -241 b 338 -337 434 -289 404 -323 b 304 -370 317 -341 304 -352 b 348 -405 304 -388 318 -405 b 479 -356 393 -405 445 -387 b 548 -191 524 -319 548 -264 l 548 -187 b 445 -73 548 -118 509 -73 b 347 -156 385 -73 347 -107 l 347 -157 b 432 -241 347 -206 385 -232 "},"ỳ":{"x_min":44.953125,"x_max":754.09375,"ha":814,"o":"m 243 -226 b 490 -18 367 -226 428 -169 l 744 605 b 754 655 748 615 754 638 b 656 752 754 711 709 752 b 556 672 603 752 573 716 l 404 240 l 246 673 b 147 752 228 723 198 752 b 44 651 89 752 44 711 b 55 602 44 637 50 616 l 304 13 l 298 -2 b 224 -47 279 -40 261 -47 b 181 -38 209 -47 198 -44 b 147 -33 172 -36 163 -33 b 65 -119 104 -33 65 -68 b 130 -206 65 -170 100 -195 b 243 -226 164 -219 197 -226 m 404 818 b 456 854 434 818 456 831 b 442 891 456 866 449 880 l 367 1011 b 289 1058 349 1040 323 1058 b 174 994 239 1058 174 1026 b 201 944 174 975 185 959 l 285 863 b 404 818 325 826 358 818 "},"č":{"x_min":57.171875,"x_max":725.46875,"ha":793,"o":"m 436 -17 b 695 78 556 -17 634 21 b 725 145 713 95 725 117 b 638 235 725 195 687 235 b 582 216 613 235 593 224 b 446 164 543 184 500 164 b 261 370 333 164 261 256 l 261 372 b 438 575 261 482 334 575 b 567 528 492 575 530 557 b 627 507 579 518 600 507 b 721 602 679 507 721 549 b 688 674 721 638 702 663 b 439 757 627 727 549 757 b 57 370 216 757 57 582 l 57 367 b 436 -17 57 154 217 -17 m 432 952 l 368 1006 b 243 1052 323 1043 289 1052 b 196 1018 217 1052 196 1041 b 216 978 196 1006 206 991 l 302 866 b 398 818 325 836 351 818 l 464 818 b 560 866 511 818 537 836 l 646 978 b 666 1018 656 991 666 1006 b 622 1052 666 1041 647 1052 b 496 1006 575 1052 541 1043 l 432 952 "},"’":{"x_min":32.671875,"x_max":317.140625,"ha":397,"o":"m 32 572 b 84 525 32 547 47 525 b 236 591 134 525 196 550 b 317 819 287 643 317 718 l 317 825 b 196 980 317 920 272 980 b 83 866 127 980 83 931 l 83 863 b 178 750 83 804 130 762 b 73 618 181 683 142 634 b 32 572 50 612 32 597 "},"-":{"x_min":59.890625,"x_max":495.4375,"ha":567,"o":"m 159 329 l 396 329 b 495 430 450 329 495 375 b 396 531 495 486 450 531 l 159 531 b 59 430 104 531 59 486 b 159 329 59 375 104 329 "},"Q":{"x_min":72.390625,"x_max":1085.0625,"ha":1181,"o":"m 577 -17 b 860 66 683 -17 780 13 l 912 19 b 981 -10 928 2 953 -10 b 1079 91 1036 -10 1079 35 b 1041 171 1079 125 1063 152 l 1000 206 b 1085 485 1053 287 1085 382 l 1085 488 b 580 988 1085 764 874 988 b 72 485 286 988 72 762 l 72 482 b 577 -17 72 206 283 -17 m 605 292 l 705 206 b 580 180 668 188 626 180 b 291 485 411 180 291 319 l 291 488 b 577 791 291 655 408 791 b 865 485 746 791 865 652 l 865 482 b 840 349 865 434 856 388 l 735 445 b 665 474 713 464 694 474 b 567 373 611 474 567 428 b 605 292 567 338 584 312 "},"M":{"x_min":114.328125,"x_max":1067.109375,"ha":1206,"o":"m 114 95 b 216 -8 114 37 159 -8 b 319 95 273 -8 319 37 l 319 579 l 500 294 b 588 240 522 261 549 240 b 675 294 626 240 653 261 l 858 583 l 858 98 b 962 -8 858 40 905 -8 b 1067 98 1020 -8 1067 38 l 1067 870 b 962 977 1067 930 1020 977 l 939 977 b 845 923 896 977 867 959 l 590 501 l 337 922 b 242 977 318 954 287 977 l 219 977 b 114 870 160 977 114 930 l 114 95 "},"̦":{"x_min":198.71875,"x_max":442.359375,"ha":694,"o":"m 326 -241 b 232 -337 328 -290 298 -323 b 198 -370 210 -341 198 -352 b 242 -405 198 -388 212 -405 b 372 -356 287 -405 338 -387 b 442 -191 417 -319 442 -265 l 442 -187 b 338 -73 442 -119 402 -73 b 240 -156 279 -73 240 -108 l 240 -158 b 326 -241 240 -206 279 -233 "},"œ":{"x_min":57.171875,"x_max":1340.703125,"ha":1435,"o":"m 831 429 b 989 588 847 525 903 588 b 1143 429 1076 588 1131 524 l 831 429 m 446 164 b 261 369 336 164 261 260 l 261 372 b 443 575 261 479 329 575 b 628 369 553 575 628 479 l 628 367 b 446 164 628 257 560 164 m 1263 72 b 1290 134 1278 86 1290 107 b 1210 218 1290 182 1256 218 b 1159 201 1188 218 1174 212 b 1012 151 1117 169 1069 151 b 834 297 920 151 854 201 l 1244 297 b 1340 399 1298 297 1340 337 b 989 757 1340 553 1233 757 b 721 634 879 757 785 710 b 446 757 656 710 559 757 b 57 369 230 757 57 584 l 57 367 b 438 -17 57 153 230 -17 b 718 108 552 -17 651 30 b 1009 -17 788 29 890 -17 b 1263 72 1116 -17 1199 16 "},"ě":{"x_min":57.03125,"x_max":768.890625,"ha":851,"o":"m 259 429 b 417 588 276 525 331 588 b 571 429 504 588 559 524 l 259 429 m 691 72 b 718 135 706 86 718 107 b 638 218 718 182 684 218 b 587 202 616 218 602 213 b 440 152 545 170 498 152 b 262 297 348 152 282 202 l 672 297 b 768 399 726 297 768 338 b 417 757 768 553 661 757 b 57 370 205 757 57 582 l 57 367 b 438 -17 57 139 219 -17 b 691 72 544 -17 627 17 m 413 952 l 349 1006 b 224 1052 304 1043 270 1052 b 176 1018 198 1052 176 1041 b 197 978 176 1006 187 991 l 282 866 b 379 818 306 836 331 818 l 444 818 b 541 866 492 818 518 836 l 627 978 b 647 1018 636 991 647 1006 b 602 1052 647 1041 628 1052 b 477 1006 556 1052 522 1043 l 413 952 "},"ŭ":{"x_min":87.109375,"x_max":755.421875,"ha":865,"o":"m 755 647 b 651 752 755 705 709 752 b 548 647 594 752 548 705 l 548 329 b 419 177 548 229 498 177 b 294 329 340 177 294 229 l 294 647 b 190 752 294 705 247 752 b 87 647 133 752 87 705 l 87 262 b 334 -13 87 91 178 -13 b 548 105 439 -13 500 43 l 548 97 b 651 -8 548 38 594 -8 b 755 97 709 -8 755 38 l 755 647 m 420 823 b 647 941 526 823 607 868 b 657 980 654 954 657 966 b 586 1052 657 1020 626 1052 b 525 1016 553 1052 536 1034 b 420 961 504 983 475 961 b 315 1016 366 961 336 983 b 254 1052 304 1034 287 1052 b 183 980 215 1052 183 1020 b 193 941 183 966 186 954 b 420 823 234 868 314 823 "},"{":{"x_min":57.3125,"x_max":607.203125,"ha":681,"o":"m 511 -184 b 607 -112 565 -197 607 -163 b 558 -41 607 -70 578 -48 b 437 109 454 -4 437 34 b 441 212 437 137 441 183 b 299 398 441 313 390 368 b 441 584 390 429 441 483 b 437 687 441 613 437 659 b 558 838 437 762 454 801 b 607 909 578 845 607 868 b 511 981 607 961 565 994 b 247 718 309 934 247 850 b 251 622 247 697 251 645 b 141 481 251 523 213 487 b 57 398 89 477 57 445 b 141 315 57 351 89 319 b 251 175 213 309 251 273 b 247 79 251 151 247 100 b 511 -184 247 -52 309 -137 "},"#":{"x_min":39.015625,"x_max":912.984375,"ha":972,"o":"m 138 95 b 225 -8 128 37 172 -8 b 312 65 274 -8 305 27 l 337 208 l 520 208 l 501 95 b 588 -8 492 43 535 -8 b 676 65 632 -8 669 22 l 700 208 l 778 208 b 865 297 825 208 865 248 b 778 386 865 345 825 386 l 730 386 l 764 591 l 825 591 b 912 680 873 591 912 631 b 825 769 912 729 873 769 l 794 769 l 812 876 b 725 980 820 929 778 980 b 638 906 681 980 644 951 l 614 769 l 431 769 l 448 876 b 361 980 456 929 414 980 b 274 906 318 980 281 951 l 251 769 l 173 769 b 86 680 126 769 86 729 b 173 591 86 631 126 591 l 221 591 l 187 386 l 126 386 b 39 297 78 386 39 345 b 126 208 39 248 78 208 l 157 208 l 138 95 m 367 386 l 401 591 l 584 591 l 550 386 l 367 386 "},"Ê":{"x_min":114.328125,"x_max":847.96875,"ha":931,"o":"m 219 0 l 754 0 b 847 94 805 0 847 41 b 754 189 847 146 805 189 l 322 189 l 322 394 l 686 394 b 779 488 737 394 779 435 b 686 584 779 541 737 584 l 322 584 l 322 781 l 747 781 b 841 875 798 781 841 823 b 747 971 841 928 798 971 l 219 971 b 114 864 160 971 114 924 l 114 106 b 219 0 114 46 160 0 m 475 1139 l 539 1085 b 664 1039 583 1048 617 1039 b 711 1073 690 1039 711 1050 b 691 1113 711 1085 700 1100 l 605 1225 b 509 1273 582 1255 556 1273 l 443 1273 b 347 1225 396 1273 370 1255 l 261 1113 b 240 1073 251 1100 240 1085 b 285 1039 240 1050 259 1039 b 411 1085 332 1039 366 1048 l 475 1139 "},")":{"x_min":58.53125,"x_max":525.390625,"ha":618,"o":"m 137 -184 b 186 -173 160 -184 179 -177 b 525 398 409 -36 525 145 b 186 970 525 651 409 833 b 137 981 179 975 160 981 b 58 895 96 981 58 938 b 92 826 58 862 73 840 b 319 398 250 705 319 583 b 92 -29 319 215 250 91 b 58 -98 73 -43 58 -65 b 137 -184 58 -141 96 -184 "},"ș":{"x_min":34.03125,"x_max":627.46875,"ha":697,"o":"m 348 -13 b 627 226 506 -13 627 61 l 627 229 b 406 450 627 365 509 415 b 258 538 328 477 258 497 l 258 541 b 334 593 258 570 284 593 b 492 545 378 593 434 575 b 530 536 506 538 515 536 b 613 619 577 536 613 572 b 564 698 613 655 594 683 b 338 755 494 734 415 755 b 72 519 191 755 72 670 l 72 516 b 289 293 72 372 187 323 b 441 206 370 268 441 252 l 441 204 b 353 148 441 170 413 148 b 156 215 295 148 225 170 b 115 226 145 222 130 226 b 34 143 69 226 34 190 b 73 70 34 109 51 84 b 348 -13 161 12 258 -13 m 352 -241 b 258 -337 353 -290 323 -323 b 224 -370 236 -341 224 -352 b 268 -405 224 -388 238 -405 b 398 -356 313 -405 364 -387 b 468 -191 443 -319 468 -265 l 468 -187 b 364 -73 468 -119 428 -73 b 266 -156 304 -73 266 -108 l 266 -158 b 352 -241 266 -206 304 -233 "},"Å":{"x_min":65.265625,"x_max":1008.46875,"ha":1097,"o":"m 643 952 b 702 1075 679 983 702 1027 l 702 1077 b 537 1238 702 1165 624 1238 b 372 1077 450 1238 372 1165 l 372 1075 b 431 952 372 1026 395 983 l 77 137 b 65 91 70 122 65 106 b 161 -8 65 36 107 -8 b 258 58 205 -8 240 16 l 325 218 l 744 218 l 808 65 b 909 -8 827 20 860 -8 b 1008 94 964 -8 1008 37 b 997 137 1008 108 1004 122 l 643 952 m 537 990 b 453 1075 491 990 453 1029 l 453 1077 b 537 1162 453 1123 491 1162 b 621 1077 583 1162 621 1123 l 621 1075 b 537 990 621 1029 583 990 m 402 406 l 534 727 l 666 406 l 402 406 "},"¸":{"x_min":176.75,"x_max":434,"ha":694,"o":"m 434 13 l 281 13 l 189 -123 b 176 -159 182 -133 176 -147 b 293 -231 176 -194 255 -231 b 353 -187 325 -231 341 -218 l 434 13 "},"a":{"x_min":49,"x_max":720.03125,"ha":822,"o":"m 299 -13 b 519 80 400 -13 469 23 l 519 79 b 619 -8 519 34 559 -8 b 720 93 675 -8 720 36 l 720 431 b 641 669 720 531 695 613 b 394 752 589 722 507 752 b 161 713 298 752 227 738 b 106 631 129 701 106 669 b 191 545 106 583 144 545 b 221 551 201 545 209 547 b 364 572 261 563 307 572 b 521 436 468 572 521 523 l 521 423 b 343 454 469 441 416 454 b 49 216 170 454 49 379 l 49 213 b 299 -13 49 66 161 -13 m 362 131 b 249 222 295 131 249 165 l 249 224 b 392 327 249 291 303 327 b 524 299 442 327 488 316 l 524 262 b 362 131 524 186 458 131 "},"Ę":{"x_min":114.25,"x_max":854.703125,"ha":931,"o":"m 219 0 l 649 0 b 602 -111 620 -36 602 -70 b 789 -231 602 -190 675 -231 b 854 -181 832 -231 854 -212 b 805 -131 854 -155 837 -140 b 751 -77 770 -122 751 -108 b 796 5 751 -48 766 -23 b 847 100 830 38 847 56 b 753 190 847 147 805 190 l 322 190 l 322 394 l 685 394 b 779 488 737 394 779 436 b 685 584 779 541 737 584 l 322 584 l 322 781 l 747 781 b 841 876 798 781 841 823 b 747 972 841 929 798 972 l 219 972 b 114 865 160 972 114 925 l 114 106 b 219 0 114 47 160 0 "},"=":{"x_min":91.1875,"x_max":779.921875,"ha":889,"o":"m 185 573 l 686 573 b 779 669 737 573 779 616 b 686 765 779 722 737 765 l 185 765 b 91 669 133 765 91 722 b 185 573 91 616 133 573 m 185 212 l 686 212 b 779 308 737 212 779 255 b 686 404 779 361 737 404 l 185 404 b 91 308 133 404 91 361 b 185 212 91 255 133 212 "},"˚":{"x_min":175.578125,"x_max":504.96875,"ha":694,"o":"m 340 823 b 504 984 427 823 504 897 l 504 987 b 340 1148 504 1075 427 1148 b 175 987 253 1148 175 1075 l 175 984 b 340 823 175 897 253 823 m 340 900 b 255 984 294 900 255 938 l 255 987 b 340 1072 255 1033 294 1072 b 424 987 386 1072 424 1033 l 424 984 b 340 900 424 938 386 900 "},"ú":{"x_min":87.109375,"x_max":755.421875,"ha":865,"o":"m 755 647 b 651 752 755 705 709 752 b 548 647 594 752 548 705 l 548 329 b 419 177 548 229 498 177 b 294 329 340 177 294 229 l 294 647 b 190 752 294 705 247 752 b 87 647 133 752 87 705 l 87 262 b 334 -13 87 91 178 -13 b 548 105 439 -13 500 43 l 548 97 b 651 -8 548 38 594 -8 b 755 97 709 -8 755 38 l 755 647 m 415 818 b 533 863 461 818 494 826 l 617 944 b 645 994 634 959 645 975 b 529 1058 645 1026 579 1058 b 451 1011 495 1058 469 1040 l 377 891 b 363 854 370 880 363 866 b 415 818 363 832 385 818 "},"¯":{"x_min":87.109375,"x_max":593.4375,"ha":694,"o":"m 521 833 b 593 905 560 833 593 865 b 521 979 593 945 560 979 l 159 979 b 87 905 119 979 87 945 b 159 833 87 865 119 833 l 521 833 "},"Z":{"x_min":78.046875,"x_max":887.953125,"ha":983,"o":"m 170 0 l 795 0 b 887 93 845 0 887 41 b 795 187 887 144 845 187 l 355 187 l 849 773 b 887 873 874 804 887 836 l 887 877 b 795 972 887 929 845 972 l 186 972 b 94 877 136 972 94 929 b 186 784 94 826 136 784 l 610 784 l 116 198 b 78 98 91 169 78 136 l 78 94 b 170 0 78 43 120 0 "},"u":{"x_min":87.109375,"x_max":755.421875,"ha":865,"o":"m 755 647 b 651 752 755 705 709 752 b 548 647 594 752 548 705 l 548 329 b 419 177 548 229 498 177 b 294 329 340 177 294 229 l 294 647 b 190 752 294 705 247 752 b 87 647 133 752 87 705 l 87 262 b 334 -13 87 91 178 -13 b 548 105 439 -13 500 43 l 548 97 b 651 -8 548 38 594 -8 b 755 97 709 -8 755 38 l 755 647 "},"k":{"x_min":92.5625,"x_max":749.96875,"ha":817,"o":"m 92 97 b 196 -8 92 38 138 -8 b 299 97 253 -8 299 38 l 299 218 l 382 294 l 563 40 b 653 -8 588 5 612 -8 b 749 87 705 -8 749 30 b 724 155 749 111 741 130 l 529 423 l 692 566 b 740 658 721 594 740 622 b 649 752 740 706 705 752 b 558 705 612 752 588 734 l 299 455 l 299 916 b 196 1022 299 975 253 1022 b 92 916 138 1022 92 975 l 92 97 "},"Ù":{"x_min":99.359375,"x_max":929.640625,"ha":1050,"o":"m 511 -15 b 929 423 767 -15 929 129 l 929 873 b 824 980 929 933 883 980 b 720 873 766 980 720 933 l 720 415 b 514 181 720 261 642 181 b 308 422 386 181 308 263 l 308 873 b 204 980 308 933 262 980 b 99 873 145 980 99 933 l 99 416 b 511 -15 99 130 255 -15 m 519 1040 b 571 1076 549 1040 571 1054 b 558 1113 571 1088 564 1102 l 483 1233 b 405 1280 465 1262 439 1280 b 289 1216 355 1280 289 1248 b 317 1166 289 1197 300 1181 l 401 1086 b 519 1040 441 1048 473 1040 "},"Ů":{"x_min":99.359375,"x_max":929.640625,"ha":1050,"o":"m 511 -15 b 929 423 767 -15 929 129 l 929 873 b 824 980 929 933 883 980 b 720 873 766 980 720 933 l 720 415 b 514 181 720 261 642 181 b 308 422 386 181 308 263 l 308 873 b 204 980 308 933 262 980 b 99 873 145 980 99 933 l 99 416 b 511 -15 99 130 255 -15 m 514 1025 b 679 1186 601 1025 679 1098 l 679 1188 b 514 1350 679 1276 601 1350 b 349 1188 427 1350 349 1276 l 349 1186 b 514 1025 349 1098 427 1025 m 514 1101 b 430 1186 468 1101 430 1140 l 430 1188 b 514 1273 430 1234 468 1273 b 598 1188 560 1273 598 1234 l 598 1186 b 514 1101 598 1140 560 1101 "},"¢":{"x_min":63.625,"x_max":729.03125,"ha":807,"o":"m 297 69 b 364 -16 288 22 322 -16 b 433 41 402 -16 427 8 l 446 105 b 697 205 553 107 636 148 b 724 269 715 222 724 244 b 641 357 724 318 686 357 b 587 339 614 357 599 348 b 473 289 554 314 516 294 l 548 673 b 582 651 560 666 571 659 b 637 632 594 641 614 632 b 729 725 688 632 729 673 b 699 794 729 758 712 782 b 588 858 667 820 631 843 l 598 902 b 531 989 607 950 573 989 b 462 930 493 989 469 964 l 452 880 l 444 880 b 63 493 224 880 63 707 l 63 490 b 308 127 63 322 164 180 l 297 69 m 263 493 l 263 495 b 424 697 263 601 330 690 l 350 314 b 263 493 295 348 263 415 "},"Ş":{"x_min":55.8125,"x_max":803.0625,"ha":889,"o":"m 803 287 l 803 290 b 500 581 803 459 694 530 b 295 709 336 625 295 645 l 295 712 b 417 797 295 759 337 797 b 617 731 483 797 548 773 b 671 716 634 722 650 716 b 769 815 725 716 769 759 b 722 900 769 856 745 886 b 420 986 637 955 536 986 b 87 693 225 986 87 869 l 87 690 b 402 393 87 497 210 443 b 594 269 562 351 594 323 l 594 266 b 457 175 594 209 543 175 b 213 262 364 175 285 208 b 153 281 200 272 181 281 b 55 183 99 281 55 238 b 95 102 55 150 72 119 b 363 -6 175 43 268 6 l 284 -123 b 272 -159 277 -133 272 -147 b 389 -231 272 -194 351 -231 b 449 -187 420 -231 436 -218 l 519 -9 b 803 287 688 11 803 115 "},"é":{"x_min":57.03125,"x_max":768.890625,"ha":851,"o":"m 259 430 b 417 588 276 526 331 588 b 571 430 504 588 559 525 l 259 430 m 691 73 b 718 136 706 87 718 108 b 638 219 718 183 684 219 b 587 202 616 219 602 213 b 440 152 545 170 498 152 b 262 298 348 152 282 202 l 672 298 b 768 400 726 298 768 338 b 417 758 768 554 661 758 b 57 370 205 758 57 583 l 57 368 b 438 -16 57 140 219 -16 b 691 73 544 -16 627 18 m 406 818 b 525 863 453 818 485 826 l 609 944 b 636 994 625 959 636 975 b 521 1058 636 1026 571 1058 b 443 1011 487 1058 461 1040 l 368 891 b 355 854 361 880 355 866 b 406 818 355 831 376 818 "},"B":{"x_min":114.34375,"x_max":924.21875,"ha":1003,"o":"m 114 106 b 219 0 114 47 160 0 l 567 0 b 924 266 782 0 924 88 l 924 269 b 745 508 924 400 856 465 b 871 718 813 547 871 608 l 871 720 b 805 886 871 787 849 841 b 556 972 751 941 665 972 l 219 972 b 114 865 160 972 114 925 l 114 106 m 318 579 l 318 784 l 525 784 b 662 684 613 784 662 748 l 662 681 b 511 579 662 609 604 579 l 318 579 m 318 187 l 318 401 l 560 401 b 715 295 668 401 715 361 l 715 293 b 567 187 715 220 660 187 l 318 187 "},"…":{"x_min":76.21875,"x_max":1067.109375,"ha":1167,"o":"m 835 112 l 835 109 b 951 -8 835 43 883 -8 b 1067 109 1019 -8 1067 43 l 1067 112 b 951 230 1067 179 1019 230 b 835 112 883 230 835 179 m 455 112 l 455 109 b 571 -8 455 43 503 -8 b 687 109 639 -8 687 43 l 687 112 b 571 230 687 179 639 230 b 455 112 503 230 455 179 m 76 112 l 76 109 b 191 -8 76 43 123 -8 b 307 109 259 -8 307 43 l 307 112 b 191 230 307 179 259 230 b 76 112 123 230 76 179 "},"ē":{"x_min":57.03125,"x_max":768.890625,"ha":851,"o":"m 259 430 b 417 588 276 526 331 588 b 571 430 504 588 559 525 l 259 430 m 691 73 b 718 136 706 87 718 108 b 638 219 718 183 684 219 b 587 202 616 219 602 213 b 440 152 545 170 498 152 b 262 298 348 152 282 202 l 672 298 b 768 400 726 298 768 338 b 417 758 768 554 661 758 b 57 370 205 758 57 583 l 57 368 b 438 -16 57 140 219 -16 b 691 73 544 -16 627 18 m 593 833 b 665 905 632 833 665 865 b 593 979 665 945 632 979 l 231 979 b 159 905 191 979 159 945 b 231 833 159 865 191 833 l 593 833 "},"H":{"x_min":114.328125,"x_max":920.109375,"ha":1056,"o":"m 114 98 b 219 -8 114 38 160 -8 b 323 98 277 -8 323 38 l 323 390 l 710 390 l 710 98 b 815 -8 710 38 756 -8 b 920 98 873 -8 920 38 l 920 873 b 815 980 920 933 873 980 b 710 873 756 980 710 933 l 710 587 l 323 587 l 323 873 b 219 980 323 933 277 980 b 114 873 160 980 114 933 l 114 98 "},"î":{"x_min":-29.9375,"x_max":441,"ha":419,"o":"m 102 97 b 205 -8 102 38 148 -8 b 308 97 262 -8 308 38 l 308 647 b 205 752 308 705 262 752 b 102 647 148 752 102 705 l 102 97 m 204 917 l 268 863 b 393 817 313 826 347 817 b 441 851 419 817 441 828 b 420 891 441 863 430 878 l 334 1003 b 238 1051 311 1033 285 1051 l 172 1051 b 76 1003 125 1051 99 1033 l -9 891 b -29 851 -19 878 -29 863 b 14 817 -29 828 -10 817 b 140 863 61 817 95 826 l 204 917 "},"−":{"x_min":84.390625,"x_max":786.71875,"ha":889,"o":"m 690 390 b 786 487 743 390 786 433 b 690 586 786 541 743 586 l 179 586 b 84 487 126 586 84 541 b 179 390 84 433 126 390 l 690 390 "},"¥":{"x_min":66.6875,"x_max":867.03125,"ha":953,"o":"m 567 363 l 752 363 b 826 438 793 363 826 397 b 752 513 826 480 793 513 l 622 513 l 841 806 b 867 880 856 827 867 851 b 766 980 867 943 820 980 b 669 918 720 980 690 948 l 468 618 l 268 920 b 170 980 245 956 213 980 b 66 879 108 980 66 931 b 92 806 66 852 74 831 l 308 513 l 181 513 b 107 438 140 513 107 480 b 181 363 107 397 140 363 l 366 363 l 366 277 l 181 277 b 107 202 140 277 107 244 b 181 127 107 161 140 127 l 366 127 l 366 94 b 466 -8 366 37 411 -8 b 567 94 522 -8 567 37 l 567 127 l 752 127 b 826 202 793 127 826 161 b 752 277 826 244 793 277 l 567 277 l 567 363 "},"U":{"x_min":99.359375,"x_max":929.640625,"ha":1050,"o":"m 511 -15 b 929 423 767 -15 929 129 l 929 873 b 824 980 929 933 883 980 b 720 873 766 980 720 933 l 720 415 b 514 181 720 261 642 181 b 308 422 386 181 308 263 l 308 873 b 204 980 308 933 262 980 b 99 873 145 980 99 933 l 99 416 b 511 -15 99 130 255 -15 "},"Ñ":{"x_min":114.328125,"x_max":960.953125,"ha":1097,"o":"m 114 97 b 217 -8 114 38 160 -8 b 321 97 274 -8 321 38 l 321 618 l 740 56 b 849 -5 769 19 798 -5 l 856 -5 b 960 101 914 -5 960 41 l 960 875 b 857 980 960 933 914 980 b 754 875 800 980 754 933 l 754 373 l 349 915 b 240 977 321 952 291 977 l 219 977 b 114 870 160 977 114 930 l 114 97 m 387 1062 b 451 1102 404 1090 419 1102 b 656 1048 500 1102 571 1048 b 808 1184 739 1048 778 1104 b 815 1222 812 1195 815 1212 b 754 1279 815 1251 786 1279 b 700 1247 729 1279 711 1265 b 637 1206 684 1219 669 1206 b 432 1261 588 1206 517 1261 b 280 1125 349 1261 310 1205 b 273 1087 276 1113 273 1097 b 334 1030 273 1058 302 1030 b 387 1062 359 1030 377 1044 "},"F":{"x_min":114.328125,"x_max":847.96875,"ha":911,"o":"m 114 98 b 219 -8 114 38 160 -8 b 323 98 277 -8 323 38 l 323 376 l 691 376 b 786 473 744 376 786 419 b 691 570 786 527 744 570 l 323 570 l 323 777 l 752 777 b 847 875 805 777 847 820 b 752 972 847 929 805 972 l 219 972 b 114 865 160 972 114 925 l 114 98 "},"ā":{"x_min":49,"x_max":720.03125,"ha":822,"o":"m 299 -13 b 519 80 400 -13 469 23 l 519 79 b 619 -8 519 34 559 -8 b 720 93 675 -8 720 36 l 720 431 b 641 669 720 531 695 613 b 394 752 589 722 507 752 b 161 713 298 752 227 738 b 106 631 129 701 106 669 b 191 545 106 583 144 545 b 221 551 201 545 209 547 b 364 572 261 563 307 572 b 521 436 468 572 521 523 l 521 423 b 343 454 469 441 416 454 b 49 216 170 454 49 379 l 49 213 b 299 -13 49 66 161 -13 m 586 833 b 658 905 626 833 658 865 b 586 979 658 945 626 979 l 224 979 b 152 905 185 979 152 945 b 224 833 152 865 185 833 l 586 833 m 362 131 b 249 222 295 131 249 165 l 249 224 b 392 327 249 291 303 327 b 524 299 442 327 488 316 l 524 262 b 362 131 524 186 458 131 "},"ă":{"x_min":49,"x_max":720.03125,"ha":822,"o":"m 299 -13 b 519 80 400 -13 469 23 l 519 79 b 619 -8 519 34 559 -8 b 720 93 675 -8 720 36 l 720 431 b 641 669 720 531 695 613 b 394 752 589 722 507 752 b 161 713 298 752 227 738 b 106 631 129 701 106 669 b 191 545 106 583 144 545 b 221 551 201 545 209 547 b 364 572 261 563 307 572 b 521 436 468 572 521 523 l 521 423 b 343 454 469 441 416 454 b 49 216 170 454 49 379 l 49 213 b 299 -13 49 66 161 -13 m 405 823 b 632 941 511 823 592 867 b 642 980 639 954 642 966 b 571 1052 642 1020 611 1052 b 510 1016 539 1052 521 1034 b 405 961 490 983 460 961 b 300 1016 351 961 321 983 b 239 1052 289 1034 272 1052 b 168 980 200 1052 168 1020 b 178 941 168 966 171 954 b 405 823 219 867 299 823 m 362 131 b 249 222 295 131 249 165 l 249 224 b 392 327 249 291 303 327 b 524 299 442 327 488 316 l 524 262 b 362 131 524 186 458 131 "},"*":{"x_min":74.40625,"x_max":509.953125,"ha":597,"o":"m 243 569 b 292 508 239 534 259 508 b 341 570 324 508 345 536 l 326 683 l 418 611 b 456 594 432 600 443 594 b 509 647 485 594 509 618 b 473 698 509 672 493 690 l 362 745 l 473 793 b 509 843 492 801 509 818 b 458 897 509 872 486 897 b 418 880 444 897 432 891 l 326 808 l 341 922 b 292 983 345 956 324 983 b 243 920 259 983 239 955 l 258 808 l 165 880 b 127 897 151 891 141 897 b 74 844 98 897 74 873 b 111 793 74 819 90 801 l 221 745 l 111 698 b 74 648 92 691 74 673 b 126 594 74 619 97 594 b 165 611 139 594 151 600 l 258 683 l 243 569 "},"†":{"x_min":64.28125,"x_max":494.078125,"ha":569,"o":"m 223 383 b 279 322 222 348 246 322 b 334 384 311 322 336 350 l 322 705 l 435 695 b 494 749 468 693 494 718 b 436 802 494 780 469 805 l 323 792 l 336 913 b 279 980 340 952 311 980 b 222 913 246 980 218 952 l 234 792 l 121 802 b 64 749 88 805 64 780 b 122 695 64 718 90 693 l 235 705 l 223 383 "},"°":{"x_min":91.1875,"x_max":562.140625,"ha":667,"o":"m 326 511 b 562 744 450 511 562 618 l 562 747 b 326 980 562 873 450 980 b 91 747 202 980 91 873 l 91 744 b 326 511 91 618 202 511 m 326 615 b 201 744 254 615 201 675 l 201 747 b 326 876 201 816 254 876 b 451 747 398 876 451 816 l 451 744 b 326 615 451 675 398 615 "},"å":{"x_min":49,"x_max":720.03125,"ha":822,"o":"m 299 -13 b 519 80 400 -13 469 23 l 519 79 b 619 -8 519 34 559 -8 b 720 93 675 -8 720 36 l 720 431 b 641 669 720 531 695 613 b 394 752 589 722 507 752 b 161 713 298 752 227 738 b 106 631 129 701 106 669 b 191 545 106 583 144 545 b 221 551 201 545 209 547 b 364 572 261 563 307 572 b 521 436 468 572 521 523 l 521 423 b 343 454 469 441 416 454 b 49 216 170 454 49 379 l 49 213 b 299 -13 49 66 161 -13 m 405 823 b 570 984 492 823 570 897 l 570 987 b 405 1148 570 1074 492 1148 b 240 987 318 1148 240 1074 l 240 984 b 405 823 240 897 318 823 m 362 131 b 249 222 295 131 249 165 l 249 224 b 392 327 249 291 303 327 b 524 299 442 327 488 316 l 524 262 b 362 131 524 186 458 131 m 405 899 b 321 984 359 899 321 938 l 321 987 b 405 1072 321 1033 359 1072 b 490 987 451 1072 490 1033 l 490 984 b 405 899 490 938 451 899 "},"0":{"x_min":73.5,"x_max":920.109375,"ha":1014,"o":"m 495 -16 b 920 486 749 -16 920 204 l 920 488 b 498 988 920 770 749 988 b 73 486 245 988 73 768 l 73 483 b 495 -16 73 201 240 -16 m 498 176 b 288 486 371 176 288 308 l 288 488 b 495 795 288 666 370 795 b 705 486 620 795 705 662 l 705 483 b 498 176 705 306 624 176 "},"ō":{"x_min":57.171875,"x_max":846.609375,"ha":922,"o":"m 450 -16 b 846 370 677 -16 846 156 l 846 373 b 453 758 846 587 679 758 b 57 370 225 758 57 584 l 57 368 b 450 -16 57 154 224 -16 m 453 165 b 261 370 338 165 261 261 l 261 373 b 450 576 261 483 332 576 b 642 370 564 576 642 480 l 642 368 b 453 165 642 258 571 165 m 632 833 b 705 905 672 833 705 865 b 632 979 705 945 672 979 l 270 979 b 198 905 231 979 198 945 b 270 833 198 865 231 833 l 632 833 "},"”":{"x_min":32.671875,"x_max":662.859375,"ha":750,"o":"m 32 572 b 84 525 32 547 47 525 b 236 591 134 525 196 550 b 317 819 287 643 317 718 l 317 825 b 196 980 317 920 272 980 b 83 866 127 980 83 931 l 83 863 b 178 750 83 804 130 762 b 73 618 181 683 142 634 b 32 572 50 612 32 597 m 378 572 b 430 525 378 547 393 525 b 582 591 480 525 541 550 b 662 819 632 643 662 718 l 662 825 b 541 980 662 920 617 980 b 428 866 473 980 428 931 l 428 863 b 524 750 428 804 476 762 b 419 618 526 683 488 634 b 378 572 396 612 378 597 "},"ŵ":{"x_min":39.46875,"x_max":1116.109375,"ha":1179,"o":"m 341 -14 l 348 -14 b 460 76 398 -14 441 15 l 577 451 l 692 76 b 804 -14 711 15 754 -14 l 811 -14 b 925 80 861 -14 903 15 l 1109 612 b 1116 655 1112 622 1116 641 b 1019 752 1116 708 1076 752 b 920 672 965 752 933 716 l 805 291 l 690 669 b 583 753 675 719 637 753 l 571 753 b 465 669 518 753 480 719 l 351 292 l 239 670 b 138 752 224 719 190 752 b 39 656 77 752 39 705 b 49 605 39 638 44 617 l 227 80 b 341 -14 249 15 291 -14 m 575 917 l 639 863 b 764 817 684 826 718 817 b 812 851 790 817 812 828 b 792 891 812 863 801 878 l 706 1003 b 609 1051 683 1033 657 1051 l 544 1051 b 447 1003 496 1051 470 1033 l 362 891 b 341 851 352 878 341 863 b 386 817 341 828 360 817 b 511 863 432 817 466 826 l 575 917 "},"Ķ":{"x_min":114.578125,"x_max":910.828125,"ha":989,"o":"m 114 98 b 219 -8 114 38 160 -8 b 324 98 277 -8 324 38 l 324 293 l 443 406 l 716 43 b 804 -8 739 12 763 -8 b 910 95 865 -8 910 36 b 882 170 910 127 898 150 l 589 545 l 857 801 b 895 881 880 823 895 848 b 799 980 895 934 857 980 b 710 938 762 980 736 965 l 324 547 l 324 873 b 219 980 324 933 277 980 b 114 873 160 980 114 933 l 114 98 m 505 -234 b 411 -330 506 -283 476 -316 b 377 -363 389 -334 377 -345 b 420 -398 377 -381 390 -398 b 551 -350 465 -398 517 -380 b 620 -184 596 -312 620 -258 l 620 -180 b 517 -66 620 -112 581 -66 b 419 -150 457 -66 419 -101 l 419 -151 b 505 -234 419 -200 457 -226 "},"ö":{"x_min":57.171875,"x_max":846.609375,"ha":922,"o":"m 450 -16 b 846 370 677 -16 846 156 l 846 373 b 453 758 846 587 679 758 b 57 370 225 758 57 584 l 57 368 b 450 -16 57 154 224 -16 m 453 165 b 261 370 338 165 261 261 l 261 373 b 450 576 261 483 332 576 b 642 370 564 576 642 480 l 642 368 b 453 165 642 258 571 165 m 597 1023 b 490 922 539 1023 490 981 l 490 919 b 597 818 490 859 539 818 b 705 919 656 818 705 859 l 705 922 b 597 1023 705 981 656 1023 m 306 1023 b 198 922 247 1023 198 981 l 198 919 b 306 818 198 859 247 818 b 413 919 364 818 413 859 l 413 922 b 306 1023 413 981 364 1023 "},"ǽ":{"x_min":49,"x_max":1229.078125,"ha":1321,"o":"m 720 430 b 877 588 736 526 792 588 b 1031 430 965 588 1019 524 l 720 430 m 362 133 b 249 221 299 133 249 167 l 249 224 b 392 327 249 291 303 327 b 522 301 441 327 487 316 b 548 204 526 266 536 234 b 362 133 487 156 423 133 m 1151 72 b 1178 135 1166 86 1178 107 b 1098 218 1178 182 1144 218 b 1048 202 1076 218 1063 213 b 901 152 1005 170 958 152 b 722 298 808 152 743 202 l 1132 298 b 1229 399 1186 298 1229 338 b 883 758 1229 554 1120 758 b 642 658 784 758 702 720 b 394 752 593 719 514 752 b 161 713 298 752 227 738 b 106 631 129 701 106 669 b 191 545 106 583 144 545 b 221 551 201 545 209 547 b 364 572 261 563 307 572 b 521 436 468 572 521 523 l 521 423 b 343 454 469 441 416 454 b 49 216 170 454 49 378 l 49 213 b 323 -14 49 68 166 -14 b 620 95 439 -14 537 32 b 898 -17 688 24 786 -17 b 1151 72 1004 -17 1087 17 m 632 817 b 751 863 679 817 711 826 l 835 944 b 862 994 852 959 862 974 b 747 1058 862 1026 797 1058 b 669 1011 713 1058 687 1040 l 594 891 b 581 854 588 880 581 866 b 632 817 581 831 602 817 "},"Ļ":{"x_min":114.328125,"x_max":807.140625,"ha":860,"o":"m 114 106 b 219 0 114 47 160 0 l 711 0 b 807 97 764 0 807 43 b 711 194 807 151 764 194 l 323 194 l 323 873 b 219 980 323 933 277 980 b 114 873 160 980 114 933 l 114 106 m 462 -241 b 368 -337 464 -290 434 -323 b 334 -370 347 -341 334 -352 b 378 -405 334 -388 348 -405 b 509 -356 423 -405 475 -387 b 578 -191 553 -319 578 -265 l 578 -187 b 475 -73 578 -119 539 -73 b 377 -156 415 -73 377 -108 l 377 -158 b 462 -241 377 -206 415 -233 "},"Õ":{"x_min":72.140625,"x_max":1084.8125,"ha":1181,"o":"m 577 -16 b 1084 486 871 -16 1084 209 l 1084 488 b 579 988 1084 765 873 988 b 72 486 285 988 72 762 l 72 483 b 577 -16 72 206 283 -16 m 579 180 b 291 486 411 180 291 319 l 291 488 b 577 791 291 655 408 791 b 865 486 745 791 865 652 l 865 483 b 579 180 865 316 748 180 m 428 1076 b 492 1116 445 1104 460 1116 b 696 1062 541 1116 612 1062 b 849 1198 779 1062 819 1118 b 856 1236 853 1209 856 1226 b 794 1293 856 1265 827 1293 b 741 1261 770 1293 752 1279 b 677 1220 725 1233 710 1220 b 473 1275 628 1220 558 1275 b 321 1138 390 1275 351 1219 b 314 1101 317 1127 314 1111 b 375 1044 314 1072 343 1044 b 428 1076 400 1044 417 1058 "},"ć":{"x_min":57.171875,"x_max":725.46875,"ha":793,"o":"m 436 -16 b 695 79 556 -16 634 22 b 725 145 713 95 725 118 b 638 236 725 195 687 236 b 582 216 613 236 593 225 b 446 165 543 184 500 165 b 261 370 333 165 261 256 l 261 373 b 438 576 261 483 334 576 b 567 529 492 576 530 558 b 627 508 579 519 600 508 b 721 602 679 508 721 550 b 688 675 721 638 702 663 b 439 758 627 727 549 758 b 57 370 216 758 57 583 l 57 368 b 436 -16 57 155 217 -16 m 426 818 b 544 863 472 818 504 826 l 628 944 b 656 994 645 959 656 975 b 540 1058 656 1026 590 1058 b 462 1011 506 1058 480 1040 l 387 891 b 374 854 381 880 374 866 b 426 818 374 831 396 818 "},"þ":{"x_min":92.5625,"x_max":858.859375,"ha":938,"o":"m 92 -125 b 196 -230 92 -183 138 -230 b 299 -125 253 -230 299 -183 l 299 97 b 526 -14 348 37 416 -14 b 858 370 699 -14 858 122 l 858 373 b 526 758 858 622 696 758 b 299 637 419 758 349 706 l 299 916 b 196 1022 299 974 253 1022 b 92 916 138 1022 92 974 l 92 -125 m 473 165 b 296 370 377 165 296 247 l 296 373 b 473 578 296 497 377 578 b 651 373 570 578 651 497 l 651 370 b 473 165 651 245 570 165 "},"]":{"x_min":72.140625,"x_max":519.9375,"ha":646,"o":"m 519 869 b 419 972 519 926 475 972 l 153 972 b 72 888 108 972 72 934 b 153 806 72 843 108 806 l 321 806 l 321 -15 l 153 -15 b 72 -97 108 -15 72 -51 b 153 -180 72 -143 108 -180 l 419 -180 b 519 -77 475 -180 519 -134 l 519 869 "},"ẁ":{"x_min":39.46875,"x_max":1116.109375,"ha":1179,"o":"m 341 -13 l 348 -13 b 460 76 398 -13 441 15 l 577 451 l 692 76 b 804 -13 711 15 754 -13 l 811 -13 b 925 80 861 -13 903 15 l 1109 612 b 1116 655 1112 622 1116 641 b 1019 752 1116 708 1076 752 b 920 672 965 752 933 716 l 805 291 l 690 669 b 583 754 675 719 637 754 l 571 754 b 465 669 518 754 480 719 l 351 293 l 239 670 b 138 752 224 719 190 752 b 39 656 77 752 39 705 b 49 605 39 638 44 618 l 227 80 b 341 -13 249 15 291 -13 m 582 818 b 634 854 612 818 634 831 b 620 891 634 866 627 880 l 545 1011 b 468 1058 528 1040 502 1058 b 352 994 417 1058 352 1026 b 379 944 352 975 363 959 l 464 863 b 582 818 503 826 536 818 "},"ĭ":{"x_min":-31.3125,"x_max":442.359375,"ha":419,"o":"m 102 97 b 205 -8 102 38 148 -8 b 308 97 262 -8 308 38 l 308 647 b 205 752 308 705 262 752 b 102 647 148 752 102 705 l 102 97 m 205 823 b 432 941 311 823 392 868 b 442 980 439 954 442 966 b 371 1052 442 1020 411 1052 b 310 1016 338 1052 321 1034 b 205 961 289 983 259 961 b 100 1016 151 961 121 983 b 39 1052 89 1034 72 1052 b -31 980 0 1052 -31 1020 b -21 941 -31 966 -28 954 b 205 823 19 868 99 823 "},"8":{"x_min":61.5,"x_max":795.859375,"ha":875,"o":"m 428 -13 b 795 272 639 -13 795 91 l 795 275 b 642 504 795 390 738 452 b 763 716 715 550 763 612 l 763 719 b 428 986 763 869 629 986 b 94 719 227 986 94 868 l 94 716 b 215 504 94 612 141 550 b 61 269 114 456 61 387 l 61 266 b 428 -13 61 97 217 -13 m 428 575 b 292 694 345 575 292 626 l 292 697 b 428 809 292 756 343 809 b 564 695 514 809 564 755 l 564 693 b 428 575 564 625 511 575 m 428 162 b 264 283 325 162 264 216 l 264 286 b 428 405 264 361 333 405 b 593 286 523 405 593 361 l 593 283 b 428 162 593 215 531 162 "},"R":{"x_min":114.421875,"x_max":909.3125,"ha":1004,"o":"m 114 98 b 219 -8 114 38 160 -8 b 324 98 277 -8 324 38 l 324 311 l 491 311 l 695 47 b 799 -8 720 15 751 -8 b 898 90 849 -8 898 30 b 864 172 898 123 884 145 l 718 352 b 909 648 834 401 909 495 l 909 651 b 827 873 909 743 880 819 b 549 972 765 937 671 972 l 219 972 b 114 865 160 972 114 925 l 114 98 m 324 500 l 324 779 l 532 779 b 696 640 634 779 696 731 l 696 637 b 536 500 696 555 638 500 l 324 500 "},"ť":{"x_min":31.3125,"x_max":570.3125,"ha":576,"o":"m 338 -12 b 457 8 383 -12 419 -6 b 510 87 485 19 510 50 b 424 175 510 136 470 175 b 400 173 420 175 406 173 b 333 245 353 173 333 197 l 333 563 l 424 563 b 513 654 473 563 513 604 b 424 744 513 704 473 744 l 333 744 l 333 837 b 230 943 333 895 287 943 b 126 837 172 943 126 895 l 126 744 l 119 744 b 31 654 70 744 31 704 b 119 563 31 604 70 563 l 126 563 l 126 211 b 338 -12 126 38 212 -12 m 423 861 b 465 813 423 833 439 813 b 513 851 491 813 506 827 l 564 1034 b 570 1066 568 1047 570 1058 b 519 1112 570 1097 548 1112 l 492 1112 b 423 1041 450 1112 423 1080 l 423 861 "},"Ľ":{"x_min":114.328125,"x_max":807.140625,"ha":860,"o":"m 114 106 b 219 0 114 47 160 0 l 711 0 b 807 97 764 0 807 43 b 711 194 807 151 764 194 l 323 194 l 323 873 b 219 980 323 933 277 980 b 114 873 160 980 114 933 l 114 106 m 430 722 b 472 675 430 694 446 675 b 519 712 498 675 513 688 l 571 895 b 577 927 575 908 577 919 b 526 973 577 958 555 973 l 499 973 b 430 902 457 973 430 941 l 430 722 "},"Ż":{"x_min":77.578125,"x_max":887.453125,"ha":983,"o":"m 170 0 l 794 0 b 887 93 845 0 887 41 b 794 187 887 144 845 187 l 355 187 l 849 773 b 887 873 873 804 887 836 l 887 877 b 794 972 887 929 845 972 l 186 972 b 93 877 136 972 93 929 b 186 784 93 826 136 784 l 609 784 l 115 198 b 77 98 91 169 77 136 l 77 94 b 170 0 77 43 119 0 m 600 1144 b 490 1245 600 1205 549 1245 b 379 1144 430 1245 379 1205 l 379 1141 b 490 1040 379 1080 430 1040 b 600 1141 549 1040 600 1080 l 600 1144 "},"o":{"x_min":57.171875,"x_max":846.609375,"ha":922,"o":"m 450 -16 b 846 370 677 -16 846 156 l 846 373 b 453 758 846 587 679 758 b 57 370 225 758 57 584 l 57 368 b 450 -16 57 154 224 -16 m 453 165 b 261 370 338 165 261 261 l 261 373 b 450 576 261 483 332 576 b 642 370 564 576 642 480 l 642 368 b 453 165 642 258 571 165 "},"5":{"x_min":80.3125,"x_max":777.203125,"ha":875,"o":"m 421 -16 b 777 319 631 -16 777 113 l 777 321 b 443 633 777 541 631 633 b 318 616 390 633 356 626 l 329 784 l 650 784 b 743 877 700 784 743 826 b 650 971 743 928 700 971 l 236 971 b 144 880 186 971 147 931 l 125 551 b 163 464 122 514 134 485 b 258 421 205 434 228 421 b 402 446 287 421 322 446 b 571 314 502 446 571 398 l 571 312 b 417 177 571 226 506 177 b 236 239 351 177 295 196 b 179 259 220 252 204 259 b 80 156 125 259 80 212 b 122 74 80 120 98 92 b 421 -16 198 19 289 -16 "},"ħ":{"x_min":-8.171875,"x_max":760.859375,"ha":865,"o":"m 92 97 b 196 -7 92 39 138 -7 b 299 97 253 -7 299 39 l 299 415 b 428 567 299 515 349 567 b 553 415 507 567 553 515 l 553 97 b 657 -7 553 39 600 -7 b 760 97 714 -7 760 39 l 760 482 b 513 758 760 653 669 758 b 299 639 408 758 347 701 l 299 825 l 461 825 b 518 883 492 825 518 851 b 461 942 518 915 492 942 l 296 942 b 196 1022 285 987 245 1022 b 95 942 147 1022 106 987 l 49 942 b -8 883 17 942 -8 915 b 49 825 -8 851 17 825 l 92 825 l 92 97 "},"õ":{"x_min":57.171875,"x_max":846.609375,"ha":922,"o":"m 450 -16 b 846 370 677 -16 846 156 l 846 373 b 453 758 846 587 679 758 b 57 370 225 758 57 584 l 57 368 b 450 -16 57 154 224 -16 m 453 165 b 261 370 338 165 261 261 l 261 373 b 450 576 261 483 332 576 b 642 370 564 576 642 480 l 642 368 b 453 165 642 258 571 165 m 302 840 b 366 880 318 868 333 880 b 570 826 415 880 485 826 b 722 962 653 826 692 881 b 729 1000 726 973 729 990 b 668 1056 729 1029 700 1056 b 615 1025 643 1056 626 1043 b 551 984 598 997 583 984 b 347 1038 502 984 431 1038 b 194 902 264 1038 224 983 b 187 865 190 891 187 875 b 249 808 187 836 216 808 b 302 840 273 808 291 822 "},",":{"x_min":25.859375,"x_max":310.328125,"ha":397,"o":"m 25 -177 b 77 -225 25 -202 40 -225 b 230 -158 127 -225 189 -200 b 310 69 280 -106 310 -31 l 310 75 b 189 230 310 170 265 230 b 76 116 121 230 76 181 l 76 113 b 171 0 76 54 123 12 b 66 -131 174 -66 136 -115 b 25 -177 43 -137 25 -152 "},"d":{"x_min":59.890625,"x_max":826.203125,"ha":938,"o":"m 826 916 b 722 1022 826 974 779 1022 b 619 916 665 1022 619 974 l 619 647 b 392 758 570 706 502 758 b 59 373 219 758 59 622 l 59 370 b 392 -14 59 122 221 -14 b 619 106 499 -14 568 37 l 619 97 b 722 -8 619 38 665 -8 b 826 97 779 -8 826 38 l 826 916 m 445 578 b 622 373 541 578 622 497 l 622 370 b 445 165 622 247 541 165 b 266 370 348 165 266 247 l 266 373 b 445 578 266 498 348 578 "},"\"":{"x_min":80.265625,"x_max":631.5625,"ha":722,"o":"m 401 584 b 458 520 400 547 426 520 b 518 572 490 520 507 541 l 627 893 b 631 922 630 902 631 913 b 578 977 631 955 608 977 l 513 977 b 417 881 457 977 420 934 l 401 584 m 80 584 b 137 520 78 547 104 520 b 197 572 168 520 186 541 l 306 893 b 310 922 308 902 310 913 b 257 977 310 955 287 977 l 191 977 b 96 881 136 977 99 934 l 80 584 "},"˙":{"x_min":230.03125,"x_max":450.53125,"ha":694,"o":"m 450 922 b 340 1023 450 983 400 1023 b 230 922 280 1023 230 983 l 230 919 b 340 818 230 858 280 818 b 450 919 400 818 450 858 l 450 922 "},"ê":{"x_min":57.03125,"x_max":768.890625,"ha":851,"o":"m 259 430 b 417 588 276 526 331 588 b 571 430 504 588 559 524 l 259 430 m 691 73 b 718 135 706 87 718 108 b 638 219 718 183 684 219 b 587 202 616 219 602 213 b 440 152 545 170 498 152 b 262 298 348 152 282 202 l 672 298 b 768 399 726 298 768 338 b 417 758 768 553 661 758 b 57 370 205 758 57 583 l 57 367 b 438 -16 57 140 219 -16 b 691 73 544 -16 627 17 m 410 917 l 474 863 b 600 817 519 826 553 817 b 647 851 625 817 647 828 b 627 891 647 863 636 878 l 541 1003 b 444 1051 518 1033 492 1051 l 379 1051 b 282 1003 331 1051 306 1033 l 197 891 b 176 851 187 878 176 863 b 221 817 176 828 195 817 b 346 863 268 817 302 826 l 410 917 "},"„":{"x_min":25.859375,"x_max":656.0625,"ha":750,"o":"m 25 -177 b 77 -225 25 -202 40 -225 b 230 -158 127 -225 189 -200 b 310 69 280 -106 310 -31 l 310 75 b 189 230 310 170 265 230 b 76 116 121 230 76 181 l 76 113 b 171 0 76 54 123 12 b 66 -131 174 -66 136 -115 b 25 -177 43 -137 25 -152 m 371 -177 b 423 -225 371 -202 386 -225 b 575 -158 473 -225 534 -200 b 656 69 626 -106 656 -31 l 656 75 b 534 230 656 170 611 230 b 421 116 466 230 421 181 l 421 113 b 517 0 421 54 469 12 b 412 -131 519 -66 481 -115 b 371 -177 389 -137 371 -152 "},"ľ":{"x_min":102.078125,"x_max":524.03125,"ha":419,"o":"m 102 97 b 205 -8 102 38 148 -8 b 308 97 262 -8 308 38 l 308 916 b 205 1022 308 975 262 1022 b 102 916 148 1022 102 975 l 102 97 m 377 770 b 419 723 377 743 393 723 b 466 761 445 723 460 737 l 518 944 b 524 976 522 956 524 968 b 473 1022 524 1006 502 1022 l 446 1022 b 377 951 404 1022 377 990 l 377 770 "},"Â":{"x_min":48.90625,"x_max":992.171875,"ha":1064,"o":"m 48 91 b 145 -8 48 35 91 -8 b 242 58 189 -8 224 16 l 308 217 l 728 217 l 792 64 b 892 -8 811 20 843 -8 b 992 94 948 -8 992 37 b 981 137 992 108 988 121 l 649 902 b 528 987 626 955 585 987 l 515 987 b 393 902 458 987 416 955 l 61 137 b 48 91 54 121 48 106 m 386 406 l 518 727 l 650 406 l 386 406 m 518 1153 l 582 1099 b 707 1053 627 1062 661 1053 b 755 1087 733 1053 755 1064 b 734 1127 755 1099 744 1114 l 649 1239 b 552 1287 626 1269 600 1287 l 487 1287 b 390 1239 439 1287 413 1269 l 304 1127 b 284 1087 295 1114 284 1099 b 329 1053 284 1064 303 1053 b 454 1099 375 1053 409 1062 l 518 1153 "},"Į":{"x_min":99.5625,"x_max":351.375,"ha":467,"o":"m 99 -111 b 286 -231 99 -190 171 -231 b 351 -181 329 -231 351 -212 b 302 -131 351 -155 333 -140 b 247 -77 266 -122 247 -108 b 295 13 247 -52 258 -27 b 333 98 322 44 333 66 l 333 873 b 228 980 333 933 287 980 b 124 873 170 980 124 933 l 124 98 b 159 18 124 65 137 37 b 99 -111 118 -30 99 -68 "},"ė":{"x_min":57.171875,"x_max":769.03125,"ha":851,"o":"m 259 430 b 417 588 276 526 332 588 b 571 430 504 588 559 525 l 259 430 m 691 73 b 718 136 706 87 718 108 b 638 219 718 183 684 219 b 588 202 616 219 602 213 b 441 152 545 170 498 152 b 262 298 348 152 283 202 l 672 298 b 769 400 726 298 769 338 b 417 758 769 554 661 758 b 57 370 205 758 57 583 l 57 368 b 438 -16 57 140 219 -16 b 691 73 544 -16 627 18 m 522 922 b 412 1023 522 983 472 1023 b 302 922 352 1023 302 983 l 302 919 b 412 818 302 858 352 818 b 522 919 472 818 522 858 l 522 922 "},"Ţ":{"x_min":38.109375,"x_max":843.890625,"ha":900,"o":"m 336 98 b 441 -8 336 38 382 -8 b 545 98 499 -8 545 38 l 545 775 l 747 775 b 843 873 800 775 843 819 b 747 972 843 927 800 972 l 134 972 b 38 873 81 972 38 927 b 134 775 38 819 81 775 l 336 775 l 336 98 m 447 -241 b 353 -337 449 -290 419 -323 b 319 -370 332 -341 319 -352 b 363 -405 319 -388 333 -405 b 494 -356 408 -405 460 -387 b 563 -191 539 -319 563 -265 l 563 -187 b 460 -73 563 -119 524 -73 b 362 -156 400 -73 362 -108 l 362 -158 b 447 -241 362 -206 400 -233 "},"Í":{"x_min":123.859375,"x_max":453.25,"ha":467,"o":"m 123 98 b 228 -8 123 38 170 -8 b 333 98 287 -8 333 38 l 333 873 b 228 980 333 933 287 980 b 123 873 170 980 123 933 l 123 98 m 223 1040 b 341 1086 269 1040 302 1048 l 426 1166 b 453 1216 442 1181 453 1197 b 337 1280 453 1248 387 1280 b 259 1233 303 1280 277 1262 l 185 1113 b 171 1076 178 1102 171 1088 b 223 1040 171 1054 193 1040 "},"´":{"x_min":225.9375,"x_max":507.6875,"ha":694,"o":"m 277 818 b 396 863 323 818 356 826 l 480 944 b 507 994 496 959 507 975 b 392 1058 507 1026 442 1058 b 314 1011 357 1058 332 1040 l 239 891 b 225 854 232 880 225 866 b 277 818 225 831 247 818 "},"Ú":{"x_min":99.359375,"x_max":929.640625,"ha":1050,"o":"m 511 -15 b 929 423 767 -15 929 129 l 929 873 b 824 980 929 933 883 980 b 720 873 766 980 720 933 l 720 415 b 514 181 720 261 642 181 b 308 422 386 181 308 263 l 308 873 b 204 980 308 933 262 980 b 99 873 145 980 99 933 l 99 416 b 511 -15 99 130 255 -15 m 509 1040 b 627 1086 555 1040 588 1048 l 711 1166 b 739 1216 728 1181 739 1197 b 623 1280 739 1248 673 1280 b 545 1233 589 1280 563 1262 l 470 1113 b 457 1076 464 1102 457 1088 b 509 1040 457 1054 479 1040 "}," ":{"x_min":0,"x_max":0,"ha":185},"Ŷ":{"x_min":29.9375,"x_max":907.859375,"ha":956,"o":"m 363 98 b 468 -8 363 38 409 -8 b 573 98 526 -8 573 38 l 573 378 l 880 802 b 907 877 894 821 907 848 b 805 981 907 935 869 981 b 705 917 762 981 730 956 l 469 574 l 238 914 b 134 980 212 953 182 980 b 29 877 76 980 29 934 b 55 800 29 846 40 821 l 363 374 l 363 98 m 466 1139 l 530 1085 b 656 1039 575 1048 609 1039 b 703 1073 681 1039 703 1050 b 683 1113 703 1085 692 1100 l 597 1225 b 500 1273 574 1255 548 1273 l 435 1273 b 338 1225 387 1273 362 1255 l 253 1113 b 232 1073 243 1100 232 1085 b 277 1039 232 1050 251 1039 b 402 1085 323 1039 357 1048 l 466 1139 "},"Ý":{"x_min":29.9375,"x_max":907.859375,"ha":956,"o":"m 363 98 b 468 -8 363 38 409 -8 b 573 98 526 -8 573 38 l 573 379 l 880 802 b 907 877 894 822 907 848 b 805 981 907 936 869 981 b 705 918 762 981 730 956 l 469 575 l 238 915 b 134 980 212 954 182 980 b 29 877 76 980 29 934 b 55 801 29 847 40 822 l 363 375 l 363 98 m 462 1040 b 581 1086 509 1040 541 1048 l 665 1166 b 692 1216 681 1181 692 1197 b 577 1280 692 1248 627 1280 b 499 1233 543 1280 517 1262 l 424 1113 b 411 1076 417 1102 411 1088 b 462 1040 411 1054 432 1040 "}," ":{"x_min":0,"x_max":0,"ha":1389},"ą":{"x_min":49.28125,"x_max":732.5625,"ha":822,"o":"m 482 -118 b 667 -231 482 -190 552 -231 b 732 -181 710 -231 732 -212 b 683 -131 732 -155 714 -140 b 631 -80 648 -122 631 -108 b 682 12 631 -54 644 -26 b 720 93 709 40 720 59 l 720 431 b 641 669 720 531 695 613 b 395 752 589 722 507 752 b 162 713 298 752 227 738 b 106 631 129 701 106 669 b 192 545 106 583 144 545 b 222 551 201 545 209 547 b 365 572 261 563 307 572 b 521 436 468 572 521 523 l 521 423 b 343 454 469 441 416 454 b 49 216 170 454 49 379 l 49 213 b 299 -13 49 66 162 -13 b 520 80 400 -13 469 23 l 520 79 b 548 16 520 55 529 33 b 482 -118 502 -33 482 -73 m 362 131 b 249 222 295 131 249 165 l 249 224 b 392 327 249 291 303 327 b 524 299 442 327 488 316 l 524 262 b 362 131 524 186 458 131 "},"Ö":{"x_min":72.140625,"x_max":1084.8125,"ha":1181,"o":"m 577 -16 b 1084 486 871 -16 1084 209 l 1084 488 b 579 988 1084 765 873 988 b 72 486 285 988 72 762 l 72 483 b 577 -16 72 206 283 -16 m 579 180 b 291 486 411 180 291 319 l 291 488 b 577 791 291 655 408 791 b 865 486 745 791 865 652 l 865 483 b 579 180 865 316 748 180 m 724 1259 b 616 1158 665 1259 616 1218 l 616 1155 b 724 1054 616 1095 665 1054 b 831 1155 782 1054 831 1095 l 831 1158 b 724 1259 831 1218 782 1259 m 432 1259 b 325 1158 374 1259 325 1218 l 325 1155 b 432 1054 325 1095 374 1054 b 540 1155 491 1054 540 1095 l 540 1158 b 432 1259 540 1218 491 1259 "},"z":{"x_min":60.15625,"x_max":710.84375,"ha":782,"o":"m 160 0 l 626 0 b 710 84 672 0 710 37 b 626 170 710 131 672 170 l 324 170 l 664 552 b 710 655 697 588 710 615 l 710 659 b 610 744 710 709 668 744 l 156 744 b 72 658 110 744 72 705 b 156 573 72 611 110 573 l 445 573 l 106 191 b 60 88 73 155 60 129 l 60 84 b 160 0 60 34 102 0 "},"™":{"x_min":27.21875,"x_max":888.8125,"ha":958,"o":"m 160 584 b 208 536 160 558 182 536 b 255 584 234 536 255 558 l 255 886 l 347 886 b 389 929 370 886 389 905 b 347 972 389 952 370 972 l 69 972 b 27 929 46 972 27 952 b 69 886 27 905 46 886 l 160 886 l 160 584 m 469 581 b 514 536 469 556 490 536 b 559 581 539 536 559 556 l 559 802 l 639 676 b 679 651 650 659 661 651 b 717 676 696 651 707 661 l 798 805 l 798 581 b 843 536 798 556 819 536 b 888 581 868 536 888 556 l 888 930 b 843 977 888 956 868 977 l 833 977 b 792 952 813 977 801 969 l 679 768 l 568 952 b 526 977 560 966 545 977 l 515 977 b 469 930 490 977 469 956 l 469 581 "},"Ř":{"x_min":114.421875,"x_max":909.3125,"ha":1004,"o":"m 114 98 b 219 -8 114 39 160 -8 b 324 98 277 -8 324 39 l 324 311 l 491 311 l 695 47 b 799 -8 720 15 751 -8 b 898 90 849 -8 898 30 b 864 172 898 123 884 145 l 718 352 b 909 648 834 401 909 495 l 909 651 b 827 873 909 743 880 819 b 549 972 765 937 671 972 l 219 972 b 114 865 160 972 114 925 l 114 98 m 324 500 l 324 779 l 532 779 b 696 640 634 779 696 732 l 696 637 b 536 500 696 555 638 500 l 324 500 m 513 1175 l 449 1229 b 324 1275 404 1266 370 1275 b 276 1241 298 1275 276 1264 b 296 1201 276 1229 287 1214 l 382 1089 b 479 1041 405 1059 431 1041 l 544 1041 b 641 1089 592 1041 618 1059 l 726 1201 b 747 1241 736 1214 747 1229 b 702 1275 747 1264 728 1275 b 577 1229 656 1275 622 1266 l 513 1175 "},"ã":{"x_min":49,"x_max":720.03125,"ha":822,"o":"m 299 -13 b 519 80 400 -13 469 23 l 519 79 b 619 -8 519 34 559 -8 b 720 93 675 -8 720 36 l 720 431 b 641 669 720 531 695 613 b 394 752 589 722 507 752 b 161 713 298 752 227 738 b 106 631 129 701 106 669 b 191 545 106 583 144 545 b 221 551 201 545 209 547 b 364 572 261 563 307 572 b 521 436 468 572 521 523 l 521 423 b 343 454 469 441 416 454 b 49 216 170 454 49 379 l 49 213 b 299 -13 49 66 161 -13 m 255 840 b 319 880 272 867 287 880 b 524 826 368 880 439 826 b 676 962 607 826 646 881 b 683 999 680 973 683 990 b 622 1056 683 1029 654 1056 b 568 1024 597 1056 579 1042 b 504 984 552 997 537 984 b 300 1038 455 984 385 1038 b 148 902 217 1038 178 983 b 141 865 144 891 141 874 b 202 808 141 836 170 808 b 255 840 227 808 245 822 m 362 131 b 249 222 295 131 249 165 l 249 224 b 392 327 249 291 303 327 b 524 299 442 327 488 316 l 524 262 b 362 131 524 186 458 131 "},"Ň":{"x_min":114.328125,"x_max":960.953125,"ha":1097,"o":"m 114 97 b 217 -8 114 39 160 -8 b 321 97 274 -8 321 39 l 321 618 l 740 57 b 849 -5 769 19 798 -5 l 856 -5 b 960 101 914 -5 960 41 l 960 875 b 857 980 960 933 914 980 b 754 875 800 980 754 933 l 754 373 l 349 915 b 240 977 321 952 291 977 l 219 977 b 114 870 160 977 114 930 l 114 97 m 539 1175 l 475 1229 b 349 1275 430 1266 396 1275 b 302 1241 323 1275 302 1264 b 322 1201 302 1229 313 1214 l 408 1089 b 504 1041 431 1059 457 1041 l 570 1041 b 666 1089 617 1041 643 1059 l 752 1201 b 773 1241 762 1214 773 1229 b 728 1275 773 1264 754 1275 b 602 1229 681 1275 647 1266 l 539 1175 "},"æ":{"x_min":49,"x_max":1229.078125,"ha":1321,"o":"m 720 430 b 877 588 736 526 792 588 b 1031 430 965 588 1019 524 l 720 430 m 362 133 b 249 221 299 133 249 167 l 249 224 b 392 327 249 291 303 327 b 522 301 441 327 487 316 b 548 204 526 266 536 234 b 362 133 487 156 423 133 m 1151 72 b 1178 135 1166 86 1178 107 b 1098 218 1178 182 1144 218 b 1048 202 1076 218 1063 213 b 901 152 1005 170 958 152 b 722 298 808 152 743 202 l 1132 298 b 1229 399 1186 298 1229 338 b 883 758 1229 554 1120 758 b 642 658 784 758 702 720 b 394 752 593 719 514 752 b 161 713 298 752 227 738 b 106 631 129 701 106 669 b 191 545 106 583 144 545 b 221 551 201 545 209 547 b 364 572 261 563 307 572 b 521 436 468 572 521 523 l 521 423 b 343 454 469 441 416 454 b 49 216 170 454 49 378 l 49 213 b 323 -14 49 68 166 -14 b 620 95 439 -14 537 32 b 898 -17 688 24 786 -17 b 1151 72 1004 -17 1087 17 "},"É":{"x_min":114.328125,"x_max":847.96875,"ha":931,"o":"m 219 0 l 754 0 b 847 94 805 0 847 41 b 754 190 847 147 805 190 l 322 190 l 322 394 l 686 394 b 779 488 737 394 779 436 b 686 584 779 541 737 584 l 322 584 l 322 781 l 747 781 b 841 876 798 781 841 823 b 747 972 841 929 798 972 l 219 972 b 114 865 160 972 114 925 l 114 106 b 219 0 114 47 160 0 m 470 1040 b 589 1086 517 1040 549 1048 l 673 1166 b 700 1216 690 1181 700 1197 b 585 1280 700 1248 635 1280 b 507 1233 551 1280 525 1262 l 432 1113 b 419 1076 426 1102 419 1088 b 470 1040 419 1054 441 1040 "},"ŀ":{"x_min":102.078125,"x_max":558.0625,"ha":544,"o":"m 558 531 b 472 619 558 580 522 619 b 386 531 421 619 386 580 l 386 519 b 472 431 386 470 421 431 b 558 519 522 431 558 470 l 558 531 m 102 97 b 205 -8 102 38 148 -8 b 308 97 262 -8 308 38 l 308 916 b 205 1022 308 975 262 1022 b 102 916 148 1022 102 975 l 102 97 "},"~":{"x_min":76.21875,"x_max":617.953125,"ha":708,"o":"m 190 338 b 254 379 206 366 221 379 b 458 325 303 379 374 325 b 611 461 541 325 581 380 b 617 498 615 472 617 488 b 556 555 617 527 589 555 b 503 523 532 555 514 541 b 439 483 487 495 472 483 b 235 537 390 483 319 537 b 83 401 152 537 112 481 b 76 363 78 390 76 373 b 137 306 76 334 104 306 b 190 338 161 306 179 320 "},"Ċ":{"x_min":72.140625,"x_max":935.078125,"ha":1025,"o":"m 560 -16 b 899 105 713 -16 813 29 b 935 181 918 122 935 148 b 837 280 935 236 890 280 b 774 256 812 280 790 270 b 567 180 714 208 656 180 b 291 486 404 180 291 319 l 291 488 b 567 791 291 655 406 791 b 762 722 642 791 703 766 b 824 701 777 712 796 701 b 928 805 882 701 928 747 b 887 890 928 843 909 873 b 568 988 808 950 711 988 b 72 486 276 988 72 762 l 72 483 b 560 -16 72 204 280 -16 m 661 1158 b 551 1259 661 1219 611 1259 b 441 1158 491 1259 441 1219 l 441 1155 b 551 1054 441 1094 491 1054 b 661 1155 611 1054 661 1094 l 661 1158 "},"¡":{"x_min":98.875,"x_max":342.125,"ha":450,"o":"m 283 590 b 220 651 279 627 254 651 b 157 590 186 651 161 627 l 99 68 b 153 -2 95 27 117 -2 l 287 -2 b 341 68 323 -2 345 27 l 283 590 m 338 861 l 338 863 b 220 981 338 930 288 981 b 102 863 152 981 102 930 l 102 861 b 220 743 102 794 152 743 b 338 861 288 743 338 794 "},"ẅ":{"x_min":39.46875,"x_max":1116.109375,"ha":1179,"o":"m 341 -13 l 348 -13 b 460 76 398 -13 441 15 l 577 451 l 692 76 b 804 -13 711 15 754 -13 l 811 -13 b 925 80 861 -13 903 15 l 1109 612 b 1116 655 1112 622 1116 641 b 1019 752 1116 708 1076 752 b 920 672 965 752 933 716 l 805 291 l 690 669 b 583 754 675 719 637 754 l 571 754 b 465 669 518 754 480 719 l 351 293 l 239 670 b 138 752 224 719 190 752 b 39 656 77 752 39 705 b 49 605 39 638 44 618 l 227 80 b 341 -13 249 15 291 -13 m 722 1023 b 615 922 664 1023 615 981 l 615 919 b 722 818 615 859 664 818 b 830 919 781 818 830 859 l 830 922 b 722 1023 830 981 781 1023 m 431 1023 b 323 922 372 1023 323 981 l 323 919 b 431 818 323 859 372 818 b 539 919 490 818 539 859 l 539 922 b 431 1023 539 981 490 1023 "},"[":{"x_min":112.96875,"x_max":560.78125,"ha":646,"o":"m 112 -77 b 213 -180 112 -134 157 -180 l 479 -180 b 560 -97 524 -180 560 -143 b 479 -15 560 -51 524 -15 l 311 -15 l 311 806 l 479 806 b 560 888 524 806 560 843 b 479 972 560 934 524 972 l 213 972 b 112 869 157 972 112 926 l 112 -77 "},"%":{"x_min":61.25,"x_max":1109.3125,"ha":1194,"o":"m 291 486 b 524 734 430 486 524 598 l 524 737 b 294 983 524 873 431 983 b 61 734 155 983 61 872 l 61 731 b 291 486 61 595 153 486 m 213 56 b 277 -8 213 20 242 -8 b 333 20 299 -8 321 2 l 941 870 b 956 915 951 883 956 897 b 892 980 956 951 928 980 b 837 951 871 980 849 969 l 228 101 b 213 56 220 88 213 75 m 876 -11 b 1109 237 1015 -11 1109 101 l 1109 240 b 879 486 1109 376 1016 486 b 646 237 740 486 646 375 l 646 234 b 876 -11 646 98 739 -11 m 294 612 b 204 734 239 612 204 669 l 204 737 b 291 856 204 801 234 856 b 381 734 345 856 381 800 l 381 731 b 294 612 381 669 351 612 m 879 115 b 789 237 824 115 789 172 l 789 240 b 876 359 789 304 819 359 b 966 237 931 359 966 302 l 966 234 b 879 115 966 172 936 115 "},"P":{"x_min":114.328125,"x_max":868.390625,"ha":928,"o":"m 114 98 b 219 -8 114 38 160 -8 b 323 98 277 -8 323 38 l 323 291 l 483 291 b 868 633 696 291 868 408 l 868 636 b 503 972 868 834 730 972 l 219 972 b 114 865 160 972 114 925 l 114 98 m 323 481 l 323 779 l 485 779 b 656 631 590 779 656 727 l 656 629 b 490 481 656 545 594 481 l 323 481 "},"_":{"x_min":-81.671875,"x_max":898.328125,"ha":833,"o":"m -2 -222 l 819 -222 b 898 -141 862 -222 898 -186 b 819 -61 898 -97 862 -61 l -2 -61 b -81 -141 -46 -61 -81 -97 b -2 -222 -81 -186 -46 -222 "},"Ŕ":{"x_min":114.421875,"x_max":909.3125,"ha":1004,"o":"m 114 98 b 219 -8 114 38 160 -8 b 324 98 277 -8 324 38 l 324 311 l 491 311 l 695 47 b 799 -8 720 15 751 -8 b 898 90 849 -8 898 30 b 864 172 898 123 884 145 l 718 352 b 909 648 834 401 909 495 l 909 651 b 827 873 909 743 880 819 b 549 972 765 937 671 972 l 219 972 b 114 865 160 972 114 925 l 114 98 m 324 500 l 324 779 l 532 779 b 696 640 634 779 696 731 l 696 637 b 536 500 696 555 638 500 l 324 500 m 506 1040 b 624 1086 552 1040 585 1048 l 709 1166 b 736 1216 725 1181 736 1197 b 620 1280 736 1248 671 1280 b 543 1233 586 1280 560 1262 l 468 1113 b 454 1076 461 1102 454 1088 b 506 1040 454 1054 476 1040 "},"ñ":{"x_min":92.5625,"x_max":760.859375,"ha":865,"o":"m 92 97 b 196 -7 92 39 138 -7 b 299 97 253 -7 299 39 l 299 415 b 428 567 299 515 349 567 b 553 415 507 567 553 515 l 553 97 b 657 -7 553 39 600 -7 b 760 97 714 -7 760 39 l 760 482 b 513 758 760 653 669 758 b 299 639 408 758 347 701 l 299 647 b 196 753 299 706 253 753 b 92 647 138 753 92 706 l 92 97 m 276 840 b 340 881 292 868 307 881 b 544 826 389 881 460 826 b 696 962 627 826 666 882 b 703 1000 700 974 703 990 b 642 1057 703 1029 675 1057 b 589 1025 617 1057 600 1043 b 525 985 573 997 558 985 b 321 1039 476 985 405 1039 b 168 903 238 1039 198 983 b 161 865 164 892 161 875 b 223 808 161 836 190 808 b 276 840 247 808 265 822 "},"‚":{"x_min":25.859375,"x_max":310.328125,"ha":397,"o":"m 25 -177 b 77 -225 25 -202 40 -225 b 230 -158 127 -225 189 -200 b 310 69 280 -106 310 -31 l 310 75 b 189 230 310 170 265 230 b 76 116 121 230 76 181 l 76 113 b 171 0 76 54 123 12 b 66 -131 174 -66 136 -115 b 25 -177 43 -137 25 -152 "},"Æ":{"x_min":44.921875,"x_max":1358.390625,"ha":1451,"o":"m 44 77 b 137 -8 44 27 85 -8 b 228 50 178 -8 206 11 l 321 218 l 658 218 l 658 106 b 763 0 658 47 705 0 l 1264 0 b 1358 94 1316 0 1358 41 b 1264 190 1358 147 1316 190 l 867 190 l 867 394 l 1196 394 b 1290 488 1248 394 1290 436 b 1196 584 1290 541 1248 584 l 867 584 l 867 781 l 1257 781 b 1351 876 1309 781 1351 823 b 1257 972 1351 929 1309 972 l 612 972 b 487 897 551 972 513 943 l 61 138 b 44 77 53 123 44 98 m 426 406 l 635 787 l 658 787 l 658 406 l 426 406 "},"ğ":{"x_min":59.890625,"x_max":826.203125,"ha":938,"o":"m 419 -225 b 733 -125 560 -225 665 -194 b 826 167 794 -62 826 34 l 826 646 b 722 752 826 705 779 752 b 619 648 665 752 619 705 l 619 646 b 383 758 563 709 496 758 b 59 410 216 758 59 633 l 59 408 b 383 61 59 187 213 61 b 622 181 494 61 560 106 l 622 145 b 413 -57 622 12 555 -57 b 212 -12 336 -57 272 -40 b 178 -5 202 -8 191 -5 b 93 -91 132 -5 93 -44 b 152 -173 93 -130 117 -159 b 419 -225 238 -208 322 -225 m 443 235 b 266 408 343 235 266 305 l 266 410 b 443 583 266 512 343 583 b 622 410 544 583 622 512 l 622 408 b 443 235 622 306 544 235 m 442 823 b 669 941 548 823 628 867 b 679 980 676 953 679 966 b 608 1052 679 1020 647 1052 b 547 1016 575 1052 558 1034 b 442 960 526 983 496 960 b 337 1016 387 960 357 983 b 276 1052 326 1034 308 1052 b 205 980 236 1052 205 1020 b 215 941 205 966 208 953 b 442 823 255 867 336 823 "},"Ū":{"x_min":99.359375,"x_max":929.640625,"ha":1050,"o":"m 511 -15 b 929 423 767 -15 929 129 l 929 873 b 824 980 929 933 883 980 b 720 873 766 980 720 933 l 720 415 b 514 181 720 261 642 181 b 308 422 386 181 308 263 l 308 873 b 204 980 308 933 262 980 b 99 873 145 980 99 933 l 99 416 b 511 -15 99 130 255 -15 m 695 1055 b 767 1127 735 1055 767 1087 b 695 1201 767 1168 735 1201 l 333 1201 b 261 1127 294 1201 261 1168 b 333 1055 261 1087 294 1055 l 695 1055 "},"ª":{"x_min":58.53125,"x_max":453.25,"ha":542,"o":"m 208 554 b 329 607 264 554 302 575 l 329 605 b 383 555 329 576 355 555 b 439 611 413 555 439 580 l 439 799 b 396 930 439 853 426 899 b 259 976 367 959 322 976 b 134 955 206 976 170 969 b 104 910 117 948 104 931 b 151 863 104 884 125 863 b 174 867 157 863 166 864 b 243 877 193 873 213 877 b 330 802 300 877 330 849 l 330 795 b 232 812 302 805 272 812 b 70 682 137 812 70 770 l 70 679 b 208 554 70 598 132 554 m 103 384 l 408 384 b 453 430 432 384 453 405 b 408 476 453 455 432 476 l 103 476 b 58 430 78 476 58 455 b 103 384 58 405 78 384 m 242 634 b 181 684 205 634 181 654 l 181 687 b 258 743 181 723 210 743 b 332 727 287 743 311 736 l 332 706 b 242 634 332 665 295 634 "},"Œ":{"x_min":72.140625,"x_max":1399.21875,"ha":1493,"o":"m 578 0 l 1305 0 b 1399 94 1357 0 1399 41 b 1305 190 1399 147 1357 190 l 907 190 l 907 394 l 1237 394 b 1331 488 1288 394 1331 436 b 1237 584 1331 541 1288 584 l 907 584 l 907 781 l 1298 781 b 1392 876 1350 781 1392 823 b 1298 972 1392 929 1350 972 l 578 972 b 72 486 279 972 72 759 l 72 483 b 578 0 72 209 279 0 m 578 193 b 291 486 406 193 291 313 l 291 488 b 578 779 291 661 406 779 l 699 779 l 699 193 l 578 193 "},"ﬀ":{"x_min":34.03125,"x_max":1029,"ha":1061,"o":"m 127 97 b 231 -8 127 38 174 -8 b 334 97 288 -8 334 38 l 334 563 l 421 563 b 507 650 469 563 507 601 b 421 736 507 698 469 736 l 332 736 l 332 765 b 406 845 332 820 359 845 l 424 845 b 509 933 470 845 509 886 b 438 1018 509 980 473 1012 b 353 1023 415 1022 386 1023 b 186 965 280 1023 224 1004 b 127 784 148 926 127 866 l 127 737 l 119 737 b 34 650 72 737 34 698 b 119 563 34 601 72 563 l 127 563 l 127 97 m 647 97 b 751 -8 647 38 694 -8 b 854 97 808 -8 854 38 l 854 563 l 941 563 b 1027 650 989 563 1027 601 b 941 736 1027 698 989 736 l 852 736 l 852 765 b 926 845 852 820 879 845 l 944 845 b 1029 933 990 845 1029 886 b 958 1018 1029 980 993 1012 b 873 1023 935 1022 906 1023 b 706 965 800 1023 744 1004 b 647 784 668 926 647 866 l 647 737 l 639 737 b 553 650 592 737 553 698 b 639 563 553 601 592 563 l 647 563 l 647 97 "},"Ą":{"x_min":65.109375,"x_max":1027.671875,"ha":1097,"o":"m 65 91 b 161 -8 65 36 107 -8 b 258 58 205 -8 240 16 l 325 218 l 743 218 l 830 11 b 776 -111 797 -29 776 -68 b 962 -231 776 -190 848 -231 b 1027 -181 1005 -231 1027 -212 b 978 -131 1027 -155 1009 -140 b 924 -77 943 -122 924 -108 b 970 12 924 -52 936 -25 b 1007 94 995 40 1007 61 b 996 137 1007 108 1003 122 l 664 902 b 543 987 641 955 600 987 l 531 987 b 409 902 474 987 432 955 l 77 137 b 65 91 70 122 65 106 m 402 406 l 534 727 l 666 406 l 402 406 "},"T":{"x_min":38.109375,"x_max":843.890625,"ha":900,"o":"m 336 98 b 441 -8 336 38 382 -8 b 545 98 499 -8 545 38 l 545 775 l 747 775 b 843 873 800 775 843 819 b 747 972 843 927 800 972 l 134 972 b 38 873 81 972 38 927 b 134 775 38 819 81 775 l 336 775 l 336 98 "},"š":{"x_min":34.03125,"x_max":627.46875,"ha":697,"o":"m 348 -14 b 627 225 506 -14 627 60 l 627 228 b 406 449 627 364 509 414 b 258 538 328 477 258 496 l 258 541 b 334 592 258 570 284 592 b 492 545 378 592 434 574 b 530 535 506 538 515 535 b 613 618 577 535 613 571 b 564 697 613 654 594 682 b 338 754 494 734 415 754 b 72 518 191 754 72 670 l 72 516 b 289 292 72 371 187 322 b 441 206 370 267 441 252 l 441 203 b 353 147 441 170 413 147 b 156 214 295 147 225 170 b 115 225 145 221 130 225 b 34 142 69 225 34 189 b 73 70 34 109 51 84 b 348 -14 161 11 258 -14 m 347 952 l 283 1006 b 157 1052 238 1043 204 1052 b 110 1018 132 1052 110 1041 b 130 978 110 1006 121 991 l 216 866 b 313 818 239 836 265 818 l 378 818 b 475 866 426 818 451 836 l 560 978 b 581 1018 570 991 581 1006 b 536 1052 581 1041 562 1052 b 411 1006 490 1052 455 1043 l 347 952 "},"Þ":{"x_min":114.328125,"x_max":868.390625,"ha":935,"o":"m 114 98 b 219 -8 114 38 160 -8 b 323 98 277 -8 323 38 l 323 150 l 483 150 b 868 491 696 150 868 266 l 868 494 b 503 830 868 693 730 830 l 323 830 l 323 873 b 219 980 323 933 277 980 b 114 873 160 980 114 933 l 114 98 m 323 340 l 323 637 l 485 637 b 656 490 590 637 656 586 l 656 487 b 490 340 656 404 594 340 l 323 340 "},"j":{"x_min":-29.9375,"x_max":321.21875,"ha":419,"o":"m 89 919 b 205 819 89 858 140 819 b 321 919 270 819 321 858 l 321 922 b 205 1020 321 983 270 1020 b 89 922 140 1020 89 983 l 89 919 m 88 -226 b 308 12 224 -226 308 -151 l 308 647 b 205 752 308 705 262 752 b 102 647 148 752 102 705 l 102 13 b 51 -55 102 -36 81 -55 l 50 -55 b -29 -140 6 -55 -29 -88 b 85 -226 -29 -198 19 -226 l 88 -226 "},"1":{"x_min":40.828125,"x_max":449.171875,"ha":586,"o":"m 242 97 b 345 -8 242 38 288 -8 b 449 97 402 -8 449 38 l 449 880 b 345 986 449 938 402 986 l 343 986 b 245 968 314 986 284 979 l 110 927 b 40 836 68 915 40 879 b 132 744 40 786 83 744 b 168 750 142 744 157 747 l 242 769 l 242 97 "},"›":{"x_min":90.796875,"x_max":439.25,"ha":518,"o":"m 175 686 b 90 598 127 686 90 647 b 111 543 90 577 97 561 l 247 369 l 115 201 b 92 144 103 186 92 165 b 173 56 92 97 127 56 b 251 98 205 56 233 75 l 416 313 b 439 370 429 331 439 348 b 416 427 439 393 429 409 l 245 650 b 175 686 231 669 206 686 "},"<":{"x_min":83.96875,"x_max":759.078125,"ha":889,"o":"m 669 129 b 759 215 719 127 759 163 b 701 302 759 254 737 286 l 290 490 l 701 677 b 759 762 737 694 759 722 b 676 850 759 812 719 851 b 625 836 657 850 642 844 l 167 613 b 83 495 115 588 83 550 l 83 481 b 167 363 83 427 115 388 l 625 141 b 669 129 639 134 654 129 "},"t":{"x_min":31.3125,"x_max":513.140625,"ha":576,"o":"m 338 -12 b 457 8 383 -12 419 -6 b 510 87 485 19 510 50 b 424 175 510 136 470 175 b 400 173 420 175 406 173 b 333 245 353 173 333 197 l 333 563 l 424 563 b 513 654 473 563 513 604 b 424 744 513 704 473 744 l 333 744 l 333 837 b 230 943 333 895 287 943 b 126 837 172 943 126 895 l 126 744 l 119 744 b 31 654 70 744 31 704 b 119 563 31 604 70 563 l 126 563 l 126 211 b 338 -12 126 38 212 -12 "},"ù":{"x_min":87.109375,"x_max":755.421875,"ha":865,"o":"m 755 647 b 651 752 755 705 709 752 b 548 647 594 752 548 705 l 548 329 b 419 177 548 229 498 177 b 294 329 340 177 294 229 l 294 647 b 190 752 294 705 247 752 b 87 647 133 752 87 705 l 87 262 b 334 -13 87 91 178 -13 b 548 105 439 -13 500 43 l 548 97 b 651 -8 548 38 594 -8 b 755 97 709 -8 755 38 l 755 647 m 426 818 b 477 854 455 818 477 832 b 464 891 477 866 470 880 l 389 1011 b 311 1058 371 1040 345 1058 b 196 994 261 1058 196 1026 b 223 944 196 975 206 959 l 307 863 b 426 818 347 826 379 818 "},"ï":{"x_min":-47.640625,"x_max":458.6875,"ha":419,"o":"m 102 97 b 205 -8 102 38 148 -8 b 308 97 262 -8 308 38 l 308 647 b 205 752 308 705 262 752 b 102 647 148 752 102 705 l 102 97 m 351 1023 b 243 922 292 1023 243 981 l 243 919 b 351 818 243 859 292 818 b 458 919 409 818 458 859 l 458 922 b 351 1023 458 981 409 1023 m 59 1023 b -47 922 1 1023 -47 981 l -47 919 b 59 818 -47 859 1 818 b 167 919 118 818 167 859 l 167 922 b 59 1023 167 981 118 1023 "},"ī":{"x_min":-47.640625,"x_max":458.6875,"ha":419,"o":"m 102 97 b 205 -8 102 38 148 -8 b 308 97 262 -8 308 38 l 308 647 b 205 752 308 705 262 752 b 102 647 148 752 102 705 l 102 97 m 386 833 b 458 905 426 833 458 865 b 386 979 458 945 426 979 l 24 979 b -47 905 -14 979 -47 945 b 24 833 -47 865 -14 833 l 386 833 "},"Ò":{"x_min":72.140625,"x_max":1084.8125,"ha":1181,"o":"m 577 -16 b 1084 486 871 -16 1084 209 l 1084 488 b 579 988 1084 765 873 988 b 72 486 285 988 72 762 l 72 483 b 577 -16 72 206 283 -16 m 579 180 b 291 486 411 180 291 319 l 291 488 b 577 791 291 655 408 791 b 865 486 745 791 865 652 l 865 483 b 579 180 865 316 748 180 m 583 1054 b 635 1090 613 1054 635 1068 b 622 1127 635 1102 628 1116 l 547 1247 b 469 1294 529 1276 503 1294 b 353 1230 419 1294 353 1262 b 381 1180 353 1211 364 1195 l 465 1100 b 583 1054 504 1062 537 1054 "},"Ď":{"x_min":114.328125,"x_max":992.25,"ha":1086,"o":"m 114 107 b 219 0 114 47 160 0 l 485 0 b 992 486 785 0 992 212 l 992 489 b 485 972 992 762 785 972 l 219 972 b 114 865 160 972 114 925 l 114 107 m 323 193 l 323 779 l 485 779 b 773 486 657 779 773 658 l 773 483 b 485 193 773 311 657 193 l 323 193 m 515 1175 l 451 1229 b 326 1275 406 1266 372 1275 b 279 1241 300 1275 279 1264 b 299 1201 279 1229 289 1214 l 385 1089 b 481 1041 408 1059 434 1041 l 547 1041 b 643 1089 594 1041 620 1059 l 729 1201 b 749 1241 739 1214 749 1229 b 705 1275 749 1264 730 1275 b 579 1229 658 1275 624 1266 l 515 1175 "},"&":{"x_min":45.609375,"x_max":889.5,"ha":967,"o":"m 798 -14 b 889 79 850 -14 889 26 b 858 148 889 108 877 129 l 771 236 b 862 381 803 283 835 333 b 874 426 870 395 874 411 b 787 515 874 474 835 515 b 709 466 746 515 719 486 b 647 361 689 429 669 394 l 522 487 b 720 741 639 534 720 611 l 720 744 b 452 988 720 880 614 988 b 164 733 268 988 164 866 l 164 730 b 230 536 164 663 183 602 b 45 269 110 480 45 392 l 45 266 b 365 -14 45 94 183 -14 b 648 98 478 -14 571 30 l 728 16 b 798 -14 750 -5 769 -14 m 411 599 b 355 720 372 645 355 677 l 355 723 b 448 822 355 781 392 822 b 538 731 501 822 538 787 l 538 729 b 411 599 538 666 494 631 m 389 161 b 256 274 312 161 256 206 l 256 277 b 346 406 256 326 282 372 l 528 219 b 389 161 485 183 438 161 "},"˝":{"x_min":74.859375,"x_max":617.953125,"ha":694,"o":"m 390 818 b 506 863 436 818 466 826 l 590 944 b 617 994 607 959 617 975 b 503 1058 617 1026 553 1058 b 430 1011 469 1058 447 1040 l 355 891 b 341 854 348 880 341 866 b 390 818 341 831 360 818 m 123 818 b 239 863 170 818 200 826 l 323 944 b 351 994 340 959 351 975 b 236 1058 351 1026 287 1058 b 163 1011 202 1058 181 1040 l 88 891 b 74 854 81 880 74 866 b 123 818 74 831 93 818 "},"I":{"x_min":123.859375,"x_max":333.46875,"ha":467,"o":"m 123 98 b 228 -8 123 38 170 -8 b 333 98 287 -8 333 38 l 333 873 b 228 980 333 933 287 980 b 123 873 170 980 123 933 l 123 98 "},"ə":{"x_min":65.109375,"x_max":776.96875,"ha":851,"o":"m 574 313 b 416 155 557 218 502 155 b 262 313 329 155 274 219 l 574 313 m 142 670 b 115 608 127 656 115 636 b 195 525 115 561 149 525 b 246 541 217 525 231 530 b 393 591 288 573 335 591 b 571 445 485 591 551 541 l 161 445 b 65 344 107 445 65 405 b 416 -13 65 190 172 -13 b 776 373 628 -13 776 161 l 776 376 b 395 761 776 604 615 761 b 142 670 289 761 206 726 "},"G":{"x_min":72.140625,"x_max":980,"ha":1089,"o":"m 573 -16 b 906 80 715 -16 828 31 b 980 216 956 111 980 154 l 980 452 b 875 559 980 512 933 559 l 635 559 b 544 466 585 559 544 518 b 635 375 544 415 585 375 l 777 375 l 777 236 b 579 177 724 197 656 177 b 291 486 411 177 291 308 l 291 488 b 564 791 291 654 412 791 b 773 725 654 791 715 766 b 837 702 788 713 807 702 b 940 808 894 702 940 750 b 896 894 940 850 917 879 b 571 988 811 955 715 988 b 72 486 283 988 72 762 l 72 483 b 573 -16 72 195 276 -16 "},"`":{"x_min":172.859375,"x_max":454.609375,"ha":694,"o":"m 402 818 b 454 854 432 818 454 831 b 441 891 454 866 447 880 l 366 1011 b 288 1058 348 1040 322 1058 b 172 994 238 1058 172 1026 b 200 944 172 975 183 959 l 284 863 b 402 818 323 826 356 818 "},"·":{"x_min":76.21875,"x_max":313.0625,"ha":397,"o":"m 76 431 l 76 429 b 194 311 76 362 129 311 b 313 429 259 311 313 362 l 313 431 b 194 550 313 498 259 550 b 76 431 129 550 76 498 "},"ŏ":{"x_min":57.171875,"x_max":846.609375,"ha":922,"o":"m 450 -16 b 846 370 677 -16 846 156 l 846 373 b 453 758 846 587 679 758 b 57 370 225 758 57 584 l 57 368 b 450 -16 57 154 224 -16 m 453 165 b 261 370 338 165 261 261 l 261 373 b 450 576 261 483 332 576 b 642 370 564 576 642 480 l 642 368 b 453 165 642 258 571 165 m 451 823 b 679 941 558 823 638 868 b 688 980 686 954 688 966 b 617 1052 688 1020 657 1052 b 556 1016 585 1052 567 1034 b 451 961 536 983 506 961 b 347 1016 397 961 367 983 b 285 1052 336 1034 318 1052 b 215 980 246 1052 215 1020 b 224 941 215 966 217 954 b 451 823 265 868 345 823 "},"¿":{"x_min":50.953125,"x_max":698.84375,"ha":756,"o":"m 396 651 b 323 583 357 651 328 619 l 319 558 b 50 279 170 527 50 455 l 50 276 b 380 -11 50 91 184 -11 b 663 88 500 -11 591 27 b 698 163 687 109 698 137 b 603 261 698 216 655 261 b 542 238 580 261 558 251 b 384 183 493 201 442 183 b 259 281 305 183 259 219 l 259 284 b 432 405 259 352 313 390 b 494 488 475 411 501 443 l 481 583 b 407 651 475 620 447 651 l 396 651 m 525 861 l 525 863 b 407 981 525 930 475 981 b 289 863 339 981 289 930 l 289 861 b 407 743 289 794 339 743 b 525 861 475 743 525 794 "},"ý":{"x_min":44.953125,"x_max":754.09375,"ha":814,"o":"m 243 -226 b 490 -18 367 -226 428 -169 l 744 605 b 754 655 748 615 754 638 b 656 752 754 711 709 752 b 556 672 603 752 573 716 l 404 240 l 246 673 b 147 752 228 723 198 752 b 44 651 89 752 44 711 b 55 602 44 637 50 616 l 304 13 l 298 -2 b 224 -47 279 -40 261 -47 b 181 -38 209 -47 198 -44 b 147 -33 172 -36 163 -33 b 65 -119 104 -33 65 -68 b 130 -206 65 -170 100 -195 b 243 -226 164 -219 197 -226 m 393 818 b 511 863 439 818 472 826 l 596 944 b 623 994 612 959 623 975 b 507 1058 623 1026 558 1058 b 430 1011 473 1058 447 1040 l 355 891 b 341 854 348 880 341 866 b 393 818 341 831 363 818 "},"º":{"x_min":55.8125,"x_max":475.03125,"ha":542,"o":"m 264 552 b 475 765 383 552 475 647 l 475 768 b 266 979 475 886 386 979 b 55 766 147 979 55 884 l 55 763 b 264 552 55 645 144 552 m 106 384 l 424 384 b 469 430 449 384 469 405 b 424 476 469 455 449 476 l 106 476 b 61 430 81 476 61 455 b 106 384 61 405 81 384 m 266 652 b 167 765 206 652 167 705 l 167 768 b 264 879 167 827 204 879 b 363 766 323 879 363 826 l 363 763 b 266 652 363 704 326 652 "},"ź":{"x_min":60.15625,"x_max":710.84375,"ha":782,"o":"m 160 0 l 626 0 b 710 84 672 0 710 37 b 626 170 710 131 672 170 l 324 170 l 664 552 b 710 655 697 588 710 615 l 710 659 b 610 744 710 709 668 744 l 156 744 b 72 658 110 744 72 705 b 156 573 72 611 110 573 l 445 573 l 106 191 b 60 88 73 155 60 129 l 60 84 b 160 0 60 34 102 0 m 380 818 b 498 863 426 818 459 826 l 582 944 b 610 994 599 959 610 975 b 494 1058 610 1026 544 1058 b 416 1011 460 1058 434 1040 l 341 891 b 328 854 335 880 328 866 b 380 818 328 831 350 818 "},"ű":{"x_min":87.109375,"x_max":764.953125,"ha":865,"o":"m 755 647 b 651 752 755 705 709 752 b 548 647 594 752 548 705 l 548 329 b 419 177 548 229 498 177 b 294 329 340 177 294 229 l 294 647 b 190 752 294 705 247 752 b 87 647 133 752 87 705 l 87 262 b 334 -13 87 91 178 -13 b 548 105 439 -13 500 43 l 548 97 b 651 -8 548 38 594 -8 b 755 97 709 -8 755 38 l 755 647 m 537 818 b 653 863 583 818 613 826 l 737 944 b 764 994 754 959 764 975 b 650 1058 764 1026 700 1058 b 577 1011 616 1058 594 1040 l 502 891 b 488 854 495 880 488 866 b 537 818 488 832 507 818 m 270 818 b 386 863 317 818 347 826 l 470 944 b 498 994 487 959 498 975 b 383 1058 498 1026 434 1058 b 310 1011 349 1058 328 1040 l 235 891 b 221 854 228 880 221 866 b 270 818 221 832 240 818 "},"Ǽ":{"x_min":44.921875,"x_max":1358.390625,"ha":1451,"o":"m 44 77 b 137 -8 44 27 85 -8 b 228 50 178 -8 206 11 l 321 218 l 658 218 l 658 106 b 763 0 658 47 705 0 l 1264 0 b 1358 94 1316 0 1358 41 b 1264 190 1358 147 1316 190 l 867 190 l 867 394 l 1196 394 b 1290 488 1248 394 1290 436 b 1196 584 1290 541 1248 584 l 867 584 l 867 781 l 1257 781 b 1351 876 1309 781 1351 823 b 1257 972 1351 929 1309 972 l 612 972 b 487 897 551 972 513 943 l 61 138 b 44 77 53 123 44 98 m 426 406 l 635 787 l 658 787 l 658 406 l 426 406 m 833 1040 b 951 1086 879 1040 911 1048 l 1035 1166 b 1063 1216 1052 1181 1063 1197 b 947 1280 1063 1248 997 1280 b 869 1233 913 1280 887 1262 l 794 1113 b 781 1076 788 1102 781 1088 b 833 1040 781 1054 803 1040 "},"ń":{"x_min":92.5625,"x_max":760.859375,"ha":865,"o":"m 92 97 b 196 -7 92 39 138 -7 b 299 97 253 -7 299 39 l 299 415 b 428 567 299 515 349 567 b 553 415 507 567 553 515 l 553 97 b 657 -7 553 39 600 -7 b 760 97 714 -7 760 39 l 760 482 b 513 758 760 653 669 758 b 299 639 408 758 347 701 l 299 647 b 196 753 299 706 253 753 b 92 647 138 753 92 706 l 92 97 m 420 818 b 539 864 466 818 499 826 l 623 944 b 650 994 639 960 650 975 b 534 1058 650 1026 585 1058 b 457 1011 500 1058 475 1040 l 382 892 b 368 854 375 881 368 867 b 420 818 368 832 390 818 "},"Ș":{"x_min":55.8125,"x_max":803.0625,"ha":889,"o":"m 453 -13 b 803 287 658 -13 803 94 l 803 290 b 500 581 803 459 694 530 b 295 709 336 625 295 645 l 295 712 b 417 797 295 759 337 797 b 617 731 483 797 548 773 b 671 716 634 722 650 716 b 769 815 725 716 769 759 b 722 900 769 856 745 886 b 420 986 637 955 536 986 b 87 693 225 986 87 869 l 87 690 b 402 393 87 497 210 443 b 594 269 562 351 594 323 l 594 266 b 457 175 594 209 543 175 b 213 262 364 175 285 208 b 153 281 200 272 181 281 b 55 183 99 281 55 238 b 95 102 55 150 72 119 b 453 -13 201 25 328 -13 m 447 -248 b 353 -344 449 -297 419 -330 b 319 -377 332 -348 319 -359 b 363 -412 319 -395 333 -412 b 494 -363 408 -412 460 -394 b 563 -198 539 -326 563 -272 l 563 -194 b 460 -80 563 -126 524 -80 b 362 -163 400 -80 362 -115 l 362 -165 b 447 -248 362 -213 400 -240 "},";":{"x_min":32.671875,"x_max":319.859375,"ha":411,"o":"m 83 634 l 83 631 b 201 513 83 565 133 513 b 319 631 269 513 319 565 l 319 634 b 201 752 319 701 269 752 b 83 634 133 752 83 701 m 32 -177 b 84 -225 32 -202 47 -225 b 236 -158 134 -225 196 -200 b 317 69 287 -106 317 -31 l 317 75 b 196 230 317 170 272 230 b 83 116 127 230 83 181 l 83 113 b 178 0 83 54 130 12 b 73 -131 181 -66 142 -115 b 32 -177 50 -137 32 -152 "}," ":{"x_min":0,"x_max":0,"ha":347},"Ġ":{"x_min":72.140625,"x_max":980,"ha":1089,"o":"m 573 -16 b 906 80 715 -16 828 31 b 980 216 956 111 980 154 l 980 452 b 875 559 980 512 933 559 l 635 559 b 544 466 585 559 544 518 b 635 375 544 415 585 375 l 777 375 l 777 236 b 579 177 724 197 656 177 b 291 486 411 177 291 308 l 291 488 b 564 791 291 654 412 791 b 773 725 654 791 715 766 b 837 702 788 713 807 702 b 940 808 894 702 940 750 b 896 894 940 850 917 879 b 571 988 811 955 715 988 b 72 486 283 988 72 762 l 72 483 b 573 -16 72 195 276 -16 m 671 1158 b 560 1259 671 1219 620 1259 b 450 1158 500 1259 450 1219 l 450 1155 b 560 1054 450 1094 500 1054 b 671 1155 620 1054 671 1094 l 671 1158 "},"6":{"x_min":73.5,"x_max":824.828125,"ha":919,"o":"m 461 -16 b 824 319 668 -16 824 120 l 824 322 b 490 631 824 524 679 631 b 292 569 396 631 340 601 b 484 794 306 697 366 794 b 624 755 541 794 581 780 b 676 740 639 747 658 740 b 775 838 730 740 775 783 b 721 930 775 881 754 911 b 491 988 664 965 586 988 b 73 458 206 988 73 758 l 73 455 b 186 87 73 262 117 158 b 461 -16 253 19 337 -16 m 453 166 b 287 311 349 166 287 229 l 287 313 b 450 454 287 395 347 454 b 616 312 553 454 616 394 l 616 309 b 453 166 616 226 556 166 "},"n":{"x_min":92.5625,"x_max":760.859375,"ha":865,"o":"m 92 97 b 196 -7 92 39 138 -7 b 299 97 253 -7 299 39 l 299 415 b 428 567 299 515 349 567 b 553 415 507 567 553 515 l 553 97 b 657 -7 553 39 600 -7 b 760 97 714 -7 760 39 l 760 482 b 513 758 760 653 669 758 b 299 639 408 758 347 701 l 299 647 b 196 753 299 706 253 753 b 92 647 138 753 92 706 l 92 97 "},"ģ":{"x_min":59.890625,"x_max":826.203125,"ha":938,"o":"m 419 -225 b 733 -125 560 -225 665 -194 b 826 167 794 -62 826 34 l 826 646 b 722 752 826 705 779 752 b 619 648 665 752 619 705 l 619 646 b 383 758 563 709 496 758 b 59 410 216 758 59 633 l 59 408 b 383 61 59 187 213 61 b 622 181 494 61 560 106 l 622 145 b 413 -57 622 12 555 -57 b 212 -12 336 -57 272 -40 b 178 -5 202 -8 191 -5 b 93 -91 132 -5 93 -44 b 152 -173 93 -130 117 -159 b 419 -225 238 -208 322 -225 m 443 235 b 266 408 343 235 266 305 l 266 410 b 443 583 266 512 343 583 b 622 410 544 583 622 512 l 622 408 b 443 235 622 306 544 235 m 454 985 b 548 1081 453 1034 483 1067 b 582 1114 570 1085 582 1096 b 539 1149 582 1133 568 1149 b 408 1101 494 1149 442 1131 b 338 935 363 1063 338 1009 l 338 931 b 442 817 338 863 378 817 b 540 901 502 817 540 852 l 540 902 b 454 985 540 951 502 977 "},"℗":{"x_min":72.140625,"x_max":1057.578125,"ha":1153,"o":"m 563 -16 b 1057 486 839 -16 1057 212 l 1057 488 b 566 988 1057 762 842 988 b 72 486 289 988 72 759 l 72 483 b 563 -16 72 209 287 -16 m 563 38 b 129 483 315 38 129 237 l 129 486 b 566 933 129 731 317 933 b 1000 488 813 933 1000 734 l 1000 486 b 563 38 1000 240 812 38 m 383 279 b 442 219 383 245 409 219 b 500 279 475 219 500 245 l 500 388 l 588 388 b 800 575 705 388 800 452 l 800 577 b 598 762 800 687 724 762 l 442 762 b 383 702 409 762 383 736 l 383 279 m 500 493 l 500 656 l 588 656 b 681 576 645 656 681 627 l 681 573 b 590 493 681 527 647 493 l 500 493 "},"p":{"x_min":92.5625,"x_max":858.859375,"ha":938,"o":"m 92 -125 b 196 -230 92 -183 138 -230 b 299 -125 253 -230 299 -183 l 299 97 b 526 -14 348 37 416 -14 b 858 370 699 -14 858 122 l 858 373 b 526 758 858 622 696 758 b 299 637 419 758 349 706 l 299 647 b 196 752 299 705 253 752 b 92 647 138 752 92 705 l 92 -125 m 473 165 b 296 370 377 165 296 247 l 296 373 b 473 578 296 497 377 578 b 651 373 570 578 651 497 l 651 370 b 473 165 651 245 570 165 "},"‡":{"x_min":77.65625,"x_max":507.703125,"ha":597,"o":"m 235 58 b 292 -7 231 19 260 -7 b 349 58 325 -7 353 19 l 337 179 l 450 169 b 507 222 483 167 507 192 b 449 276 507 254 481 279 l 337 266 l 349 486 l 337 705 l 449 695 b 507 749 481 693 507 718 b 450 802 507 780 483 805 l 337 792 l 349 913 b 292 980 353 952 325 980 b 235 913 260 980 231 952 l 247 792 l 134 802 b 77 749 102 805 77 780 b 136 695 77 718 103 693 l 247 705 l 235 486 l 247 266 l 136 276 b 77 222 103 279 77 254 b 134 169 77 192 102 167 l 247 179 l 235 58 "},"ň":{"x_min":92.5625,"x_max":760.859375,"ha":865,"o":"m 92 97 b 196 -7 92 39 138 -7 b 299 97 253 -7 299 39 l 299 415 b 428 567 299 515 349 567 b 553 415 507 567 553 515 l 553 97 b 657 -7 553 39 600 -7 b 760 97 714 -7 760 39 l 760 482 b 513 758 760 652 669 758 b 299 639 408 758 347 701 l 299 647 b 196 752 299 705 253 752 b 92 647 138 752 92 705 l 92 97 m 427 952 l 363 1006 b 238 1052 318 1043 284 1052 b 190 1018 212 1052 190 1041 b 210 978 190 1006 201 991 l 296 866 b 393 819 319 837 345 819 l 458 819 b 555 866 506 819 532 837 l 641 978 b 661 1018 650 991 661 1006 b 616 1052 661 1041 642 1052 b 491 1006 570 1052 536 1043 l 427 952 "},"ę":{"x_min":56.703125,"x_max":768.5625,"ha":851,"o":"m 768 399 b 417 757 768 553 661 757 b 56 370 205 757 56 582 l 56 367 b 437 -17 56 139 218 -17 b 485 -14 454 -17 469 -15 b 441 -111 458 -47 441 -80 b 628 -232 441 -190 514 -232 b 693 -182 671 -232 693 -212 b 644 -132 693 -155 676 -140 b 590 -71 609 -122 590 -108 b 631 13 590 -44 599 -19 b 690 73 654 38 661 42 b 718 135 705 88 718 107 b 637 219 718 182 684 219 b 587 202 616 219 602 213 b 440 152 545 170 497 152 b 262 298 347 152 282 202 l 671 298 b 768 399 726 298 768 338 m 259 430 b 417 588 275 526 331 588 b 571 430 504 588 558 524 l 259 430 "},"S":{"x_min":55.8125,"x_max":803.0625,"ha":889,"o":"m 453 -13 b 803 287 658 -13 803 94 l 803 290 b 500 581 803 459 694 530 b 295 709 336 625 295 645 l 295 712 b 417 797 295 759 337 797 b 617 731 483 797 548 773 b 671 716 634 722 650 716 b 769 815 725 716 769 759 b 722 900 769 856 745 886 b 420 986 637 955 536 986 b 87 693 225 986 87 869 l 87 690 b 402 393 87 497 210 443 b 594 269 562 351 594 323 l 594 266 b 457 175 594 209 543 175 b 213 262 364 175 285 208 b 153 281 200 272 181 281 b 55 183 99 281 55 238 b 95 102 55 150 72 119 b 453 -13 201 25 328 -13 "},"/":{"x_min":4.078125,"x_max":698.25,"ha":736,"o":"m 4 -106 b 84 -186 4 -148 40 -186 b 156 -137 117 -186 141 -169 l 688 997 b 698 1037 692 1006 698 1022 b 617 1116 698 1079 661 1116 b 545 1068 585 1116 560 1100 l 13 -66 b 4 -106 9 -76 4 -91 "},"į":{"x_min":70.703125,"x_max":321.15625,"ha":419,"o":"m 308 647 b 205 752 308 705 262 752 b 102 647 148 752 102 705 l 102 97 b 138 16 102 65 115 36 b 70 -118 100 -20 70 -66 b 255 -231 70 -190 141 -231 b 321 -181 299 -231 321 -212 b 272 -131 321 -155 303 -140 b 220 -80 236 -122 220 -108 b 270 12 220 -54 232 -26 b 308 93 298 40 308 59 l 308 647 m 89 919 b 205 819 89 858 140 819 b 321 919 270 819 321 858 l 321 922 b 205 1020 321 983 270 1020 b 89 922 140 1020 89 983 l 89 919 "},"y":{"x_min":44.953125,"x_max":754.09375,"ha":814,"o":"m 243 -226 b 490 -18 367 -226 428 -169 l 744 605 b 754 655 748 615 754 638 b 656 752 754 711 709 752 b 556 672 603 752 573 716 l 404 240 l 246 673 b 147 752 228 723 198 752 b 44 651 89 752 44 711 b 55 602 44 637 50 616 l 304 13 l 298 -2 b 224 -47 279 -40 261 -47 b 181 -38 209 -47 198 -44 b 147 -33 172 -36 163 -33 b 65 -119 104 -33 65 -68 b 130 -206 65 -170 100 -195 b 243 -226 164 -219 197 -226 "},"ǿ":{"x_min":57.109375,"x_max":846.890625,"ha":922,"o":"m 450 -17 b 846 370 678 -17 846 156 l 846 373 b 770 603 846 460 818 540 l 797 633 b 827 698 814 649 827 669 b 763 759 827 731 797 759 b 701 728 737 759 718 747 l 669 697 b 453 758 608 734 535 758 b 57 370 225 758 57 584 l 57 367 b 133 135 57 280 84 199 l 106 107 b 76 42 89 91 76 71 b 140 -18 76 9 106 -18 b 202 12 166 -18 185 -6 l 234 43 b 450 -17 295 5 368 -17 m 446 817 b 565 863 492 817 525 826 l 649 944 b 676 994 665 959 676 974 b 560 1058 676 1026 611 1058 b 483 1010 526 1058 501 1040 l 408 891 b 394 853 401 880 394 866 b 446 817 394 831 416 817 m 453 159 b 362 181 419 159 388 167 l 630 459 b 648 370 641 431 648 401 l 648 367 b 453 159 648 255 575 159 m 255 370 l 255 373 b 450 581 255 485 328 581 b 541 558 484 581 514 573 l 273 281 b 255 370 261 307 255 338 "},"g":{"x_min":59.890625,"x_max":826.203125,"ha":938,"o":"m 419 -225 b 733 -125 560 -225 665 -194 b 826 167 794 -62 826 34 l 826 646 b 722 752 826 705 779 752 b 619 648 665 752 619 705 l 619 646 b 383 758 563 709 496 758 b 59 410 216 758 59 633 l 59 408 b 383 61 59 187 213 61 b 622 181 494 61 560 106 l 622 145 b 413 -57 622 12 555 -57 b 212 -12 336 -57 272 -40 b 178 -5 202 -8 191 -5 b 93 -91 132 -5 93 -44 b 152 -173 93 -130 117 -159 b 419 -225 238 -208 322 -225 m 443 235 b 266 408 343 235 266 305 l 266 410 b 443 583 266 512 343 583 b 622 410 544 583 622 512 l 622 408 b 443 235 622 306 544 235 "},"–":{"x_min":59.890625,"x_max":658.78125,"ha":733,"o":"m 156 331 l 562 331 b 658 430 615 331 658 376 b 562 529 658 484 615 529 l 156 529 b 59 430 103 529 59 484 b 156 331 59 376 103 331 "},"ë":{"x_min":56.890625,"x_max":768.75,"ha":851,"o":"m 259 430 b 417 588 276 526 331 588 b 571 430 504 588 559 525 l 259 430 m 691 73 b 718 136 706 87 718 108 b 638 219 718 183 684 219 b 587 202 616 219 602 213 b 440 152 545 170 497 152 b 262 298 348 152 282 202 l 672 298 b 768 400 726 298 768 338 b 417 758 768 554 661 758 b 56 370 205 758 56 583 l 56 368 b 438 -16 56 140 218 -16 b 691 73 544 -16 627 18 m 557 1023 b 450 922 499 1023 450 981 l 450 919 b 557 818 450 859 499 818 b 665 919 616 818 665 859 l 665 922 b 557 1023 665 981 616 1023 m 266 1023 b 158 922 207 1023 158 981 l 158 919 b 266 818 158 859 207 818 b 374 919 325 818 374 859 l 374 922 b 266 1023 374 981 325 1023 "},"ƒ":{"x_min":47.96875,"x_max":689.015625,"ha":744,"o":"m 151 -11 b 401 213 290 -11 373 50 l 446 477 l 555 477 b 641 563 603 477 641 515 b 555 651 641 612 603 651 l 476 651 l 486 709 b 588 804 497 775 528 804 l 603 804 b 689 891 650 804 689 843 b 611 979 689 940 652 975 b 546 981 591 980 569 981 b 288 756 382 981 314 898 l 269 651 l 226 651 b 140 563 178 651 140 612 b 226 477 140 515 178 477 l 239 477 l 201 247 b 126 163 192 193 170 169 b 47 76 79 158 47 120 b 151 -11 47 23 86 -11 "},"J":{"x_min":39.46875,"x_max":668.3125,"ha":783,"o":"m 330 -13 b 578 76 434 -13 519 16 b 668 336 635 134 668 220 l 668 873 b 563 980 668 933 622 980 b 458 873 504 980 458 933 l 458 345 b 328 184 458 233 409 184 b 201 233 280 184 243 201 b 138 255 181 248 164 255 b 39 152 83 255 39 209 b 78 70 39 119 57 87 b 330 -13 138 23 221 -13 "},"Ã":{"x_min":48.90625,"x_max":992.171875,"ha":1064,"o":"m 48 91 b 145 -8 48 36 91 -8 b 242 58 189 -8 224 16 l 308 218 l 728 218 l 792 65 b 892 -8 811 20 843 -8 b 992 94 948 -8 992 37 b 981 137 992 108 988 122 l 649 902 b 528 987 626 955 585 987 l 515 987 b 393 902 458 987 416 955 l 61 137 b 48 91 54 122 48 106 m 386 406 l 518 727 l 650 406 l 386 406 m 370 1076 b 434 1116 386 1104 401 1116 b 638 1062 483 1116 553 1062 b 790 1198 721 1062 760 1118 b 797 1236 794 1209 797 1226 b 736 1293 797 1265 768 1293 b 683 1261 711 1293 694 1279 b 619 1220 666 1233 651 1220 b 415 1275 570 1220 499 1275 b 262 1138 332 1275 292 1219 b 255 1101 258 1127 255 1111 b 317 1044 255 1072 284 1044 b 370 1076 341 1044 359 1058 "},"ŷ":{"x_min":44.953125,"x_max":754.09375,"ha":814,"o":"m 243 -226 b 490 -18 367 -226 428 -169 l 744 605 b 754 655 748 615 754 638 b 656 752 754 710 709 752 b 556 672 603 752 573 716 l 404 240 l 246 673 b 147 752 228 723 198 752 b 44 651 89 752 44 710 b 55 602 44 637 50 616 l 304 13 l 298 -2 b 224 -47 279 -40 261 -47 b 181 -39 209 -47 198 -44 b 147 -33 172 -36 163 -33 b 65 -119 104 -33 65 -68 b 130 -207 65 -171 100 -196 b 243 -226 164 -219 197 -226 m 397 917 l 461 863 b 586 817 506 826 540 817 b 634 851 612 817 634 828 b 613 891 634 863 623 878 l 528 1003 b 431 1051 505 1033 479 1051 l 366 1051 b 269 1003 318 1051 292 1033 l 183 891 b 163 851 174 878 163 863 b 208 817 163 828 182 817 b 333 863 254 817 288 826 l 397 917 "},"ŕ":{"x_min":92.5625,"x_max":540.359375,"ha":581,"o":"m 92 97 b 196 -8 92 38 138 -8 b 299 97 253 -8 299 38 l 299 294 b 462 551 299 444 357 526 b 540 650 504 561 540 594 b 439 752 540 709 503 752 b 299 613 378 752 329 686 l 299 647 b 196 752 299 705 253 752 b 92 647 138 752 92 705 l 92 97 m 306 818 b 424 863 352 818 385 826 l 509 944 b 536 994 525 959 536 975 b 420 1058 536 1026 470 1058 b 343 1011 386 1058 360 1040 l 268 891 b 254 854 261 880 254 866 b 306 818 254 831 276 818 "},"©":{"x_min":72.140625,"x_max":1057.578125,"ha":1153,"o":"m 563 -16 b 1057 486 839 -16 1057 212 l 1057 488 b 566 988 1057 762 842 988 b 72 486 289 988 72 759 l 72 483 b 563 -16 72 209 287 -16 m 563 38 b 129 483 315 38 129 237 l 129 486 b 566 933 129 731 317 933 b 1000 488 813 933 1000 734 l 1000 486 b 563 38 1000 240 812 38 m 570 216 b 763 290 658 216 713 244 b 781 330 773 298 781 312 b 725 387 781 361 755 387 b 690 373 709 387 698 380 b 574 327 656 344 622 327 b 424 491 485 327 424 402 l 424 494 b 574 658 424 584 487 658 b 681 619 615 658 653 641 b 720 604 694 609 707 604 b 777 663 751 604 777 630 b 751 713 777 686 766 702 b 574 769 707 747 657 769 b 302 493 413 769 302 644 l 302 490 b 570 216 302 337 416 216 "},"˘":{"x_min":103.4375,"x_max":577.109375,"ha":694,"o":"m 340 823 b 567 941 446 823 526 868 b 577 980 574 954 577 966 b 506 1052 577 1020 545 1052 b 445 1016 473 1052 455 1034 b 340 961 424 983 394 961 b 235 1016 285 961 255 983 b 174 1052 224 1034 206 1052 b 103 980 134 1052 103 1020 b 112 941 103 966 106 954 b 340 823 153 868 234 823 "},"Ă":{"x_min":48.90625,"x_max":992.171875,"ha":1064,"o":"m 48 91 b 145 -8 48 36 91 -8 b 242 58 189 -8 224 16 l 308 218 l 728 218 l 792 65 b 892 -8 811 20 843 -8 b 992 94 948 -8 992 37 b 981 137 992 108 988 122 l 649 902 b 528 987 626 955 585 987 l 515 987 b 393 902 458 987 416 955 l 61 137 b 48 91 54 122 48 106 m 386 406 l 518 727 l 650 406 l 386 406 m 519 1059 b 747 1177 626 1059 706 1104 b 756 1216 753 1190 756 1202 b 685 1288 756 1256 725 1288 b 624 1252 653 1288 635 1270 b 519 1197 604 1219 574 1197 b 415 1252 465 1197 435 1219 b 353 1288 404 1270 386 1288 b 283 1216 314 1288 283 1256 b 292 1177 283 1202 285 1190 b 519 1059 333 1104 413 1059 "},"D":{"x_min":114.328125,"x_max":992.25,"ha":1086,"o":"m 114 106 b 219 0 114 47 160 0 l 485 0 b 992 486 785 0 992 212 l 992 488 b 485 972 992 762 785 972 l 219 972 b 114 865 160 972 114 925 l 114 106 m 323 193 l 323 779 l 485 779 b 773 486 657 779 773 658 l 773 483 b 485 193 773 311 657 193 l 323 193 "},"ÿ":{"x_min":45.234375,"x_max":754.375,"ha":814,"o":"m 243 -226 b 490 -18 367 -226 429 -169 l 744 605 b 754 655 748 615 754 638 b 656 752 754 711 709 752 b 557 672 603 752 573 716 l 404 240 l 246 673 b 147 752 228 723 199 752 b 45 651 90 752 45 711 b 56 602 45 637 50 616 l 305 13 l 298 -2 b 224 -47 279 -40 261 -47 b 181 -38 209 -47 199 -44 b 147 -33 173 -36 163 -33 b 65 -119 105 -33 65 -68 b 130 -206 65 -170 101 -195 b 243 -226 165 -219 197 -226 m 544 1023 b 437 922 486 1023 437 981 l 437 919 b 544 818 437 859 486 818 b 652 919 603 818 652 859 l 652 922 b 544 1023 652 981 603 1023 m 253 1023 b 145 922 194 1023 145 981 l 145 919 b 253 818 145 859 194 818 b 361 919 312 818 361 859 l 361 922 b 253 1023 361 981 312 1023 "},"ĺ":{"x_min":102.078125,"x_max":430.109375,"ha":419,"o":"m 102 97 b 205 -8 102 38 148 -8 b 308 97 262 -8 308 38 l 308 916 b 205 1022 308 975 262 1022 b 102 916 148 1022 102 975 l 102 97 m 200 1061 b 318 1106 246 1061 279 1069 l 402 1187 b 430 1237 419 1202 430 1218 b 314 1301 430 1269 364 1301 b 236 1254 280 1301 254 1283 l 161 1134 b 148 1097 155 1123 148 1109 b 200 1061 148 1075 170 1061 "},"ł":{"x_min":28.578125,"x_max":464.140625,"ha":503,"o":"m 397 465 b 464 555 435 476 464 509 b 371 651 464 608 423 651 b 348 648 367 651 357 651 l 348 916 b 246 1022 348 975 303 1022 b 144 916 189 1022 144 975 l 144 586 l 95 572 b 28 481 57 561 28 527 b 121 386 28 429 69 386 b 144 387 125 386 134 386 l 144 97 b 246 -8 144 38 189 -8 b 348 97 303 -8 348 38 l 348 450 l 397 465 "},"Ł":{"x_min":44.921875,"x_max":847.96875,"ha":901,"o":"m 564 488 b 631 579 602 500 631 533 b 539 675 631 631 590 675 b 509 670 533 675 519 673 l 362 626 l 362 873 b 258 980 362 933 317 980 b 155 873 200 980 155 933 l 155 562 l 111 550 b 44 459 73 538 44 505 b 137 363 44 406 85 363 b 155 365 140 363 147 363 l 155 106 b 259 0 155 47 201 0 l 752 0 b 847 97 805 0 847 43 b 752 194 847 151 805 194 l 362 194 l 362 426 l 564 488 "},"$":{"x_min":66.6875,"x_max":811.21875,"ha":897,"o":"m 381 988 l 381 972 b 95 698 209 954 95 851 b 387 402 95 533 191 456 l 387 181 b 213 259 325 195 270 222 b 160 277 197 270 178 277 b 66 183 107 277 66 237 b 112 100 66 145 84 118 b 381 2 193 50 284 15 l 381 -72 b 451 -144 381 -112 412 -144 b 522 -72 491 -144 522 -112 l 522 1 b 811 276 694 20 811 120 b 515 575 811 431 722 518 l 515 786 b 628 738 552 776 590 759 b 676 726 643 730 660 726 b 769 819 728 726 769 766 b 720 902 769 861 745 887 b 522 969 661 936 596 958 l 522 988 b 451 1061 522 1029 491 1061 b 381 988 412 1061 381 1029 m 612 265 b 515 175 612 215 579 184 l 515 368 b 612 265 589 341 612 311 m 294 711 b 387 798 294 755 322 788 l 387 611 b 294 711 313 638 294 668 "},"w":{"x_min":39.46875,"x_max":1116.109375,"ha":1179,"o":"m 341 -13 l 348 -13 b 460 76 398 -13 441 15 l 577 451 l 692 76 b 804 -13 711 15 754 -13 l 811 -13 b 925 80 861 -13 903 15 l 1109 612 b 1116 655 1112 622 1116 641 b 1019 752 1116 708 1076 752 b 920 672 965 752 933 716 l 805 291 l 690 669 b 583 754 675 719 637 754 l 571 754 b 465 669 518 754 480 719 l 351 293 l 239 670 b 138 752 224 719 190 752 b 39 656 77 752 39 705 b 49 605 39 638 44 618 l 227 80 b 341 -13 249 15 291 -13 "},"\\":{"x_min":23.140625,"x_max":717.3125,"ha":736,"o":"m 717 -106 b 707 -66 717 -91 711 -76 l 175 1068 b 103 1116 160 1100 136 1116 b 23 1037 59 1116 23 1079 b 32 997 23 1022 28 1006 l 564 -137 b 637 -186 579 -169 604 -186 b 717 -106 680 -186 717 -148 "},"Ì":{"x_min":4.078125,"x_max":333.46875,"ha":467,"o":"m 123 98 b 228 -8 123 38 170 -8 b 333 98 287 -8 333 38 l 333 873 b 228 980 333 933 287 980 b 123 873 170 980 123 933 l 123 98 m 234 1040 b 285 1076 264 1040 285 1054 b 272 1113 285 1088 279 1102 l 197 1233 b 119 1280 179 1262 153 1280 b 4 1216 69 1280 4 1248 b 31 1166 4 1197 14 1181 l 115 1086 b 234 1040 155 1048 187 1040 "},"Ç":{"x_min":72.140625,"x_max":935.078125,"ha":1025,"o":"m 899 105 b 935 181 918 122 935 148 b 837 280 935 236 890 280 b 774 256 812 280 790 270 b 567 180 714 208 656 180 b 291 486 404 180 291 319 l 291 488 b 567 791 291 655 406 791 b 762 722 642 791 703 766 b 824 701 777 712 796 701 b 928 805 882 701 928 747 b 887 890 928 843 909 873 b 568 988 808 950 711 988 b 72 486 276 988 72 762 l 72 483 b 443 -2 72 244 224 47 l 363 -123 b 351 -159 356 -133 351 -147 b 468 -231 351 -194 430 -231 b 528 -187 499 -231 515 -218 l 596 -15 b 899 105 729 -8 820 34 "},"C":{"x_min":72.140625,"x_max":935.078125,"ha":1025,"o":"m 560 -16 b 899 105 713 -16 813 29 b 935 181 918 122 935 148 b 837 280 935 236 890 280 b 774 256 812 280 790 270 b 567 180 714 208 656 180 b 291 486 404 180 291 319 l 291 488 b 567 791 291 655 406 791 b 762 722 642 791 703 766 b 824 701 777 712 796 701 b 928 805 882 701 928 747 b 887 890 928 843 909 873 b 568 988 808 950 711 988 b 72 486 276 988 72 762 l 72 483 b 560 -16 72 204 280 -16 "},"Ē":{"x_min":114.328125,"x_max":847.96875,"ha":931,"o":"m 219 0 l 754 0 b 847 94 805 0 847 41 b 754 190 847 147 805 190 l 322 190 l 322 394 l 686 394 b 779 488 737 394 779 436 b 686 584 779 541 737 584 l 322 584 l 322 781 l 747 781 b 841 876 798 781 841 823 b 747 972 841 929 798 972 l 219 972 b 114 865 160 972 114 925 l 114 106 b 219 0 114 47 160 0 m 657 1055 b 729 1127 696 1055 729 1087 b 657 1201 729 1168 696 1201 l 295 1201 b 223 1127 255 1201 223 1168 b 295 1055 223 1087 255 1055 l 657 1055 "},"!":{"x_min":98.875,"x_max":342.125,"ha":450,"o":"m 157 383 b 220 322 161 345 186 322 b 283 383 254 322 279 345 l 341 905 b 287 976 345 945 323 976 l 153 976 b 99 905 117 976 95 945 l 157 383 m 102 112 l 102 109 b 220 -8 102 43 152 -8 b 338 109 288 -8 338 43 l 338 112 b 220 230 338 179 288 230 b 102 112 152 230 102 179 "},"ç":{"x_min":57.171875,"x_max":725.46875,"ha":793,"o":"m 695 79 b 725 145 713 95 725 118 b 638 236 725 195 687 236 b 582 216 613 236 593 225 b 446 165 543 184 500 165 b 261 370 333 165 261 256 l 261 373 b 438 576 261 483 334 576 b 567 529 492 576 530 558 b 627 508 579 519 600 508 b 721 602 679 508 721 550 b 688 675 721 638 702 663 b 439 758 627 727 549 758 b 57 370 216 758 57 583 l 57 368 b 321 0 57 194 163 47 l 238 -123 b 225 -159 231 -133 225 -147 b 343 -231 225 -194 304 -231 b 402 -187 374 -231 390 -218 l 470 -15 b 695 79 571 -8 639 27 "},"È":{"x_min":114.328125,"x_max":847.96875,"ha":931,"o":"m 219 0 l 754 0 b 847 94 805 0 847 41 b 754 190 847 147 805 190 l 322 190 l 322 394 l 686 394 b 779 488 737 394 779 436 b 686 584 779 541 737 584 l 322 584 l 322 781 l 747 781 b 841 876 798 781 841 823 b 747 972 841 929 798 972 l 219 972 b 114 865 160 972 114 925 l 114 106 b 219 0 114 47 160 0 m 481 1040 b 533 1076 511 1040 533 1054 b 519 1113 533 1088 526 1102 l 445 1233 b 367 1280 427 1262 401 1280 b 251 1216 317 1280 251 1248 b 279 1166 251 1197 262 1181 l 363 1086 b 481 1040 402 1048 435 1040 "},"ﬁ":{"x_min":34.03125,"x_max":841.171875,"ha":950,"o":"m 127 97 b 231 -8 127 38 174 -8 b 334 97 288 -8 334 38 l 334 563 l 421 563 b 507 650 469 563 507 601 b 421 736 507 698 469 736 l 332 736 l 332 765 b 406 845 332 820 359 845 l 424 845 b 509 933 470 845 509 886 b 438 1018 509 980 473 1012 b 353 1023 415 1022 386 1023 b 186 965 280 1023 224 1004 b 127 784 148 926 127 866 l 127 737 l 119 737 b 34 650 72 737 34 698 b 119 563 34 601 72 563 l 127 563 l 127 97 m 622 97 b 725 -8 622 38 668 -8 b 828 97 782 -8 828 38 l 828 647 b 725 752 828 705 782 752 b 622 647 668 752 622 705 l 622 97 m 609 919 b 725 819 609 858 660 819 b 841 919 790 819 841 858 l 841 922 b 725 1020 841 983 790 1020 b 609 922 660 1020 609 983 l 609 919 "},"X":{"x_min":62.9375,"x_max":904.046875,"ha":986,"o":"m 62 90 b 158 -8 62 29 111 -8 b 260 50 204 -8 231 12 l 480 343 l 703 44 b 800 -8 729 9 755 -8 b 904 97 860 -8 904 37 b 872 176 904 127 889 155 l 616 497 l 859 800 b 890 881 879 826 890 851 b 795 980 890 943 841 980 b 693 922 748 980 721 959 l 486 644 l 277 927 b 181 980 252 962 226 980 b 77 875 121 980 77 934 b 109 795 77 844 92 816 l 351 494 l 94 172 b 62 90 73 145 62 120 "},"ô":{"x_min":57.171875,"x_max":846.609375,"ha":922,"o":"m 450 -16 b 846 370 677 -16 846 156 l 846 373 b 453 758 846 587 679 758 b 57 370 225 758 57 584 l 57 367 b 450 -16 57 153 224 -16 m 453 165 b 261 370 338 165 261 260 l 261 373 b 450 576 261 483 332 576 b 642 370 564 576 642 480 l 642 367 b 453 165 642 258 571 165 m 450 917 l 514 863 b 639 817 559 826 593 817 b 687 851 665 817 687 828 b 666 891 687 863 676 878 l 581 1003 b 484 1051 558 1033 532 1051 l 419 1051 b 322 1003 371 1051 345 1033 l 236 891 b 216 851 227 878 216 863 b 261 817 216 828 235 817 b 386 863 307 817 341 826 l 450 917 "},"Ė":{"x_min":114.328125,"x_max":847.96875,"ha":931,"o":"m 219 0 l 754 0 b 847 94 805 0 847 41 b 754 190 847 147 805 190 l 322 190 l 322 394 l 686 394 b 779 488 737 394 779 436 b 686 584 779 541 737 584 l 322 584 l 322 781 l 747 781 b 841 876 798 781 841 823 b 747 972 841 929 798 972 l 219 972 b 114 865 160 972 114 925 l 114 106 b 219 0 114 47 160 0 m 586 1144 b 476 1245 586 1205 536 1245 b 366 1144 416 1245 366 1205 l 366 1141 b 476 1040 366 1080 416 1040 b 586 1141 536 1040 586 1080 l 586 1144 "},"Ā":{"x_min":48.90625,"x_max":992.171875,"ha":1064,"o":"m 48 91 b 145 -8 48 36 91 -8 b 242 58 189 -8 224 16 l 308 218 l 728 218 l 792 65 b 892 -8 811 20 843 -8 b 992 94 948 -8 992 37 b 981 137 992 108 988 122 l 649 902 b 528 987 626 955 585 987 l 515 987 b 393 902 458 987 416 955 l 61 137 b 48 91 54 122 48 106 m 386 406 l 518 727 l 650 406 l 386 406 m 700 1069 b 773 1141 740 1069 773 1101 b 700 1215 773 1181 740 1215 l 338 1215 b 266 1141 299 1215 266 1181 b 338 1069 266 1101 299 1069 l 700 1069 "},"ċ":{"x_min":57.171875,"x_max":725.46875,"ha":793,"o":"m 436 -16 b 695 79 556 -16 634 22 b 725 145 713 95 725 118 b 638 236 725 195 687 236 b 582 216 613 236 593 225 b 446 165 543 184 500 165 b 261 370 333 165 261 256 l 261 373 b 438 576 261 483 334 576 b 567 529 492 576 530 558 b 627 508 579 519 600 508 b 721 602 679 508 721 550 b 688 675 721 638 702 663 b 439 758 627 727 549 758 b 57 370 216 758 57 583 l 57 368 b 436 -16 57 155 217 -16 m 541 922 b 431 1023 541 983 491 1023 b 321 922 371 1023 321 983 l 321 919 b 431 818 321 858 371 818 b 541 919 491 818 541 858 l 541 922 "},"đ":{"x_min":59.890625,"x_max":926.921875,"ha":938,"o":"m 457 941 b 400 883 426 941 400 915 b 457 824 400 851 426 824 l 619 824 l 619 647 b 392 758 570 706 502 758 b 59 373 219 758 59 622 l 59 370 b 392 -14 59 122 221 -14 b 619 106 499 -14 568 37 l 619 97 b 722 -8 619 38 665 -8 b 826 97 779 -8 826 38 l 826 824 l 869 824 b 926 883 901 824 926 851 b 869 941 926 915 901 941 l 823 941 b 722 1022 812 987 771 1022 b 622 941 673 1022 632 987 l 457 941 m 445 578 b 622 373 541 578 622 497 l 622 370 b 445 165 622 247 541 165 b 266 370 348 165 266 247 l 266 373 b 445 578 266 498 348 578 "},"℠":{"x_min":42.1875,"x_max":906.5,"ha":976,"o":"m 487 581 b 532 536 487 556 507 536 b 577 581 556 536 577 556 l 577 802 l 657 676 b 696 651 668 659 679 651 b 735 676 714 651 725 661 l 816 805 l 816 581 b 861 536 816 556 837 536 b 906 581 886 536 906 556 l 906 930 b 861 977 906 956 886 977 l 850 977 b 809 952 831 977 819 969 l 696 768 l 586 952 b 544 977 578 966 563 977 l 533 977 b 487 930 507 977 487 956 l 487 581 m 42 623 b 63 587 42 608 50 597 b 231 536 107 558 170 536 b 400 669 332 536 400 586 b 245 798 400 745 336 777 b 149 856 174 815 149 827 b 216 901 149 881 171 901 b 319 868 261 901 294 883 b 344 861 326 863 334 861 b 385 902 367 861 385 879 b 362 941 385 919 377 931 b 219 980 330 961 283 980 b 59 845 119 980 59 925 b 216 716 59 763 126 738 b 310 658 289 698 310 686 b 236 612 310 630 284 612 b 110 655 187 612 142 631 b 83 665 102 661 93 665 b 42 623 59 665 42 647 "},"Ẃ":{"x_min":46.28125,"x_max":1448.21875,"ha":1525,"o":"m 321 72 b 430 -15 340 18 379 -15 l 451 -15 b 559 72 502 -15 540 16 l 747 629 l 935 72 b 1042 -15 954 16 992 -15 l 1064 -15 b 1173 72 1114 -15 1154 18 l 1440 836 b 1448 877 1444 848 1448 865 b 1344 980 1448 936 1401 980 b 1244 904 1293 980 1257 945 l 1054 308 l 864 898 b 758 983 847 950 811 983 l 741 983 b 635 898 688 983 651 948 l 445 308 l 255 904 b 153 980 242 948 202 980 b 46 876 95 980 46 936 b 54 836 46 863 50 848 l 321 72 m 741 1040 b 860 1086 788 1040 820 1048 l 944 1166 b 971 1216 960 1181 971 1197 b 856 1280 971 1248 906 1280 b 778 1233 822 1280 796 1262 l 703 1113 b 690 1076 696 1102 690 1088 b 741 1040 690 1054 711 1040 "},"Ŀ":{"x_min":114.328125,"x_max":807.140625,"ha":860,"o":"m 114 106 b 219 0 114 47 160 0 l 711 0 b 807 97 764 0 807 43 b 711 194 807 151 764 194 l 323 194 l 323 873 b 219 980 323 933 277 980 b 114 873 160 980 114 933 l 114 106 m 767 533 b 657 634 767 594 717 634 b 547 533 597 634 547 594 l 547 530 b 657 429 547 469 597 429 b 767 530 717 429 767 469 l 767 533 "},"}":{"x_min":59.796875,"x_max":609.6875,"ha":681,"o":"m 155 981 b 59 909 101 994 59 961 b 108 838 59 868 88 845 b 229 687 212 801 229 762 b 225 584 229 659 225 613 b 367 398 225 483 276 429 b 225 212 276 368 225 313 b 229 109 225 183 229 137 b 108 -41 229 34 212 -4 b 59 -112 88 -48 59 -70 b 155 -184 59 -163 101 -197 b 419 79 357 -137 419 -52 b 415 175 419 100 415 151 b 525 315 415 273 453 309 b 609 398 577 319 609 351 b 525 481 609 445 577 477 b 415 622 453 487 415 523 b 419 718 415 645 419 697 b 155 981 419 850 357 934 "},"â":{"x_min":49,"x_max":720.03125,"ha":822,"o":"m 299 -13 b 519 80 400 -13 469 23 l 519 79 b 619 -8 519 34 559 -8 b 720 93 675 -8 720 36 l 720 431 b 641 669 720 531 695 613 b 394 752 589 722 507 752 b 161 713 298 752 227 738 b 106 631 129 701 106 669 b 191 545 106 583 144 545 b 221 551 201 545 209 547 b 364 572 261 563 307 572 b 521 436 468 572 521 523 l 521 423 b 343 454 469 441 416 454 b 49 216 170 454 49 379 l 49 213 b 299 -13 49 66 161 -13 m 404 917 l 468 863 b 593 817 513 826 547 817 b 641 851 619 817 641 829 b 620 891 641 863 630 878 l 534 1003 b 438 1051 511 1033 485 1051 l 372 1051 b 276 1003 325 1051 299 1033 l 190 891 b 170 851 181 878 170 863 b 215 817 170 829 189 817 b 340 863 261 817 295 826 l 404 917 m 362 131 b 249 222 295 131 249 165 l 249 224 b 392 327 249 291 303 327 b 524 299 442 327 488 316 l 524 262 b 362 131 524 186 458 131 "},"ø":{"x_min":57.109375,"x_max":846.890625,"ha":922,"o":"m 450 -17 b 846 370 678 -17 846 156 l 846 373 b 770 603 846 460 818 540 l 797 633 b 827 698 814 649 827 669 b 763 759 827 731 797 759 b 701 728 737 759 718 747 l 669 697 b 453 758 608 734 535 758 b 57 370 225 758 57 584 l 57 367 b 133 135 57 280 84 199 l 106 107 b 76 42 89 91 76 71 b 140 -18 76 9 106 -18 b 202 12 166 -18 185 -6 l 234 43 b 450 -17 295 5 368 -17 m 453 159 b 362 181 419 159 388 167 l 630 459 b 648 370 641 431 648 401 l 648 367 b 453 159 648 255 575 159 m 255 370 l 255 373 b 450 581 255 485 328 581 b 541 558 484 581 514 573 l 273 281 b 255 370 261 307 255 338 "},"‰":{"x_min":61.25,"x_max":1626.53125,"ha":1722,"o":"m 291 486 b 524 734 430 486 524 598 l 524 737 b 294 983 524 873 431 983 b 61 734 155 983 61 872 l 61 731 b 291 486 61 595 153 486 m 213 56 b 277 -8 213 20 242 -8 b 333 20 299 -8 321 2 l 941 870 b 956 915 951 883 956 897 b 892 980 956 951 928 980 b 837 951 871 980 849 969 l 228 101 b 213 56 220 88 213 75 m 1393 -11 b 1626 237 1532 -11 1626 101 l 1626 240 b 1396 486 1626 376 1533 486 b 1163 237 1257 486 1163 375 l 1163 234 b 1393 -11 1163 98 1256 -11 m 876 -11 b 1109 237 1015 -11 1109 101 l 1109 240 b 879 486 1109 376 1016 486 b 646 237 740 486 646 375 l 646 234 b 876 -11 646 98 739 -11 m 294 612 b 204 734 239 612 204 669 l 204 737 b 291 856 204 801 234 856 b 381 734 345 856 381 800 l 381 731 b 294 612 381 669 351 612 m 1396 115 b 1306 237 1342 115 1306 172 l 1306 240 b 1393 359 1306 304 1336 359 b 1483 237 1448 359 1483 302 l 1483 234 b 1396 115 1483 172 1453 115 m 879 115 b 789 237 824 115 789 172 l 789 240 b 876 359 789 304 819 359 b 966 237 931 359 966 302 l 966 234 b 879 115 966 172 936 115 "},"Ä":{"x_min":49.1875,"x_max":992.453125,"ha":1064,"o":"m 49 91 b 145 -8 49 36 91 -8 b 242 58 189 -8 224 16 l 309 218 l 728 218 l 792 65 b 893 -8 811 20 844 -8 b 992 94 948 -8 992 37 b 981 137 992 108 988 122 l 649 902 b 528 987 626 955 585 987 l 516 987 b 393 902 458 987 416 955 l 61 137 b 49 91 54 122 49 106 m 386 406 l 518 727 l 650 406 l 386 406 m 665 1259 b 558 1158 607 1259 558 1218 l 558 1155 b 665 1054 558 1095 607 1054 b 773 1155 724 1054 773 1095 l 773 1158 b 665 1259 773 1218 724 1259 m 374 1259 b 266 1158 315 1259 266 1218 l 266 1155 b 374 1054 266 1095 315 1054 b 482 1155 433 1054 482 1095 l 482 1158 b 374 1259 482 1218 433 1259 "},"ř":{"x_min":76.21875,"x_max":547.171875,"ha":581,"o":"m 92 96 b 196 -8 92 38 138 -8 b 299 96 253 -8 299 38 l 299 293 b 462 550 299 443 357 525 b 540 649 504 560 540 593 b 439 752 540 709 503 752 b 299 613 378 752 329 685 l 299 646 b 196 752 299 704 253 752 b 92 646 138 752 92 704 l 92 96 m 313 952 l 249 1006 b 123 1052 204 1043 170 1052 b 76 1018 98 1052 76 1041 b 96 978 76 1006 87 991 l 182 866 b 279 818 205 836 231 818 l 344 818 b 441 866 392 818 417 836 l 526 978 b 547 1018 536 991 547 1006 b 502 1052 547 1041 528 1052 b 377 1006 455 1052 421 1043 l 313 952 "},"—":{"x_min":59.890625,"x_max":1162.390625,"ha":1247,"o":"m 156 331 l 1065 331 b 1162 430 1118 331 1162 376 b 1065 529 1162 484 1118 529 l 156 529 b 59 430 103 529 59 484 b 156 331 59 376 103 331 "},"N":{"x_min":114.328125,"x_max":960.953125,"ha":1097,"o":"m 114 97 b 217 -8 114 38 160 -8 b 321 97 274 -8 321 38 l 321 618 l 740 56 b 849 -5 769 19 798 -5 l 856 -5 b 960 101 914 -5 960 41 l 960 875 b 857 980 960 933 914 980 b 754 875 800 980 754 933 l 754 373 l 349 915 b 240 977 321 952 291 977 l 219 977 b 114 870 160 977 114 930 l 114 97 "},"⁄":{"x_min":-47.640625,"x_max":671.03125,"ha":667,"o":"m -47 -65 b 32 -144 -47 -109 -10 -144 b 103 -102 62 -144 91 -126 l 658 937 b 671 981 665 950 671 966 b 590 1061 671 1026 634 1061 b 519 1019 560 1061 532 1043 l -35 -20 b -47 -65 -42 -33 -47 -50 "},"2":{"x_min":58.53125,"x_max":779.921875,"ha":865,"o":"m 58 101 b 171 0 58 37 106 0 l 688 0 b 779 91 739 0 779 40 b 688 184 779 143 739 184 l 356 184 l 511 306 b 762 683 680 440 762 520 l 762 686 b 434 986 762 868 631 986 b 123 843 289 986 200 933 b 99 776 108 825 99 800 b 194 679 99 722 141 679 b 265 709 227 679 251 694 b 420 794 318 768 360 794 b 548 668 495 794 548 750 b 383 434 548 587 502 533 l 112 208 b 58 101 77 179 58 143 "},"ü":{"x_min":87.109375,"x_max":755.421875,"ha":865,"o":"m 755 647 b 651 752 755 705 709 752 b 548 647 594 752 548 705 l 548 329 b 419 177 548 229 498 177 b 294 329 340 177 294 229 l 294 647 b 190 752 294 705 247 752 b 87 647 133 752 87 705 l 87 262 b 334 -13 87 91 178 -13 b 548 105 439 -13 500 43 l 548 97 b 651 -8 548 38 594 -8 b 755 97 709 -8 755 38 l 755 647 m 566 1023 b 458 922 507 1023 458 982 l 458 919 b 566 818 458 859 507 818 b 673 919 624 818 673 859 l 673 922 b 566 1023 673 982 624 1023 m 274 1023 b 167 922 216 1023 167 982 l 167 919 b 274 818 167 859 216 818 b 382 919 333 818 382 859 l 382 922 b 274 1023 382 982 333 1023 "},"˜":{"x_min":69.421875,"x_max":611.140625,"ha":694,"o":"m 183 840 b 247 880 200 868 215 880 b 451 826 296 880 367 826 b 604 962 534 826 574 881 b 611 1000 608 973 611 990 b 549 1056 611 1029 582 1056 b 496 1025 525 1056 507 1043 b 432 984 480 997 465 984 b 228 1038 383 984 313 1038 b 76 902 145 1038 106 983 b 69 865 72 891 69 875 b 130 808 69 836 98 808 b 183 840 155 808 172 822 "},"Ó":{"x_min":72.140625,"x_max":1084.8125,"ha":1181,"o":"m 577 -16 b 1084 486 871 -16 1084 209 l 1084 488 b 579 988 1084 765 873 988 b 72 486 285 988 72 762 l 72 483 b 577 -16 72 206 283 -16 m 579 180 b 291 486 411 180 291 319 l 291 488 b 577 791 291 655 408 791 b 865 486 745 791 865 652 l 865 483 b 579 180 865 316 748 180 m 573 1054 b 691 1100 619 1054 651 1062 l 775 1180 b 803 1230 792 1195 803 1211 b 687 1294 803 1262 737 1294 b 609 1247 653 1294 627 1276 l 534 1127 b 521 1090 528 1116 521 1102 b 573 1054 521 1068 543 1054 "},"ˇ":{"x_min":104.8125,"x_max":575.75,"ha":694,"o":"m 341 952 l 277 1006 b 152 1052 232 1043 198 1052 b 104 1018 126 1052 104 1041 b 125 978 104 1006 115 991 l 210 866 b 307 818 234 836 259 818 l 372 818 b 469 866 420 818 446 836 l 555 978 b 575 1018 564 991 575 1006 b 530 1052 575 1041 556 1052 b 405 1006 484 1052 450 1043 l 341 952 "},"Ÿ":{"x_min":29.9375,"x_max":907.859375,"ha":956,"o":"m 363 98 b 468 -8 363 38 409 -8 b 573 98 526 -8 573 38 l 573 379 l 880 802 b 907 877 894 822 907 848 b 805 981 907 936 869 981 b 705 918 762 981 730 956 l 469 575 l 238 915 b 134 980 212 954 182 980 b 29 877 76 980 29 934 b 55 801 29 847 40 822 l 363 375 l 363 98 m 613 1245 b 506 1144 555 1245 506 1204 l 506 1141 b 613 1040 506 1081 555 1040 b 721 1141 672 1040 721 1081 l 721 1144 b 613 1245 721 1204 672 1245 m 322 1245 b 215 1144 264 1245 215 1204 l 215 1141 b 322 1040 215 1081 264 1040 b 430 1141 381 1040 430 1081 l 430 1144 b 322 1245 430 1204 381 1245 "},"ų":{"x_min":86.59375,"x_max":767.15625,"ha":865,"o":"m 754 647 b 651 752 754 705 708 752 b 548 647 594 752 548 705 l 548 329 b 418 177 548 229 497 177 b 293 329 339 177 293 229 l 293 647 b 190 752 293 705 247 752 b 86 647 132 752 86 705 l 86 262 b 334 -13 86 91 177 -13 b 548 105 439 -13 500 43 l 548 97 b 584 16 548 65 561 36 b 516 -117 546 -20 516 -66 b 701 -231 516 -190 587 -231 b 767 -181 745 -231 767 -212 b 718 -131 767 -155 749 -140 b 666 -80 682 -122 666 -108 b 716 12 666 -54 678 -26 b 754 93 744 40 754 59 l 754 647 "},"€":{"x_min":58.96875,"x_max":919.125,"ha":1000,"o":"m 919 195 b 825 291 919 248 876 291 b 754 258 793 291 770 277 b 595 173 706 202 663 173 b 411 301 508 173 445 219 l 603 301 b 672 370 641 301 672 331 b 603 441 672 409 641 441 l 381 441 b 380 487 380 455 380 470 b 381 536 380 504 380 520 l 603 536 b 672 605 641 536 672 566 b 603 676 672 644 641 676 l 414 676 b 587 798 448 752 506 798 b 743 720 653 798 699 770 b 815 688 757 705 780 688 b 916 788 870 688 916 733 b 887 861 916 820 901 847 b 591 988 817 937 732 988 b 195 676 389 988 250 859 l 128 676 b 58 605 90 676 58 644 b 128 536 58 566 90 536 l 169 536 b 167 484 167 519 167 501 b 169 441 167 469 167 455 l 128 441 b 58 370 90 441 58 409 b 128 301 58 331 90 301 l 190 301 b 595 -16 245 111 386 -16 b 898 134 732 -16 823 41 b 919 195 908 147 919 170 "},"Ŭ":{"x_min":99.359375,"x_max":929.640625,"ha":1050,"o":"m 511 -15 b 929 423 767 -15 929 129 l 929 873 b 824 980 929 933 883 980 b 720 873 766 980 720 933 l 720 415 b 514 181 720 261 642 181 b 308 422 386 181 308 263 l 308 873 b 204 980 308 933 262 980 b 99 873 145 980 99 933 l 99 416 b 511 -15 99 130 255 -15 m 514 1038 b 741 1156 620 1038 700 1083 b 751 1195 748 1169 751 1181 b 680 1268 751 1236 720 1268 b 619 1231 647 1268 630 1250 b 514 1176 598 1198 568 1176 b 409 1231 460 1176 430 1198 b 348 1268 398 1250 381 1268 b 277 1195 308 1268 277 1236 b 287 1156 277 1181 280 1169 b 514 1038 328 1083 408 1038 "},"ß":{"x_min":92.34375,"x_max":785.15625,"ha":861,"o":"m 398 80 b 493 -4 398 30 433 -4 b 785 276 629 -4 785 91 l 785 279 b 606 525 785 412 698 484 b 730 751 674 572 730 631 l 730 754 b 427 1023 730 905 621 1023 b 92 698 223 1023 92 904 l 92 95 b 194 -8 92 37 137 -8 b 297 95 251 -8 297 37 l 297 706 b 417 845 297 791 346 845 b 526 734 484 845 526 804 l 526 731 b 438 581 526 668 489 622 b 398 498 416 565 398 538 b 469 406 398 445 433 420 b 580 286 537 381 580 344 l 580 283 b 470 163 580 219 541 181 b 398 80 427 152 398 122 "},"s":{"x_min":34.03125,"x_max":627.46875,"ha":697,"o":"m 348 -13 b 627 226 506 -13 627 61 l 627 229 b 406 450 627 365 509 415 b 258 538 328 477 258 497 l 258 541 b 334 593 258 570 284 593 b 492 545 378 593 434 575 b 530 536 506 538 515 536 b 613 619 577 536 613 572 b 564 698 613 655 594 683 b 338 755 494 734 415 755 b 72 519 191 755 72 670 l 72 516 b 289 293 72 372 187 323 b 441 206 370 268 441 252 l 441 204 b 353 148 441 170 413 148 b 156 215 295 148 225 170 b 115 226 145 222 130 226 b 34 143 69 226 34 190 b 73 70 34 109 51 84 b 348 -13 161 12 258 -13 "},"Ű":{"x_min":99.359375,"x_max":929.640625,"ha":1050,"o":"m 511 -15 b 929 423 767 -15 929 129 l 929 873 b 824 980 929 933 883 980 b 720 873 766 980 720 933 l 720 415 b 514 181 720 261 642 181 b 308 422 386 181 308 263 l 308 873 b 204 980 308 933 262 980 b 99 873 145 980 99 933 l 99 416 b 511 -15 99 130 255 -15 m 631 1040 b 747 1086 677 1040 707 1048 l 831 1166 b 858 1216 847 1181 858 1197 b 744 1280 858 1248 794 1280 b 671 1233 710 1280 688 1262 l 596 1113 b 582 1076 589 1102 582 1088 b 631 1040 582 1054 601 1040 m 364 1040 b 480 1086 411 1040 441 1048 l 564 1166 b 592 1216 581 1181 592 1197 b 477 1280 592 1248 528 1280 b 404 1233 443 1280 421 1262 l 329 1113 b 315 1076 322 1102 315 1088 b 364 1040 315 1054 334 1040 "},"?":{"x_min":42.15625,"x_max":690.046875,"ha":756,"o":"m 344 322 b 417 390 383 322 412 354 l 421 415 b 690 694 570 445 690 518 l 690 697 b 360 984 690 881 556 984 b 77 884 240 984 149 945 b 42 809 53 863 42 836 b 137 712 42 756 85 712 b 198 734 160 712 182 722 b 356 790 247 772 298 790 b 481 691 435 790 481 754 l 481 688 b 308 568 481 620 427 583 b 246 484 265 562 239 530 l 259 390 b 333 322 265 352 293 322 l 344 322 m 215 112 l 215 109 b 333 -8 215 43 265 -8 b 451 109 401 -8 451 43 l 451 112 b 333 230 451 179 401 230 b 215 112 265 230 215 179 "},"c":{"x_min":57.171875,"x_max":725.46875,"ha":793,"o":"m 436 -16 b 695 79 556 -16 634 22 b 725 145 713 95 725 118 b 638 236 725 195 687 236 b 582 216 613 236 593 225 b 446 165 543 184 500 165 b 261 370 333 165 261 256 l 261 373 b 438 576 261 483 334 576 b 567 529 492 576 530 558 b 627 508 579 519 600 508 b 721 602 679 508 721 550 b 688 675 721 638 702 663 b 439 758 627 727 549 758 b 57 370 216 758 57 583 l 57 368 b 436 -16 57 155 217 -16 "},"Ņ":{"x_min":114.328125,"x_max":960.953125,"ha":1097,"o":"m 114 97 b 217 -8 114 38 160 -8 b 321 97 274 -8 321 38 l 321 618 l 740 56 b 849 -5 769 19 798 -5 l 856 -5 b 960 101 914 -5 960 41 l 960 875 b 857 980 960 933 914 980 b 754 875 800 980 754 933 l 754 373 l 349 915 b 240 977 321 952 291 977 l 219 977 b 114 870 160 977 114 930 l 114 97 m 544 -234 b 450 -330 545 -283 515 -316 b 416 -363 428 -334 416 -345 b 460 -398 416 -381 430 -398 b 590 -350 504 -398 556 -380 b 660 -184 635 -312 660 -258 l 660 -180 b 556 -66 660 -112 620 -66 b 458 -150 496 -66 458 -101 l 458 -151 b 544 -234 458 -200 496 -226 "},"¶":{"x_min":47.640625,"x_max":688.71875,"ha":819,"o":"m 479 98 b 583 -8 479 38 525 -8 b 688 98 642 -8 688 38 l 688 865 b 583 972 688 925 642 972 l 423 972 b 47 645 200 972 47 850 l 47 643 b 446 319 47 427 217 319 l 479 319 l 479 98 "},"Ī":{"x_min":-24.5,"x_max":481.828125,"ha":467,"o":"m 123 98 b 228 -8 123 38 170 -8 b 333 98 287 -8 333 38 l 333 873 b 228 980 333 933 287 980 b 123 873 170 980 123 933 l 123 98 m 409 1055 b 481 1127 449 1055 481 1087 b 409 1201 481 1168 449 1201 l 47 1201 b -24 1127 8 1201 -24 1168 b 47 1055 -24 1087 8 1055 l 409 1055 "},"•":{"x_min":137.46875,"x_max":543.078125,"ha":694,"o":"m 340 281 b 543 487 451 281 543 373 l 543 490 b 340 695 543 604 451 695 b 137 490 228 695 137 604 l 137 487 b 340 281 137 373 228 281 "},"(":{"x_min":80.3125,"x_max":547.171875,"ha":618,"o":"m 468 -184 b 547 -98 509 -184 547 -141 b 513 -29 547 -65 532 -43 b 285 398 355 91 285 213 b 513 826 285 581 355 705 b 547 895 532 840 547 862 b 468 981 547 938 509 981 b 419 970 445 981 426 975 b 80 398 196 833 80 651 b 419 -173 80 145 196 -36 b 468 -184 426 -177 445 -184 "},"Ħ":{"x_min":10.890625,"x_max":1020.828125,"ha":1056,"o":"m 114 98 b 219 -8 114 38 160 -8 b 323 98 277 -8 323 38 l 323 390 l 710 390 l 710 98 b 815 -8 710 38 756 -8 b 920 98 873 -8 920 38 l 920 711 l 948 711 b 1020 783 988 711 1020 743 b 948 856 1020 823 988 856 l 920 856 l 920 873 b 815 980 920 933 873 980 b 710 873 756 980 710 933 l 710 856 l 323 856 l 323 873 b 219 980 323 933 277 980 b 114 873 160 980 114 933 l 114 856 l 83 856 b 10 783 43 856 10 823 b 83 711 10 743 43 711 l 114 711 l 114 98 m 323 587 l 323 711 l 710 711 l 710 587 l 323 587 "},":":{"x_min":83.03125,"x_max":319.859375,"ha":411,"o":"m 83 634 l 83 631 b 201 513 83 565 133 513 b 319 631 269 513 319 565 l 319 634 b 201 752 319 701 269 752 b 83 634 133 752 83 701 m 83 112 l 83 109 b 201 -8 83 43 133 -8 b 319 109 269 -8 319 43 l 319 112 b 201 230 319 179 269 230 b 83 112 133 230 83 179 "},"Û":{"x_min":99.359375,"x_max":929.640625,"ha":1050,"o":"m 511 -15 b 929 423 767 -15 929 128 l 929 873 b 824 980 929 932 883 980 b 720 873 766 980 720 932 l 720 414 b 514 181 720 260 642 181 b 308 421 386 181 308 263 l 308 873 b 204 980 308 932 262 980 b 99 873 145 980 99 932 l 99 416 b 511 -15 99 130 255 -15 m 513 1139 l 577 1085 b 702 1039 622 1048 656 1039 b 749 1073 728 1039 749 1050 b 729 1113 749 1085 739 1100 l 643 1225 b 547 1273 620 1255 594 1273 l 481 1273 b 385 1225 434 1273 408 1255 l 299 1113 b 279 1073 289 1100 279 1085 b 323 1039 279 1050 298 1039 b 449 1085 370 1039 404 1048 l 513 1139 "},"V":{"x_min":47.640625,"x_max":941.890625,"ha":1008,"o":"m 487 -15 l 500 -15 b 619 69 558 -15 597 16 l 931 830 b 941 877 936 843 941 861 b 838 980 941 936 895 980 b 737 912 788 980 751 947 l 496 276 l 258 905 b 152 980 242 948 206 980 b 47 875 93 980 47 934 b 59 823 47 856 53 840 l 368 69 b 487 -15 390 16 430 -15 "},"ś":{"x_min":34.03125,"x_max":627.46875,"ha":697,"o":"m 348 -13 b 627 226 506 -13 627 61 l 627 229 b 406 450 627 365 509 415 b 258 538 328 477 258 497 l 258 541 b 334 593 258 570 284 593 b 492 545 378 593 434 575 b 530 536 506 538 515 536 b 613 619 577 536 613 572 b 564 698 613 655 594 683 b 338 755 494 734 415 755 b 72 519 191 755 72 670 l 72 516 b 289 293 72 372 187 323 b 441 206 370 268 441 252 l 441 204 b 353 148 441 170 413 148 b 156 215 295 148 225 170 b 115 226 145 222 130 226 b 34 143 69 226 34 190 b 73 70 34 109 51 84 b 348 -13 161 12 258 -13 m 340 818 b 458 863 386 818 419 826 l 543 944 b 570 994 559 959 570 975 b 454 1058 570 1026 504 1058 b 377 1011 420 1058 394 1040 l 302 891 b 288 854 295 880 288 866 b 340 818 288 831 310 818 "},"Ŗ":{"x_min":114.421875,"x_max":909.3125,"ha":1004,"o":"m 114 98 b 219 -8 114 38 160 -8 b 324 98 277 -8 324 38 l 324 311 l 491 311 l 695 47 b 799 -8 720 15 751 -8 b 898 90 849 -8 898 30 b 864 172 898 123 884 145 l 718 352 b 909 648 834 401 909 495 l 909 651 b 827 873 909 743 880 819 b 549 972 765 937 671 972 l 219 972 b 114 865 160 972 114 925 l 114 98 m 324 500 l 324 779 l 532 779 b 696 640 634 779 696 731 l 696 637 b 536 500 696 555 638 500 l 324 500 m 518 -234 b 424 -330 520 -283 490 -316 b 390 -363 402 -334 390 -345 b 434 -398 390 -381 404 -398 b 564 -350 479 -398 530 -380 b 634 -184 609 -312 634 -258 l 634 -180 b 530 -66 634 -112 594 -66 b 432 -150 471 -66 432 -101 l 432 -151 b 518 -234 432 -200 471 -226 "}," ":{"x_min":0,"x_max":0,"ha":417},"@":{"x_min":72.140625,"x_max":1261.75,"ha":1361,"o":"m 679 -225 b 1026 -129 815 -225 925 -189 b 1039 -107 1033 -125 1039 -118 b 1015 -79 1039 -93 1029 -79 b 1000 -83 1011 -79 1004 -80 b 679 -169 902 -140 808 -169 b 129 380 357 -169 129 74 b 668 933 129 684 360 933 b 1204 438 974 933 1204 695 b 1031 155 1204 253 1128 155 b 932 242 969 155 932 192 b 936 285 932 253 933 271 l 989 595 b 910 697 1000 657 956 697 b 824 613 864 697 833 669 l 824 612 b 637 707 786 665 730 707 b 332 358 477 707 332 554 b 581 89 332 192 442 89 b 782 173 669 89 736 130 b 990 89 816 133 880 89 b 1261 438 1140 89 1261 206 b 668 988 1261 723 1001 988 b 72 380 334 988 72 712 b 679 -225 72 48 330 -225 m 628 233 b 500 367 553 233 500 281 b 664 563 500 479 575 563 b 790 433 737 563 790 512 b 628 233 790 319 714 233 "},"i":{"x_min":89.828125,"x_max":321.21875,"ha":419,"o":"m 89 919 b 205 819 89 858 140 819 b 321 919 270 819 321 858 l 321 922 b 205 1020 321 983 270 1020 b 89 922 140 1020 89 983 l 89 919 m 102 97 b 205 -8 102 38 148 -8 b 308 97 262 -8 308 38 l 308 647 b 205 752 308 705 262 752 b 102 647 148 752 102 705 l 102 97 "},"Ģ":{"x_min":72.140625,"x_max":980,"ha":1089,"o":"m 573 -16 b 906 80 715 -16 828 31 b 980 216 956 111 980 154 l 980 452 b 875 559 980 512 933 559 l 635 559 b 544 466 585 559 544 518 b 635 375 544 415 585 375 l 777 375 l 777 236 b 579 177 724 197 656 177 b 291 486 411 177 291 308 l 291 488 b 564 791 291 654 412 791 b 773 725 654 791 715 766 b 837 702 788 713 807 702 b 940 808 894 702 940 750 b 896 894 940 850 917 879 b 571 988 811 955 715 988 b 72 486 283 988 72 762 l 72 483 b 573 -16 72 195 276 -16 m 567 -248 b 473 -344 568 -297 539 -330 b 439 -377 451 -348 439 -359 b 483 -412 439 -395 453 -412 b 613 -363 528 -412 579 -394 b 683 -198 658 -326 683 -272 l 683 -194 b 579 -80 683 -126 643 -80 b 481 -163 519 -80 481 -115 l 481 -165 b 567 -248 481 -213 519 -240 "},"m":{"x_min":92.5625,"x_max":1205.953125,"ha":1319,"o":"m 92 97 b 196 -7 92 39 138 -7 b 299 97 253 -7 299 39 l 299 415 b 424 567 299 515 347 567 b 545 415 502 567 545 515 l 545 97 b 649 -7 545 39 592 -7 b 752 97 706 -7 752 39 l 752 415 b 877 567 752 515 800 567 b 999 415 955 567 999 515 l 999 97 b 1102 -7 999 39 1045 -7 b 1205 97 1159 -7 1205 39 l 1205 485 b 959 758 1205 664 1113 758 b 720 640 860 758 784 717 b 514 758 681 715 609 758 b 299 639 409 758 347 701 l 299 647 b 196 753 299 706 253 753 b 92 647 138 753 92 706 l 92 97 "},"ĕ":{"x_min":57.03125,"x_max":768.890625,"ha":851,"o":"m 259 430 b 417 588 276 526 331 588 b 571 430 504 588 559 525 l 259 430 m 691 73 b 718 136 706 87 718 108 b 638 219 718 183 684 219 b 587 202 616 219 602 213 b 440 152 545 170 498 152 b 262 298 348 152 282 202 l 672 298 b 768 400 726 298 768 338 b 417 758 768 554 661 758 b 57 370 205 758 57 583 l 57 368 b 438 -16 57 140 219 -16 b 691 73 544 -16 627 18 m 412 823 b 639 941 518 823 598 868 b 649 980 646 954 649 966 b 578 1052 649 1020 617 1052 b 517 1016 545 1052 527 1034 b 412 961 496 983 466 961 b 307 1016 357 961 327 983 b 246 1052 296 1034 278 1052 b 175 980 206 1052 175 1020 b 184 941 175 966 178 954 b 412 823 225 868 306 823 "},"ﬃ":{"x_min":34.03125,"x_max":1361.109375,"ha":1481,"o":"m 127 97 b 231 -8 127 38 174 -8 b 334 97 288 -8 334 38 l 334 563 l 421 563 b 507 650 469 563 507 601 b 421 736 507 698 469 736 l 332 736 l 332 765 b 406 845 332 820 359 845 l 424 845 b 509 933 470 845 509 886 b 438 1018 509 980 473 1012 b 353 1023 415 1022 386 1023 b 186 965 280 1023 224 1004 b 127 784 148 926 127 866 l 127 737 l 119 737 b 34 650 72 737 34 698 b 119 563 34 601 72 563 l 127 563 l 127 97 m 647 97 b 751 -8 647 38 694 -8 b 854 97 808 -8 854 38 l 854 563 l 941 563 b 1027 650 989 563 1027 601 b 941 736 1027 698 989 736 l 852 736 l 852 765 b 926 845 852 820 879 845 l 944 845 b 1029 933 990 845 1029 886 b 958 1018 1029 980 993 1012 b 873 1023 935 1022 906 1023 b 706 965 800 1023 744 1004 b 647 784 668 926 647 866 l 647 737 l 639 737 b 553 650 592 737 553 698 b 639 563 553 601 592 563 l 647 563 l 647 97 m 1141 97 b 1245 -8 1141 38 1188 -8 b 1348 97 1302 -8 1348 38 l 1348 647 b 1245 752 1348 705 1302 752 b 1141 647 1188 752 1141 705 l 1141 97 m 1129 919 b 1245 819 1129 858 1180 819 b 1361 919 1310 819 1361 858 l 1361 922 b 1245 1020 1361 983 1310 1020 b 1129 922 1180 1020 1129 983 l 1129 919 "},"ż":{"x_min":60.046875,"x_max":710.953125,"ha":782,"o":"m 160 0 l 626 0 b 710 84 672 0 710 37 b 626 170 710 131 672 170 l 324 170 l 664 552 b 710 655 697 588 710 615 l 710 659 b 610 744 710 709 668 744 l 156 744 b 72 658 110 744 72 705 b 156 573 72 611 110 573 l 445 573 l 106 191 b 60 88 73 155 60 129 l 60 84 b 160 0 60 34 102 0 m 495 922 b 385 1023 495 983 445 1023 b 275 922 325 1023 275 983 l 275 919 b 385 818 275 858 325 818 b 495 919 445 818 495 858 l 495 922 "},"ő":{"x_min":57.171875,"x_max":846.609375,"ha":922,"o":"m 450 -16 b 846 370 677 -16 846 156 l 846 373 b 453 758 846 587 679 758 b 57 370 225 758 57 584 l 57 368 b 450 -16 57 154 224 -16 m 453 165 b 261 370 338 165 261 261 l 261 373 b 450 576 261 483 332 576 b 642 370 564 576 642 480 l 642 368 b 453 165 642 258 571 165 m 568 818 b 684 863 615 818 645 826 l 769 944 b 796 994 785 959 796 975 b 681 1058 796 1026 732 1058 b 608 1011 647 1058 626 1040 l 533 891 b 519 854 526 880 519 866 b 568 818 519 831 539 818 m 302 818 b 417 863 348 818 378 826 l 502 944 b 529 994 518 959 529 975 b 415 1058 529 1026 465 1058 b 341 1011 381 1058 359 1040 l 266 891 b 253 854 259 880 253 866 b 302 818 253 831 272 818 "},"ž":{"x_min":60.15625,"x_max":710.84375,"ha":782,"o":"m 160 0 l 626 0 b 710 84 672 0 710 36 b 626 170 710 131 672 170 l 324 170 l 664 552 b 710 654 697 588 710 614 l 710 659 b 610 743 710 709 668 743 l 156 743 b 72 657 110 743 72 704 b 156 572 72 610 110 572 l 445 572 l 106 191 b 60 88 73 154 60 128 l 60 84 b 160 0 60 34 102 0 m 386 952 l 322 1006 b 197 1052 277 1043 243 1052 b 150 1018 171 1052 150 1041 b 170 978 150 1006 160 991 l 256 866 b 352 818 279 836 305 818 l 418 818 b 514 866 465 818 491 836 l 600 978 b 621 1018 610 991 621 1006 b 576 1052 621 1041 601 1052 b 450 1006 529 1052 495 1043 l 386 952 "},"á":{"x_min":49,"x_max":720.03125,"ha":822,"o":"m 299 -13 b 519 80 400 -13 469 23 l 519 79 b 619 -8 519 34 559 -8 b 720 93 675 -8 720 36 l 720 431 b 641 669 720 531 695 613 b 394 752 589 722 507 752 b 161 713 298 752 227 738 b 106 631 129 701 106 669 b 191 545 106 583 144 545 b 221 551 201 545 209 547 b 364 572 261 563 307 572 b 521 436 468 572 521 523 l 521 423 b 343 454 469 441 416 454 b 49 216 170 454 49 379 l 49 213 b 299 -13 49 66 161 -13 m 362 131 b 249 222 295 131 249 165 l 249 224 b 392 327 249 291 303 327 b 524 299 442 327 488 316 l 524 262 b 362 131 524 186 458 131 m 400 817 b 518 863 446 817 479 826 l 602 944 b 630 994 619 959 630 974 b 514 1058 630 1026 564 1058 b 436 1011 480 1058 454 1040 l 362 891 b 348 854 355 880 348 866 b 400 817 348 831 370 817 "},"Ŏ":{"x_min":72.140625,"x_max":1084.8125,"ha":1181,"o":"m 577 -16 b 1084 486 871 -16 1084 209 l 1084 488 b 579 988 1084 765 873 988 b 72 486 285 988 72 762 l 72 483 b 577 -16 72 206 283 -16 m 579 180 b 291 486 411 180 291 319 l 291 488 b 577 791 291 655 408 791 b 865 486 745 791 865 652 l 865 483 b 579 180 865 316 748 180 m 578 1059 b 805 1177 684 1059 764 1104 b 815 1216 812 1190 815 1202 b 744 1288 815 1256 784 1288 b 683 1252 711 1288 694 1270 b 578 1197 662 1219 632 1197 b 473 1252 524 1197 494 1219 b 412 1288 462 1270 445 1288 b 341 1216 372 1288 341 1256 b 351 1177 341 1202 344 1190 b 578 1059 392 1104 472 1059 "},"×":{"x_min":127.9375,"x_max":743.15625,"ha":889,"o":"m 713 644 b 743 712 730 662 743 686 b 654 802 743 762 703 802 b 589 773 628 802 607 791 l 436 614 l 284 775 b 219 802 268 791 246 802 b 127 709 168 802 127 761 b 155 643 127 682 138 659 l 313 487 l 157 333 b 127 265 140 315 127 291 b 216 175 127 215 167 175 b 281 204 242 175 264 186 l 434 363 l 586 202 b 651 175 602 186 624 175 b 743 268 702 175 743 216 b 715 334 743 295 732 318 l 558 490 l 713 644 "},"İ":{"x_min":118.421875,"x_max":338.921875,"ha":467,"o":"m 123 98 b 228 -8 123 38 170 -8 b 333 98 287 -8 333 38 l 333 873 b 228 980 333 933 287 980 b 123 873 170 980 123 933 l 123 98 m 338 1144 b 228 1245 338 1205 288 1245 b 118 1144 168 1245 118 1205 l 118 1141 b 228 1040 118 1080 168 1040 b 338 1141 288 1040 338 1080 l 338 1144 "},"Ě":{"x_min":114.328125,"x_max":847.96875,"ha":931,"o":"m 219 0 l 754 0 b 847 94 805 0 847 41 b 754 190 847 147 805 190 l 322 190 l 322 394 l 686 394 b 779 489 737 394 779 436 b 686 584 779 541 737 584 l 322 584 l 322 782 l 747 782 b 841 876 798 782 841 823 b 747 972 841 929 798 972 l 219 972 b 114 865 160 972 114 925 l 114 107 b 219 0 114 47 160 0 m 477 1175 l 413 1229 b 288 1275 368 1266 334 1275 b 240 1241 262 1275 240 1264 b 261 1201 240 1229 251 1214 l 347 1089 b 443 1041 370 1059 396 1041 l 509 1041 b 605 1089 556 1041 582 1059 l 691 1201 b 711 1241 700 1214 711 1229 b 666 1275 711 1264 692 1275 b 541 1229 620 1275 586 1266 l 477 1175 "},"Ǻ":{"x_min":65.265625,"x_max":1008.46875,"ha":1097,"o":"m 643 952 b 702 1075 679 983 702 1027 l 702 1077 b 537 1238 702 1165 624 1238 b 372 1077 450 1238 372 1165 l 372 1075 b 431 952 372 1026 395 983 l 77 137 b 65 91 70 122 65 106 b 161 -8 65 36 107 -8 b 258 58 205 -8 240 16 l 325 218 l 744 218 l 808 65 b 909 -8 827 20 860 -8 b 1008 94 964 -8 1008 37 b 997 137 1008 108 1004 122 l 643 952 m 537 990 b 453 1075 491 990 453 1029 l 453 1077 b 537 1162 453 1123 491 1162 b 621 1077 583 1162 621 1123 l 621 1075 b 537 990 621 1029 583 990 m 402 406 l 534 727 l 666 406 l 402 406 m 532 1269 b 650 1315 578 1269 611 1277 l 734 1395 b 762 1445 751 1411 762 1426 b 646 1509 762 1477 696 1509 b 568 1462 612 1509 586 1491 l 493 1343 b 480 1305 487 1331 480 1318 b 532 1269 480 1283 502 1269 "},"K":{"x_min":114.328125,"x_max":910.578125,"ha":989,"o":"m 114 98 b 219 -8 114 38 160 -8 b 323 98 277 -8 323 38 l 323 293 l 443 406 l 715 43 b 804 -8 739 12 763 -8 b 910 95 865 -8 910 36 b 882 170 910 127 898 150 l 589 545 l 857 801 b 895 881 880 823 895 848 b 798 980 895 934 857 980 b 710 938 762 980 736 965 l 323 547 l 323 873 b 219 980 323 933 277 980 b 114 873 160 980 114 933 l 114 98 "},"7":{"x_min":84.203125,"x_max":787.890625,"ha":860,"o":"m 167 87 b 274 -8 167 26 218 -8 b 375 63 315 -8 348 12 l 757 772 b 787 876 775 805 787 844 b 692 972 787 937 751 972 l 175 972 b 84 879 125 972 84 930 b 175 787 84 827 125 787 l 540 787 l 186 154 b 167 87 175 134 167 105 "},"¨":{"x_min":87.109375,"x_max":593.4375,"ha":694,"o":"m 485 1023 b 378 922 427 1023 378 981 l 378 919 b 485 818 378 859 427 818 b 593 919 544 818 593 859 l 593 922 b 485 1023 593 981 544 1023 m 194 1023 b 87 922 136 1023 87 981 l 87 919 b 194 818 87 859 136 818 b 302 919 253 818 302 859 l 302 922 b 194 1023 302 981 253 1023 "},"Y":{"x_min":29.9375,"x_max":907.859375,"ha":956,"o":"m 363 98 b 468 -8 363 38 409 -8 b 573 98 526 -8 573 38 l 573 379 l 880 802 b 907 877 894 822 907 848 b 805 981 907 936 869 981 b 705 918 762 981 730 956 l 469 575 l 238 915 b 134 980 212 954 182 980 b 29 877 76 980 29 934 b 55 801 29 847 40 822 l 363 375 l 363 98 "},"E":{"x_min":114.328125,"x_max":847.96875,"ha":931,"o":"m 219 0 l 754 0 b 847 94 805 0 847 41 b 754 190 847 147 805 190 l 322 190 l 322 394 l 686 394 b 779 488 737 394 779 436 b 686 584 779 541 737 584 l 322 584 l 322 781 l 747 781 b 841 876 798 781 841 823 b 747 972 841 929 798 972 l 219 972 b 114 865 160 972 114 925 l 114 106 b 219 0 114 47 160 0 "},"Ô":{"x_min":72.140625,"x_max":1084.8125,"ha":1181,"o":"m 577 -16 b 1084 485 871 -16 1084 209 l 1084 488 b 579 988 1084 764 873 988 b 72 485 285 988 72 762 l 72 483 b 577 -16 72 206 283 -16 m 579 180 b 291 485 411 180 291 319 l 291 488 b 577 791 291 655 408 791 b 865 485 745 791 865 652 l 865 483 b 579 180 865 316 748 180 m 577 1153 l 641 1099 b 766 1053 686 1062 720 1053 b 813 1087 792 1053 813 1064 b 793 1127 813 1099 803 1114 l 707 1239 b 611 1287 684 1269 658 1287 l 545 1287 b 449 1239 498 1287 472 1269 l 363 1127 b 343 1087 353 1114 343 1099 b 387 1053 343 1064 362 1053 b 513 1099 434 1053 468 1062 l 577 1153 "},"‹":{"x_min":67.75,"x_max":416.203125,"ha":518,"o":"m 331 56 b 416 144 379 56 416 95 b 395 200 416 165 409 181 l 259 373 l 391 541 b 414 598 403 556 414 577 b 333 686 414 645 379 686 b 255 644 301 686 273 668 l 90 429 b 67 372 77 411 67 394 b 90 315 67 350 77 333 l 261 93 b 331 56 276 73 300 56 "},"Ï":{"x_min":-24.5,"x_max":481.828125,"ha":467,"o":"m 123 98 b 228 -8 123 38 170 -8 b 333 98 287 -8 333 38 l 333 873 b 228 980 333 933 287 980 b 123 873 170 980 123 933 l 123 98 m 374 1245 b 266 1144 315 1245 266 1204 l 266 1141 b 374 1040 266 1081 315 1040 b 481 1141 432 1040 481 1081 l 481 1144 b 374 1245 481 1204 432 1245 m 83 1245 b -24 1144 24 1245 -24 1204 l -24 1141 b 83 1040 -24 1081 24 1040 b 190 1141 141 1040 190 1081 l 190 1144 b 83 1245 190 1204 141 1245 "},"ġ":{"x_min":59.890625,"x_max":826.203125,"ha":938,"o":"m 419 -225 b 733 -125 560 -225 665 -194 b 826 167 794 -62 826 34 l 826 646 b 722 752 826 705 779 752 b 619 648 665 752 619 705 l 619 646 b 383 758 563 709 496 758 b 59 410 216 758 59 633 l 59 408 b 383 61 59 187 213 61 b 622 181 494 61 560 106 l 622 145 b 413 -57 622 12 555 -57 b 212 -12 336 -57 272 -40 b 178 -5 202 -8 191 -5 b 93 -91 132 -5 93 -44 b 152 -173 93 -130 117 -159 b 419 -225 238 -208 322 -225 m 443 235 b 266 408 343 235 266 305 l 266 410 b 443 583 266 512 343 583 b 622 410 544 583 622 512 l 622 408 b 443 235 622 306 544 235 m 552 921 b 442 1023 552 983 502 1023 b 332 921 382 1023 332 983 l 332 919 b 442 817 332 858 382 817 b 552 919 502 817 552 858 l 552 921 "},"ķ":{"x_min":93.15625,"x_max":750.578125,"ha":817,"o":"m 93 97 b 196 -8 93 38 139 -8 b 300 97 253 -8 300 38 l 300 218 l 383 294 l 564 40 b 653 -8 588 5 613 -8 b 750 87 705 -8 750 30 b 724 155 750 111 742 130 l 530 423 l 693 566 b 741 658 721 594 741 622 b 649 752 741 706 705 752 b 558 705 613 752 588 734 l 300 455 l 300 916 b 196 1022 300 975 253 1022 b 93 916 139 1022 93 975 l 93 97 m 425 -241 b 331 -337 426 -290 396 -323 b 297 -370 309 -341 297 -352 b 340 -405 297 -388 310 -405 b 471 -356 385 -405 437 -387 b 540 -191 516 -319 540 -265 l 540 -187 b 437 -73 540 -119 501 -73 b 339 -156 377 -73 339 -108 l 339 -158 b 425 -241 339 -206 377 -233 "}," ":{"x_min":0,"x_max":0,"ha":463},"±":{"x_min":91.1875,"x_max":779.921875,"ha":889,"o":"m 343 368 b 435 273 343 315 383 273 b 528 368 487 273 528 315 l 526 527 l 690 526 b 779 618 739 526 779 568 b 690 709 779 668 739 709 l 526 708 l 528 868 b 435 962 528 920 487 962 b 343 868 383 962 343 920 l 344 708 l 181 709 b 91 618 132 709 91 668 b 181 526 91 568 132 526 l 344 527 l 343 368 m 176 0 l 694 0 b 779 87 741 0 779 38 b 694 175 779 136 741 175 l 176 175 b 91 87 129 175 91 136 b 176 0 91 38 129 0 "},"ì":{"x_min":-19.0625,"x_max":308.96875,"ha":419,"o":"m 102 97 b 205 -8 102 38 148 -8 b 308 97 262 -8 308 38 l 308 647 b 205 752 308 705 262 752 b 102 647 148 752 102 705 l 102 97 m 210 818 b 262 854 240 818 262 831 b 249 891 262 866 255 880 l 174 1011 b 96 1058 156 1040 130 1058 b -19 994 46 1058 -19 1026 b 8 944 -19 975 -8 959 l 92 863 b 210 818 132 826 164 818 "},"|":{"x_min":156.53125,"x_max":319.859375,"ha":486,"o":"m 156 -102 b 238 -186 156 -148 193 -186 b 319 -102 283 -186 319 -148 l 319 1033 b 238 1116 319 1079 283 1116 b 156 1033 193 1116 156 1079 l 156 -102 "},"§":{"x_min":75.125,"x_max":785.875,"ha":878,"o":"m 442 -13 b 721 201 617 -13 721 70 l 721 204 b 664 330 721 252 701 301 b 785 493 730 355 785 401 l 785 495 b 483 702 785 602 698 654 b 333 779 354 731 333 750 l 333 781 b 423 831 333 812 366 831 b 598 762 487 831 540 809 b 647 745 607 754 625 745 b 727 827 691 745 727 781 b 698 891 727 856 713 879 b 418 986 623 952 536 986 b 139 770 243 986 139 902 l 139 768 b 196 641 139 720 156 673 b 75 479 130 616 75 572 l 75 476 b 377 269 75 372 162 318 b 527 193 497 243 527 225 l 527 190 b 437 140 527 161 494 140 b 263 209 373 140 320 162 b 213 226 253 218 235 226 b 133 144 169 226 133 190 b 162 80 133 115 147 93 b 442 -13 237 19 324 -13 m 529 401 b 393 426 501 401 464 408 b 256 506 299 450 256 470 l 256 509 b 331 570 256 548 288 570 b 467 545 359 570 396 563 b 604 465 561 522 604 501 l 604 462 b 529 401 604 423 572 401 "},"q":{"x_min":59.890625,"x_max":826.203125,"ha":938,"o":"m 826 647 b 722 752 826 705 779 752 b 619 648 665 752 619 705 l 619 647 b 392 758 570 706 502 758 b 59 373 219 758 59 622 l 59 370 b 392 -14 59 122 221 -14 b 619 106 499 -14 568 37 l 619 -125 b 722 -230 619 -183 665 -230 b 826 -125 779 -230 826 -183 l 826 647 m 445 578 b 622 373 541 578 622 497 l 622 370 b 445 165 622 247 541 165 b 266 370 348 165 266 247 l 266 373 b 445 578 266 498 348 578 "},"b":{"x_min":92.5625,"x_max":858.859375,"ha":938,"o":"m 92 97 b 196 -8 92 38 138 -8 b 299 95 253 -8 299 38 l 299 97 b 526 -14 348 37 416 -14 b 858 370 699 -14 858 122 l 858 373 b 526 758 858 622 696 758 b 299 637 419 758 349 706 l 299 916 b 196 1022 299 974 253 1022 b 92 916 138 1022 92 974 l 92 97 m 473 165 b 296 370 377 165 296 247 l 296 373 b 473 578 296 497 377 578 b 651 373 570 578 651 497 l 651 370 b 473 165 651 245 570 165 "},"ﬂ":{"x_min":34.03125,"x_max":828.921875,"ha":950,"o":"m 127 97 b 231 -8 127 38 174 -8 b 334 97 288 -8 334 38 l 334 563 l 421 563 b 507 650 469 563 507 601 b 421 736 507 698 469 736 l 332 736 l 332 765 b 406 845 332 820 359 845 l 424 845 b 509 933 470 845 509 886 b 438 1018 509 980 473 1012 b 353 1023 415 1022 386 1023 b 186 965 280 1023 224 1004 b 127 784 148 926 127 866 l 127 737 l 119 737 b 34 650 72 737 34 698 b 119 563 34 601 72 563 l 127 563 l 127 97 m 622 97 b 725 -8 622 38 668 -8 b 828 97 782 -8 828 38 l 828 916 b 725 1022 828 975 782 1022 b 622 916 668 1022 622 975 l 622 97 "},"®":{"x_min":13.890625,"x_max":487.546875,"ha":511,"o":"m 250 500 b 487 743 382 500 487 611 l 487 744 b 250 986 487 876 384 986 b 13 743 118 986 13 875 l 13 741 b 250 500 13 609 117 500 m 250 526 b 41 741 130 526 41 623 l 41 743 b 250 959 41 861 132 959 b 460 744 370 959 460 862 l 460 743 b 250 526 460 625 369 526 m 147 650 b 182 613 147 630 163 613 b 218 650 201 613 218 630 l 218 695 l 250 695 l 303 627 b 331 613 310 619 318 613 b 366 648 350 613 366 629 b 356 673 366 658 363 665 l 325 711 b 371 787 354 725 371 751 b 267 875 371 847 329 875 l 182 875 b 147 838 163 875 147 858 l 147 650 m 218 752 l 218 813 l 262 813 b 301 783 287 813 301 802 b 262 752 301 765 287 752 l 218 752 "},"L":{"x_min":114.328125,"x_max":807.140625,"ha":860,"o":"m 114 106 b 219 0 114 47 160 0 l 711 0 b 807 97 764 0 807 43 b 711 194 807 151 764 194 l 323 194 l 323 873 b 219 980 323 933 277 980 b 114 873 160 980 114 933 l 114 106 "},"ď":{"x_min":59.890625,"x_max":1041.25,"ha":938,"o":"m 826 916 b 722 1022 826 974 779 1022 b 619 916 665 1022 619 974 l 619 647 b 392 758 570 706 502 758 b 59 373 219 758 59 622 l 59 370 b 392 -14 59 122 221 -14 b 619 106 499 -14 568 37 l 619 97 b 722 -8 619 38 665 -8 b 826 97 779 -8 826 38 l 826 916 m 445 578 b 622 373 541 578 622 497 l 622 370 b 445 165 622 247 541 165 b 266 370 348 165 266 247 l 266 373 b 445 578 266 498 348 578 m 894 770 b 936 723 894 742 910 723 b 984 760 962 723 977 737 l 1035 944 b 1041 976 1039 956 1041 967 b 990 1022 1041 1006 1019 1022 l 963 1022 b 894 951 921 1022 894 990 l 894 770 "}," ":{"x_min":0,"x_max":0,"ha":417},"Ĭ":{"x_min":-8.171875,"x_max":465.5,"ha":467,"o":"m 123 98 b 228 -8 123 38 170 -8 b 333 98 287 -8 333 38 l 333 873 b 228 980 333 933 287 980 b 123 873 170 980 123 933 l 123 98 m 228 1045 b 455 1163 334 1045 415 1090 b 465 1202 462 1176 465 1188 b 394 1275 465 1243 434 1275 b 333 1238 362 1275 344 1256 b 228 1183 313 1205 283 1183 b 123 1238 174 1183 144 1205 b 62 1275 112 1256 95 1275 b -8 1202 23 1275 -8 1243 b 1 1163 -8 1188 -5 1176 b 228 1045 42 1090 122 1045 "},"À":{"x_min":48.90625,"x_max":992.171875,"ha":1064,"o":"m 48 91 b 145 -8 48 36 91 -8 b 242 58 189 -8 224 16 l 308 218 l 728 218 l 792 65 b 892 -8 811 20 843 -8 b 992 94 948 -8 992 37 b 981 137 992 108 988 122 l 649 902 b 528 987 626 955 585 987 l 515 987 b 393 902 458 987 416 955 l 61 137 b 48 91 54 122 48 106 m 386 406 l 518 727 l 650 406 l 386 406 m 525 1054 b 577 1090 555 1054 577 1068 b 563 1127 577 1102 570 1116 l 488 1247 b 410 1294 470 1276 445 1294 b 295 1230 360 1294 295 1262 b 322 1180 295 1211 306 1195 l 406 1100 b 525 1054 446 1062 479 1054 "},"ẃ":{"x_min":39.46875,"x_max":1116.109375,"ha":1179,"o":"m 341 -13 l 348 -13 b 460 76 398 -13 441 15 l 577 451 l 692 76 b 804 -13 711 15 754 -13 l 811 -13 b 925 80 861 -13 903 15 l 1109 612 b 1116 655 1112 622 1116 641 b 1019 752 1116 708 1076 752 b 920 672 965 752 933 716 l 805 291 l 690 669 b 583 754 675 719 637 754 l 571 754 b 465 669 518 754 480 719 l 351 293 l 239 670 b 138 752 224 719 190 752 b 39 656 77 752 39 705 b 49 605 39 638 44 618 l 227 80 b 341 -13 249 15 291 -13 m 571 818 b 690 863 617 818 650 826 l 774 944 b 801 994 790 959 801 975 b 686 1058 801 1026 736 1058 b 608 1011 651 1058 626 1040 l 533 891 b 519 854 526 880 519 866 b 571 818 519 831 541 818 "},"+":{"x_min":84.390625,"x_max":786.71875,"ha":889,"o":"m 338 233 b 435 134 338 179 382 134 b 532 233 488 134 532 179 l 532 393 l 692 393 b 786 488 744 393 786 436 b 692 584 786 541 744 584 l 532 584 l 532 744 b 435 843 532 798 488 843 b 338 744 382 843 338 798 l 338 584 l 178 584 b 84 488 126 584 84 541 b 178 393 84 436 126 393 l 338 393 l 338 233 "},"Ë":{"x_min":114.328125,"x_max":847.96875,"ha":931,"o":"m 219 0 l 754 0 b 847 94 805 0 847 41 b 754 190 847 147 805 190 l 322 190 l 322 394 l 686 394 b 779 488 737 394 779 436 b 686 584 779 541 737 584 l 322 584 l 322 781 l 747 781 b 841 876 798 781 841 823 b 747 972 841 929 798 972 l 219 972 b 114 865 160 972 114 925 l 114 106 b 219 0 114 47 160 0 m 622 1245 b 514 1144 563 1245 514 1204 l 514 1141 b 622 1040 514 1081 563 1040 b 729 1141 680 1040 729 1081 l 729 1144 b 622 1245 729 1204 680 1245 m 330 1245 b 223 1144 272 1245 223 1204 l 223 1141 b 330 1040 223 1081 272 1040 b 438 1141 389 1040 438 1081 l 438 1144 b 330 1245 438 1204 389 1245 "},"'":{"x_min":80.25,"x_max":313.0625,"ha":397,"o":"m 80 584 b 137 520 78 547 103 520 b 200 572 170 520 189 541 l 308 893 b 313 922 311 902 313 913 b 257 977 313 955 287 977 l 191 977 b 96 881 136 977 99 934 l 80 584 "},"Š":{"x_min":55.8125,"x_max":803.0625,"ha":889,"o":"m 453 -13 b 803 287 658 -13 803 94 l 803 290 b 500 582 803 459 694 530 b 295 709 336 625 295 646 l 295 712 b 417 797 295 759 337 797 b 617 732 483 797 548 773 b 671 716 634 722 650 716 b 769 815 725 716 769 759 b 722 900 769 857 745 886 b 420 986 637 955 536 986 b 87 693 225 986 87 869 l 87 690 b 402 393 87 497 210 443 b 594 269 562 351 594 323 l 594 266 b 457 175 594 209 543 175 b 213 262 364 175 285 208 b 153 282 200 272 181 282 b 55 183 99 282 55 239 b 95 103 55 150 72 119 b 453 -13 201 25 328 -13 m 442 1189 l 378 1243 b 253 1289 333 1280 299 1289 b 205 1255 227 1289 205 1278 b 225 1215 205 1243 216 1228 l 311 1103 b 408 1055 334 1073 360 1055 l 473 1055 b 570 1103 521 1055 547 1073 l 656 1215 b 676 1255 665 1228 676 1243 b 631 1289 676 1278 657 1289 b 506 1243 585 1289 551 1280 l 442 1189 "},"˛":{"x_min":240.921875,"x_max":492.71875,"ha":694,"o":"m 240 -111 b 427 -231 240 -190 313 -231 b 492 -181 470 -231 492 -212 b 443 -131 492 -155 475 -140 b 389 -77 408 -122 389 -108 b 435 13 389 -52 401 -22 l 298 13 b 240 -111 264 -27 240 -66 "},"ð":{"x_min":57.171875,"x_max":822.109375,"ha":900,"o":"m 536 630 b 368 675 477 662 431 675 b 57 348 186 675 57 541 b 434 -16 57 144 216 -16 b 822 365 679 -16 822 158 b 702 704 822 484 788 579 l 592 863 l 683 901 b 726 961 709 911 726 930 b 665 1023 726 995 699 1023 b 639 1018 657 1023 647 1020 l 519 968 l 511 980 b 431 1026 492 1008 468 1026 b 338 931 379 1026 338 984 b 345 895 338 918 341 906 l 235 850 b 191 790 209 840 191 820 b 253 727 191 755 219 727 b 279 733 261 727 270 730 l 417 791 l 536 630 m 620 344 b 441 161 620 241 552 161 b 258 344 332 161 258 243 b 439 525 258 447 329 525 b 620 344 549 525 620 444 "},"ş":{"x_min":33.421875,"x_max":626.859375,"ha":697,"o":"m 626 226 l 626 229 b 406 450 626 365 508 415 b 258 538 327 477 258 497 l 258 541 b 334 593 258 570 283 593 b 492 545 377 593 433 575 b 530 536 505 538 515 536 b 613 619 576 536 613 572 b 564 698 613 655 594 683 b 338 755 493 734 414 755 b 71 519 191 755 71 670 l 71 516 b 289 293 71 372 187 323 b 440 206 369 268 440 252 l 440 204 b 353 148 440 170 413 148 b 155 215 294 148 225 170 b 115 226 145 222 130 226 b 33 143 68 226 33 190 b 72 70 33 109 51 84 b 255 -4 131 31 194 6 l 176 -123 b 164 -159 169 -133 164 -147 b 281 -231 164 -194 243 -231 b 341 -187 312 -231 328 -218 l 411 -9 b 626 226 537 8 626 83 "},"ı":{"x_min":102.078125,"x_max":308.96875,"ha":419,"o":"m 102 97 b 205 -8 102 38 148 -8 b 308 97 262 -8 308 38 l 308 647 b 205 752 308 705 262 752 b 102 647 148 752 102 705 l 102 97 "},"Ć":{"x_min":72.140625,"x_max":935.078125,"ha":1025,"o":"m 560 -16 b 899 105 713 -16 813 29 b 935 181 918 122 935 148 b 837 280 935 236 890 280 b 774 256 812 280 790 270 b 567 180 714 208 656 180 b 291 486 404 180 291 319 l 291 488 b 567 791 291 655 406 791 b 762 722 642 791 703 766 b 824 701 777 712 796 701 b 928 805 882 701 928 747 b 887 890 928 843 909 873 b 568 988 808 950 711 988 b 72 486 276 988 72 762 l 72 483 b 560 -16 72 204 280 -16 m 545 1054 b 664 1100 592 1054 624 1062 l 748 1180 b 775 1230 764 1195 775 1211 b 660 1294 775 1262 710 1294 b 582 1247 626 1294 600 1276 l 507 1127 b 494 1090 500 1116 494 1102 b 545 1054 494 1068 515 1054 "},"ä":{"x_min":49,"x_max":720.03125,"ha":822,"o":"m 299 -13 b 519 80 400 -13 469 23 l 519 79 b 619 -8 519 34 559 -8 b 720 93 675 -8 720 36 l 720 431 b 641 669 720 531 695 613 b 394 752 589 722 507 752 b 161 713 298 752 227 738 b 106 631 129 701 106 669 b 191 545 106 583 144 545 b 221 551 201 545 209 547 b 364 572 261 563 307 572 b 521 436 468 572 521 523 l 521 423 b 343 454 469 441 416 454 b 49 216 170 454 49 379 l 49 213 b 299 -13 49 66 161 -13 m 362 131 b 249 222 295 131 249 165 l 249 224 b 392 327 249 291 303 327 b 524 299 442 327 488 316 l 524 262 b 362 131 524 186 458 131 m 551 1023 b 443 922 492 1023 443 981 l 443 919 b 551 817 443 859 492 817 b 658 919 609 817 658 859 l 658 922 b 551 1023 658 981 609 1023 m 259 1023 b 152 922 201 1023 152 981 l 152 919 b 259 817 152 859 201 817 b 367 919 318 817 367 859 l 367 922 b 259 1023 367 981 318 1023 "},"£":{"x_min":73.5,"x_max":819.390625,"ha":894,"o":"m 73 77 b 157 0 73 34 107 0 l 728 0 b 819 91 778 0 819 40 b 728 184 819 143 778 184 l 397 184 l 397 370 l 628 370 b 715 458 676 370 715 409 b 628 547 715 506 676 547 l 397 547 l 397 654 b 432 756 397 698 411 734 b 510 787 453 777 477 787 b 623 731 555 787 588 769 b 698 700 637 718 661 700 b 801 804 755 700 801 745 b 769 880 801 838 788 861 b 507 986 709 943 628 986 b 266 897 402 986 322 954 b 185 659 213 843 185 759 l 185 547 l 160 547 b 73 458 112 547 73 506 b 160 370 73 409 112 370 l 185 370 l 185 175 l 130 156 b 73 77 93 144 73 112 "},"ů":{"x_min":87.109375,"x_max":755.421875,"ha":865,"o":"m 755 647 b 651 752 755 705 709 752 b 548 647 594 752 548 705 l 548 329 b 419 177 548 229 498 177 b 294 329 340 177 294 229 l 294 647 b 190 752 294 705 247 752 b 87 647 133 752 87 705 l 87 262 b 334 -13 87 91 178 -13 b 548 105 439 -13 500 43 l 548 97 b 651 -8 548 38 594 -8 b 755 97 709 -8 755 38 l 755 647 m 420 823 b 585 984 507 823 585 897 l 585 987 b 420 1148 585 1075 507 1148 b 255 987 333 1148 255 1075 l 255 984 b 420 823 255 897 333 823 m 420 900 b 336 984 374 900 336 939 l 336 987 b 420 1072 336 1033 374 1072 b 504 987 466 1072 504 1033 l 504 984 b 420 900 504 939 466 900 "},"Ō":{"x_min":72.140625,"x_max":1084.8125,"ha":1181,"o":"m 577 -16 b 1084 486 871 -16 1084 209 l 1084 488 b 579 988 1084 765 873 988 b 72 486 285 988 72 762 l 72 483 b 577 -16 72 206 283 -16 m 579 180 b 291 486 411 180 291 319 l 291 488 b 577 791 291 655 408 791 b 865 486 745 791 865 652 l 865 483 b 579 180 865 316 748 180 m 759 1069 b 831 1141 798 1069 831 1101 b 759 1215 831 1181 798 1215 l 397 1215 b 325 1141 357 1215 325 1181 b 397 1069 325 1101 357 1069 l 759 1069 "},"W":{"x_min":46.28125,"x_max":1448.21875,"ha":1525,"o":"m 321 72 b 430 -15 340 18 379 -15 l 451 -15 b 559 72 502 -15 540 16 l 747 629 l 935 72 b 1042 -15 954 16 992 -15 l 1064 -15 b 1173 72 1114 -15 1154 18 l 1440 836 b 1448 877 1444 848 1448 865 b 1344 980 1448 936 1401 980 b 1244 904 1293 980 1257 945 l 1054 308 l 864 898 b 758 983 847 950 811 983 l 741 983 b 635 898 688 983 651 948 l 445 308 l 255 904 b 153 980 242 948 202 980 b 46 876 95 980 46 936 b 54 836 46 863 50 848 l 321 72 "},"Ğ":{"x_min":72.140625,"x_max":980,"ha":1089,"o":"m 573 -16 b 906 80 715 -16 828 31 b 980 216 956 111 980 154 l 980 452 b 875 559 980 512 933 559 l 635 559 b 544 466 585 559 544 518 b 635 375 544 415 585 375 l 777 375 l 777 236 b 579 177 724 197 656 177 b 291 486 411 177 291 308 l 291 488 b 564 791 291 654 412 791 b 773 725 654 791 715 766 b 837 702 788 713 807 702 b 940 808 894 702 940 750 b 896 894 940 850 917 879 b 571 988 811 955 715 988 b 72 486 283 988 72 762 l 72 483 b 573 -16 72 195 276 -16 m 560 1059 b 788 1177 666 1059 747 1104 b 797 1216 794 1190 797 1202 b 726 1288 797 1256 766 1288 b 665 1252 694 1288 676 1270 b 560 1197 645 1219 615 1197 b 455 1252 506 1197 476 1219 b 394 1288 445 1270 427 1288 b 323 1216 355 1288 323 1256 b 333 1177 323 1202 326 1190 b 560 1059 374 1104 454 1059 "},"v":{"x_min":43.5625,"x_max":756.78125,"ha":817,"o":"m 522 76 l 745 602 b 756 652 749 612 756 634 b 657 752 756 709 711 752 b 560 680 602 752 574 716 l 401 245 l 245 677 b 144 752 230 720 200 752 b 43 654 88 752 43 704 b 54 602 43 634 49 616 l 277 76 b 394 -15 300 20 338 -15 l 405 -15 b 522 76 461 -15 499 22 "},">":{"x_min":111.921875,"x_max":787.03125,"ha":889,"o":"m 201 848 b 111 762 151 850 111 813 b 169 675 111 723 133 691 l 580 487 l 169 300 b 111 215 133 283 111 255 b 194 127 111 165 151 126 b 245 141 214 127 228 133 l 704 363 b 787 481 755 388 787 427 l 787 495 b 704 613 787 550 755 588 l 245 836 b 201 848 231 843 216 848 "},"û":{"x_min":87.109375,"x_max":755.421875,"ha":865,"o":"m 755 647 b 651 752 755 705 709 752 b 548 647 594 752 548 705 l 548 329 b 419 177 548 229 498 177 b 294 329 340 177 294 229 l 294 647 b 190 752 294 705 247 752 b 87 647 133 752 87 705 l 87 262 b 334 -13 87 91 178 -13 b 548 105 439 -13 500 43 l 548 97 b 651 -8 548 38 594 -8 b 755 97 709 -8 755 38 l 755 647 m 419 917 l 483 863 b 608 817 528 826 562 817 b 656 851 634 817 656 829 b 635 891 656 863 645 879 l 549 1003 b 453 1051 526 1033 500 1051 l 387 1051 b 291 1003 340 1051 314 1033 l 205 891 b 185 851 196 879 185 863 b 230 817 185 829 204 817 b 355 863 276 817 310 826 l 419 917 "},"Ź":{"x_min":78.046875,"x_max":887.953125,"ha":983,"o":"m 170 0 l 795 0 b 887 93 845 0 887 41 b 795 187 887 144 845 187 l 355 187 l 849 773 b 887 873 874 804 887 836 l 887 877 b 795 972 887 929 845 972 l 186 972 b 94 877 136 972 94 929 b 186 784 94 826 136 784 l 610 784 l 116 198 b 78 98 91 169 78 136 l 78 94 b 170 0 78 43 120 0 m 485 1040 b 603 1086 531 1040 564 1048 l 687 1166 b 715 1216 704 1181 715 1197 b 599 1280 715 1248 649 1280 b 521 1233 565 1280 539 1262 l 446 1113 b 433 1076 440 1102 433 1088 b 485 1040 433 1054 455 1040 "},"Ų":{"x_min":99.265625,"x_max":929.546875,"ha":1050,"o":"m 391 -111 b 578 -231 391 -190 464 -231 b 643 -181 621 -231 643 -212 b 594 -131 643 -155 626 -140 b 540 -77 559 -122 540 -108 b 563 -12 540 -58 545 -37 b 929 423 789 5 929 150 l 929 873 b 824 980 929 933 883 980 b 719 873 766 980 719 933 l 719 415 b 514 181 719 261 642 181 b 308 422 386 181 308 263 l 308 873 b 204 980 308 933 262 980 b 99 873 145 980 99 933 l 99 416 b 430 -9 99 162 223 18 b 391 -111 406 -43 391 -75 "},"Ŵ":{"x_min":46.28125,"x_max":1448.21875,"ha":1525,"o":"m 321 71 b 430 -15 340 17 379 -15 l 451 -15 b 559 71 502 -15 540 16 l 747 628 l 935 71 b 1042 -15 954 16 992 -15 l 1064 -15 b 1173 71 1114 -15 1154 17 l 1440 835 b 1448 877 1444 848 1448 864 b 1344 980 1448 935 1401 980 b 1244 903 1293 980 1257 945 l 1054 307 l 864 898 b 758 982 847 949 811 982 l 741 982 b 635 898 688 982 651 948 l 445 307 l 255 903 b 153 980 242 948 202 980 b 46 875 95 980 46 935 b 54 835 46 863 50 848 l 321 71 m 745 1139 l 809 1085 b 935 1039 854 1048 888 1039 b 982 1073 960 1039 982 1050 b 962 1113 982 1085 971 1100 l 876 1225 b 779 1273 853 1255 827 1273 l 714 1273 b 617 1225 666 1273 641 1255 l 532 1113 b 511 1073 522 1100 511 1085 b 556 1039 511 1050 530 1039 b 681 1085 602 1039 637 1048 l 745 1139 "},"Ð":{"x_min":44.921875,"x_max":1033.078125,"ha":1128,"o":"m 137 583 b 44 488 85 583 44 541 b 137 394 44 436 85 394 l 155 394 l 155 106 b 259 0 155 47 201 0 l 526 0 b 1033 486 826 0 1033 212 l 1033 488 b 526 972 1033 762 826 972 l 259 972 b 155 865 201 972 155 925 l 155 583 l 137 583 m 362 779 l 526 779 b 813 486 698 779 813 658 l 813 483 b 526 193 813 311 698 193 l 362 193 l 362 394 l 484 394 b 577 488 536 394 577 436 b 484 583 577 541 536 583 l 362 583 l 362 779 "},"Ĺ":{"x_min":114.328125,"x_max":807.140625,"ha":860,"o":"m 114 106 b 219 0 114 47 160 0 l 711 0 b 807 97 764 0 807 43 b 711 194 807 151 764 194 l 323 194 l 323 873 b 219 980 323 933 277 980 b 114 873 160 980 114 933 l 114 106 m 246 1040 b 364 1086 292 1040 325 1048 l 449 1166 b 476 1216 465 1181 476 1197 b 360 1280 476 1248 411 1280 b 283 1233 326 1280 300 1262 l 208 1113 b 194 1076 201 1102 194 1088 b 246 1040 194 1054 216 1040 "},"r":{"x_min":92.5625,"x_max":540.359375,"ha":581,"o":"m 92 97 b 196 -8 92 38 138 -8 b 299 97 253 -8 299 38 l 299 294 b 462 551 299 444 357 526 b 540 650 504 561 540 594 b 439 752 540 709 503 752 b 299 613 378 752 329 686 l 299 647 b 196 752 299 705 253 752 b 92 647 138 752 92 705 l 92 97 "},"Č":{"x_min":72.140625,"x_max":935.078125,"ha":1025,"o":"m 560 -16 b 899 105 713 -16 813 29 b 935 182 918 122 935 148 b 837 280 935 236 890 280 b 774 257 812 280 790 271 b 567 180 714 208 656 180 b 291 486 404 180 291 319 l 291 489 b 567 791 291 655 406 791 b 762 722 642 791 703 766 b 824 701 777 712 796 701 b 928 805 882 701 928 747 b 887 890 928 843 909 873 b 568 989 808 950 711 989 b 72 486 276 989 72 762 l 72 483 b 560 -16 72 204 280 -16 m 552 1189 l 488 1243 b 363 1289 443 1280 409 1289 b 315 1255 337 1289 315 1278 b 336 1215 315 1243 326 1228 l 421 1103 b 518 1055 445 1073 470 1055 l 583 1055 b 680 1103 631 1055 657 1073 l 766 1215 b 786 1255 775 1228 786 1243 b 741 1289 786 1278 767 1289 b 616 1243 695 1289 661 1280 l 552 1189 "},"x":{"x_min":53.875,"x_max":726.125,"ha":797,"o":"m 53 80 b 150 -11 53 27 96 -11 b 240 43 187 -11 215 12 l 387 240 l 534 43 b 630 -11 561 8 590 -11 b 726 86 682 -11 726 26 b 692 166 726 113 715 138 l 509 380 l 686 591 b 715 663 702 612 715 634 b 618 755 715 716 673 755 b 528 701 581 755 553 731 l 391 518 l 256 701 b 160 755 229 736 200 755 b 64 658 108 755 64 718 b 98 577 64 630 75 605 l 268 377 l 82 152 b 53 80 64 131 53 109 "},"è":{"x_min":57.03125,"x_max":768.890625,"ha":851,"o":"m 259 430 b 417 588 276 526 331 588 b 571 430 504 588 559 525 l 259 430 m 691 73 b 718 136 706 87 718 108 b 638 219 718 183 684 219 b 587 202 616 219 602 213 b 440 152 545 170 498 152 b 262 298 348 152 282 202 l 672 298 b 768 400 726 298 768 338 b 417 758 768 554 661 758 b 57 370 205 758 57 583 l 57 368 b 438 -16 57 140 219 -16 b 691 73 544 -16 627 18 m 417 818 b 469 854 447 818 469 831 b 455 891 469 866 462 880 l 380 1011 b 303 1058 363 1040 337 1058 b 187 994 253 1058 187 1026 b 214 944 187 975 198 959 l 299 863 b 417 818 338 826 371 818 "},"Ø":{"x_min":71.96875,"x_max":1085.03125,"ha":1181,"o":"m 577 -17 b 1085 486 871 -17 1085 209 l 1085 488 b 978 800 1085 606 1045 715 l 1030 855 b 1060 920 1045 870 1060 893 b 988 987 1060 955 1030 987 b 925 958 962 987 940 973 l 869 902 b 579 989 789 957 690 989 b 71 486 285 989 71 762 l 71 483 b 178 170 71 365 110 255 l 126 116 b 96 51 111 101 96 78 b 168 -15 96 16 126 -15 b 231 13 194 -15 216 -1 l 285 69 b 577 -17 366 14 465 -17 m 287 486 l 287 488 b 577 795 287 656 406 795 b 729 751 634 795 686 779 l 326 327 b 287 486 300 373 287 427 m 579 176 b 425 219 522 176 469 191 l 830 644 b 869 486 856 597 869 542 l 869 483 b 579 176 869 315 750 176 "},"Ń":{"x_min":114.328125,"x_max":960.953125,"ha":1097,"o":"m 114 97 b 217 -8 114 38 160 -8 b 321 97 274 -8 321 38 l 321 618 l 740 56 b 849 -5 769 19 798 -5 l 856 -5 b 960 101 914 -5 960 41 l 960 875 b 857 980 960 933 914 980 b 754 875 800 980 754 933 l 754 373 l 349 915 b 240 977 321 952 291 977 l 219 977 b 114 870 160 977 114 930 l 114 97 m 532 1040 b 650 1086 578 1040 611 1048 l 735 1166 b 762 1216 751 1181 762 1197 b 646 1280 762 1248 696 1280 b 568 1233 612 1280 586 1262 l 494 1113 b 480 1076 487 1102 480 1088 b 532 1040 480 1054 502 1040 "},"Ỳ":{"x_min":29.9375,"x_max":907.859375,"ha":956,"o":"m 363 98 b 468 -8 363 38 409 -8 b 573 98 526 -8 573 38 l 573 379 l 880 802 b 907 877 894 822 907 848 b 805 981 907 936 869 981 b 705 918 762 981 730 956 l 469 575 l 238 915 b 134 980 212 954 182 980 b 29 877 76 980 29 934 b 55 801 29 847 40 822 l 363 375 l 363 98 m 473 1040 b 525 1076 503 1040 525 1054 b 511 1113 525 1088 518 1102 l 436 1233 b 359 1280 419 1262 393 1280 b 243 1216 308 1280 243 1248 b 270 1166 243 1197 254 1181 l 355 1086 b 473 1040 394 1048 427 1040 "},"÷":{"x_min":84.390625,"x_max":786.71875,"ha":889,"o":"m 171 400 b 84 488 123 400 84 440 b 171 577 84 537 123 577 l 699 577 b 786 488 747 577 786 537 b 699 400 786 440 747 400 l 171 400 m 435 298 b 323 190 374 298 323 250 b 435 81 323 130 374 81 b 547 190 496 81 547 130 b 435 298 547 250 496 298 m 435 895 b 323 787 374 895 323 847 b 435 679 323 727 374 679 b 547 787 496 679 547 727 b 435 895 547 847 496 895 "},"h":{"x_min":92.5625,"x_max":760.859375,"ha":865,"o":"m 92 97 b 196 -7 92 39 138 -7 b 299 97 253 -7 299 39 l 299 415 b 428 567 299 515 349 567 b 553 415 507 567 553 515 l 553 97 b 657 -7 553 39 600 -7 b 760 97 714 -7 760 39 l 760 482 b 513 758 760 653 669 758 b 299 639 408 758 347 701 l 299 917 b 196 1022 299 975 253 1022 b 92 917 138 1022 92 975 l 92 97 "},".":{"x_min":76.21875,"x_max":313.0625,"ha":397,"o":"m 76 112 l 76 109 b 194 -8 76 43 126 -8 b 313 109 262 -8 313 43 l 313 112 b 194 230 313 179 262 230 b 76 112 126 230 76 179 "},"f":{"x_min":34.03125,"x_max":509.0625,"ha":531,"o":"m 127 97 b 231 -8 127 38 174 -8 b 334 97 288 -8 334 38 l 334 563 l 421 563 b 507 650 469 563 507 601 b 421 736 507 698 469 736 l 332 736 l 332 765 b 406 845 332 820 359 845 l 424 845 b 509 933 470 845 509 886 b 438 1018 509 980 473 1012 b 353 1023 415 1022 386 1023 b 186 965 280 1023 224 1004 b 127 784 148 926 127 866 l 127 737 l 119 737 b 34 650 72 737 34 698 b 119 563 34 601 72 563 l 127 563 l 127 97 "},"“":{"x_min":72.140625,"x_max":702.328125,"ha":750,"o":"m 702 931 b 650 979 702 956 687 979 b 498 912 600 979 539 954 b 417 684 447 861 417 786 l 417 679 b 539 523 417 583 462 523 b 651 637 607 523 651 572 l 651 640 b 556 754 651 700 604 741 b 661 886 553 820 592 869 b 702 931 684 891 702 906 m 356 931 b 304 979 356 956 341 979 b 152 912 254 979 193 954 b 72 684 102 861 72 786 l 72 679 b 193 523 72 583 117 523 b 306 637 261 523 306 572 l 306 640 b 210 754 306 700 258 741 b 315 886 208 820 246 869 b 356 931 338 891 356 906 "},"A":{"x_min":48.90625,"x_max":992.171875,"ha":1064,"o":"m 48 91 b 145 -8 48 36 91 -8 b 242 58 189 -8 224 16 l 308 218 l 728 218 l 792 65 b 892 -8 811 20 843 -8 b 992 94 948 -8 992 37 b 981 137 992 108 988 122 l 649 902 b 528 987 626 955 585 987 l 515 987 b 393 902 458 987 416 955 l 61 137 b 48 91 54 122 48 106 m 386 406 l 518 727 l 650 406 l 386 406 "},"‘":{"x_min":72.140625,"x_max":356.609375,"ha":397,"o":"m 356 931 b 304 979 356 956 341 979 b 152 912 254 979 193 954 b 72 684 102 861 72 786 l 72 679 b 193 523 72 583 117 523 b 306 637 261 523 306 572 l 306 640 b 210 754 306 700 258 741 b 315 886 208 820 246 869 b 356 931 338 891 356 906 "},"O":{"x_min":72.140625,"x_max":1084.8125,"ha":1181,"o":"m 577 -16 b 1084 486 871 -16 1084 209 l 1084 488 b 579 988 1084 765 873 988 b 72 486 285 988 72 762 l 72 483 b 577 -16 72 206 283 -16 m 579 180 b 291 486 411 180 291 319 l 291 488 b 577 791 291 655 408 791 b 865 486 745 791 865 652 l 865 483 b 579 180 865 316 748 180 "},"Đ":{"x_min":44.921875,"x_max":1033.078125,"ha":1128,"o":"m 137 583 b 44 488 85 583 44 541 b 137 394 44 436 85 394 l 155 394 l 155 106 b 259 0 155 47 201 0 l 526 0 b 1033 486 826 0 1033 212 l 1033 488 b 526 972 1033 762 826 972 l 259 972 b 155 865 201 972 155 925 l 155 583 l 137 583 m 362 779 l 526 779 b 813 486 698 779 813 658 l 813 483 b 526 193 813 311 698 193 l 362 193 l 362 394 l 484 394 b 577 488 536 394 577 436 b 484 583 577 541 536 583 l 362 583 l 362 779 "},"3":{"x_min":72.140625,"x_max":766.3125,"ha":863,"o":"m 423 -16 b 766 301 635 -16 766 118 l 766 304 b 510 576 766 484 639 554 l 696 758 b 759 877 735 795 759 825 b 653 972 759 936 714 972 l 189 972 b 99 880 140 972 99 930 b 189 788 99 830 140 788 l 481 788 l 296 598 b 251 511 264 565 251 540 b 341 419 251 461 292 419 l 374 419 b 560 295 491 419 560 375 l 560 293 b 426 175 560 220 504 175 b 239 247 351 175 294 200 b 172 273 223 261 202 273 b 72 170 118 273 72 226 b 107 94 72 140 88 111 b 423 -16 185 26 287 -16 "},"9":{"x_min":76.21875,"x_max":827.5625,"ha":919,"o":"m 411 -16 b 827 514 681 -16 827 198 l 827 516 b 714 883 827 708 782 814 b 439 989 642 957 567 989 b 76 648 224 989 76 844 l 76 645 b 416 332 76 448 209 332 b 609 398 499 332 563 358 b 416 177 596 268 533 177 b 264 220 356 177 313 191 b 209 237 247 230 230 237 b 110 140 155 237 110 195 b 159 52 110 101 130 70 b 411 -16 230 8 304 -16 m 450 509 b 284 655 347 509 284 569 l 284 658 b 446 805 284 744 343 805 b 613 657 551 805 613 743 l 613 654 b 450 509 613 570 553 509 "},"Ǿ":{"x_min":71.96875,"x_max":1085.03125,"ha":1181,"o":"m 577 -17 b 1085 486 871 -17 1085 209 l 1085 488 b 978 800 1085 606 1045 715 l 1030 855 b 1060 920 1045 870 1060 893 b 988 987 1060 955 1030 987 b 925 958 962 987 940 973 l 869 902 b 579 989 789 957 690 989 b 71 486 285 989 71 762 l 71 483 b 178 170 71 365 110 255 l 126 116 b 96 51 111 101 96 78 b 168 -15 96 16 126 -15 b 231 13 194 -15 216 -1 l 285 69 b 577 -17 366 14 465 -17 m 287 486 l 287 488 b 577 795 287 656 406 795 b 729 751 634 795 686 779 l 326 327 b 287 486 300 373 287 427 m 579 176 b 425 219 522 176 469 191 l 830 644 b 869 486 856 597 869 542 l 869 483 b 579 176 869 315 750 176 m 573 1054 b 691 1100 619 1054 652 1062 l 775 1180 b 803 1230 792 1195 803 1211 b 687 1294 803 1262 737 1294 b 609 1247 653 1294 627 1276 l 534 1127 b 521 1090 528 1116 521 1102 b 573 1054 521 1068 543 1054 "},"l":{"x_min":102.078125,"x_max":308.96875,"ha":419,"o":"m 102 97 b 205 -8 102 38 148 -8 b 308 97 262 -8 308 38 l 308 916 b 205 1022 308 975 262 1022 b 102 916 148 1022 102 975 l 102 97 "},"4":{"x_min":47.640625,"x_max":877.921875,"ha":957,"o":"m 541 93 b 641 -8 541 36 585 -8 b 741 93 696 -8 741 36 l 741 209 l 792 209 b 877 295 839 209 877 247 b 792 383 877 344 839 383 l 741 383 l 741 886 b 641 987 741 943 696 987 b 510 915 579 987 549 962 l 96 425 b 47 308 65 387 47 352 b 149 209 47 251 93 209 l 541 209 l 541 93 m 288 383 l 541 686 l 541 383 l 288 383 "},"Ẁ":{"x_min":46.28125,"x_max":1448.21875,"ha":1525,"o":"m 321 72 b 430 -15 340 18 379 -15 l 451 -15 b 559 72 502 -15 540 16 l 747 629 l 935 72 b 1042 -15 954 16 992 -15 l 1064 -15 b 1173 72 1114 -15 1154 18 l 1440 836 b 1448 877 1444 848 1448 865 b 1344 980 1448 936 1401 980 b 1244 904 1293 980 1257 945 l 1054 308 l 864 898 b 758 983 847 950 811 983 l 741 983 b 635 898 688 983 651 948 l 445 308 l 255 904 b 153 980 242 948 202 980 b 46 876 95 980 46 936 b 54 836 46 863 50 848 l 321 72 m 752 1040 b 804 1076 782 1040 804 1054 b 790 1113 804 1088 797 1102 l 715 1233 b 638 1280 698 1262 672 1280 b 522 1216 588 1280 522 1248 b 549 1166 522 1197 533 1181 l 634 1086 b 752 1040 673 1048 706 1040 "}," ":{"x_min":0,"x_max":0,"ha":104},"Ť":{"x_min":38.109375,"x_max":843.890625,"ha":900,"o":"m 336 98 b 441 -8 336 39 382 -8 b 545 98 499 -8 545 39 l 545 775 l 747 775 b 843 873 800 775 843 819 b 747 972 843 927 800 972 l 134 972 b 38 873 81 972 38 927 b 134 775 38 819 81 775 l 336 775 l 336 98 m 442 1175 l 378 1229 b 253 1275 333 1266 299 1275 b 205 1241 227 1275 205 1264 b 225 1201 205 1229 216 1214 l 311 1089 b 408 1041 334 1059 360 1041 l 473 1041 b 570 1089 521 1041 547 1059 l 656 1201 b 676 1241 665 1214 676 1229 b 631 1275 676 1264 657 1275 b 506 1229 585 1275 551 1266 l 442 1175 "},"Ü":{"x_min":99.359375,"x_max":929.640625,"ha":1050,"o":"m 511 -15 b 929 423 767 -15 929 129 l 929 873 b 824 980 929 933 883 980 b 720 873 766 980 720 933 l 720 415 b 514 181 720 261 642 181 b 308 422 386 181 308 263 l 308 873 b 204 980 308 933 262 980 b 99 873 145 980 99 933 l 99 416 b 511 -15 99 130 255 -15 m 660 1245 b 552 1144 601 1245 552 1204 l 552 1141 b 660 1040 552 1081 601 1040 b 767 1141 718 1040 767 1081 l 767 1144 b 660 1245 767 1204 718 1245 m 368 1245 b 261 1144 310 1245 261 1204 l 261 1141 b 368 1040 261 1081 310 1040 b 476 1141 427 1040 476 1081 l 476 1144 b 368 1245 476 1204 427 1245 "},"à":{"x_min":49,"x_max":720.03125,"ha":822,"o":"m 299 -13 b 519 80 400 -13 469 23 l 519 79 b 619 -8 519 34 559 -8 b 720 93 675 -8 720 36 l 720 431 b 641 669 720 531 695 613 b 394 752 589 722 507 752 b 161 713 298 752 227 738 b 106 631 129 701 106 669 b 191 545 106 583 144 545 b 221 551 201 545 209 547 b 364 572 261 563 307 572 b 521 436 468 572 521 523 l 521 423 b 343 454 469 441 416 454 b 49 216 170 454 49 379 l 49 213 b 299 -13 49 66 161 -13 m 362 131 b 249 222 295 131 249 165 l 249 224 b 392 327 249 291 303 327 b 524 299 442 327 488 316 l 524 262 b 362 131 524 186 458 131 m 411 817 b 462 854 441 817 462 831 b 449 891 462 866 455 880 l 374 1011 b 296 1058 356 1040 330 1058 b 181 994 246 1058 181 1026 b 208 944 181 974 191 959 l 292 863 b 411 817 332 826 364 817 "},"Ś":{"x_min":55.8125,"x_max":803.0625,"ha":889,"o":"m 453 -13 b 803 287 658 -13 803 94 l 803 290 b 500 581 803 459 694 530 b 295 709 336 625 295 645 l 295 712 b 417 797 295 759 337 797 b 617 731 483 797 548 773 b 671 716 634 722 650 716 b 769 815 725 716 769 759 b 722 900 769 856 745 886 b 420 986 637 955 536 986 b 87 693 225 986 87 869 l 87 690 b 402 393 87 497 210 443 b 594 269 562 351 594 323 l 594 266 b 457 175 594 209 543 175 b 213 262 364 175 285 208 b 153 281 200 272 181 281 b 55 183 99 281 55 238 b 95 102 55 150 72 119 b 453 -13 201 25 328 -13 m 435 1054 b 553 1100 481 1054 514 1062 l 638 1180 b 665 1230 654 1195 665 1211 b 549 1294 665 1262 600 1294 b 472 1247 515 1294 490 1276 l 397 1127 b 383 1090 390 1116 383 1102 b 435 1054 383 1068 405 1054 "},"ó":{"x_min":57.171875,"x_max":846.609375,"ha":922,"o":"m 450 -16 b 846 370 677 -16 846 156 l 846 373 b 453 758 846 587 679 758 b 57 370 225 758 57 584 l 57 368 b 450 -16 57 154 224 -16 m 453 165 b 261 370 338 165 261 261 l 261 373 b 450 576 261 483 332 576 b 642 370 564 576 642 480 l 642 368 b 453 165 642 258 571 165 m 446 818 b 564 863 492 818 525 826 l 649 944 b 676 994 665 959 676 975 b 560 1058 676 1026 611 1058 b 483 1011 526 1058 500 1040 l 408 891 b 394 854 401 880 394 866 b 446 818 394 831 416 818 "},"ŗ":{"x_min":62.609375,"x_max":540.359375,"ha":581,"o":"m 92 97 b 196 -8 92 38 138 -8 b 299 97 253 -8 299 38 l 299 294 b 462 551 299 444 357 526 b 540 650 504 561 540 594 b 439 752 540 709 503 752 b 299 613 378 752 329 686 l 299 647 b 196 752 299 705 253 752 b 92 647 138 752 92 705 l 92 97 m 190 -241 b 96 -337 191 -290 161 -323 b 62 -370 74 -341 62 -352 b 106 -405 62 -388 76 -405 b 236 -356 151 -405 202 -387 b 306 -191 281 -319 306 -265 l 306 -187 b 202 -73 306 -119 266 -73 b 104 -156 142 -73 104 -108 l 104 -158 b 190 -241 104 -206 142 -233 "}}}
